<?xml version="1.0" standalone="no"?>
<!DOCTYPE svg PUBLIC "-//W3C//DTD SVG 1.1//EN" "http://www.w3.org/Graphics/SVG/1.1/DTD/svg11.dtd" >
<svg xmlns="http://www.w3.org/2000/svg" xmlns:xlink="http://www.w3.org/1999/xlink" version="1.1">
<metadata>
Created by FontForge 20170731 at Sat Jun 12 17:33:31 2021
 By Aleksey,,,
Copyright (c) 2015 CJ Type. All rights reserved.
</metadata>
<defs>
<font id="DunbarText-Bold" horiz-adv-x="69" >
  <font-face 
    font-family="DunbarText"
    font-weight="700"
    font-stretch="normal"
    units-per-em="2048"
    panose-1="0 0 0 0 0 0 0 2 0 0"
    ascent="1597"
    descent="-451"
    x-height="1024"
    cap-height="1528"
    bbox="-423.618 -610 2517 2261"
    underline-thickness="0"
    underline-position="0"
    unicode-range="U+0020-FEFF"
  />
<missing-glyph horiz-adv-x="34" 
 />
    <glyph glyph-name="f_f" unicode="ff" horiz-adv-x="1331" 
d="M596 780h-119v-780h-291v780h-120v244h120v201q0 121 39 201t102 123q66 45 141 61q77 16 157 16v-252q-60 0 -104 -32t-44 -134v-184h119v-244zM1262 780h-119v-780h-291v780h-121v244h121v201q0 121 39 201q40 81 101 123q65 45 142 61t156 16v-252q-59 0 -103 -32
t-44 -134v-184h119v-244z" />
    <glyph glyph-name="f_i" unicode="fi" horiz-adv-x="1193" 
d="M596 780h-119v-780h-291v780h-120v244h120v201q0 121 39 201t102 123q66 45 141 61q77 16 157 16v-252q-60 0 -104 -32t-44 -134v-184h119v-244zM1079 1423v-247h-297v247h297zM1075 1024v-1024h-291v1024h291z" />
    <glyph glyph-name="f_l" unicode="fl" horiz-adv-x="1193" 
d="M596 780h-119v-780h-291v780h-120v244h120v201q0 121 39 201t102 123q66 45 141 61q77 16 157 16v-252q-60 0 -104 -32t-44 -134v-184h119v-244zM1075 1597v-1597h-291v1597h291z" />
    <glyph glyph-name="f_f_i" unicode="ffi" horiz-adv-x="1859" 
d="M596 780h-119v-780h-291v780h-120v244h120v201q0 121 39 201t102 123q66 45 141 61q77 16 157 16v-252q-60 0 -104 -32t-44 -134v-184h119v-244zM1262 780h-119v-780h-291v780h-121v244h121v201q0 121 39 201q40 81 101 123q65 45 142 61t156 16v-252q-59 0 -103 -32
t-44 -134v-184h119v-244zM1745 1423v-247h-297v247h297zM1741 1024v-1024h-291v1024h291z" />
    <glyph glyph-name="f_f_l" unicode="ffl" horiz-adv-x="1859" 
d="M596 780h-119v-780h-291v780h-120v244h120v201q0 121 39 201t102 123q66 45 141 61q77 16 157 16v-252q-60 0 -104 -32t-44 -134v-184h119v-244zM1262 780h-119v-780h-291v780h-121v244h121v201q0 121 39 201q40 81 101 123q65 45 142 61t156 16v-252q-59 0 -103 -32
t-44 -134v-184h119v-244zM1741 1597v-1597h-291v1597h291z" />
    <glyph glyph-name=".notdef" horiz-adv-x="34" 
 />
    <glyph glyph-name=".null" horiz-adv-x="0" 
 />
    <glyph glyph-name="nonmarkingreturn" horiz-adv-x="682" 
 />
    <glyph glyph-name="space" unicode=" " horiz-adv-x="409" 
 />
    <glyph glyph-name="exclam" unicode="!" horiz-adv-x="727" 
d="M489 428h-253l-56 1100h365zM197 0v289h331v-289h-331z" />
    <glyph glyph-name="quotedbl" unicode="&#x22;" horiz-adv-x="1150" 
d="M137 918l133 610h330l-235 -610h-228zM575 918l134 610h329l-235 -610h-228z" />
    <glyph glyph-name="numbersign" unicode="#" horiz-adv-x="1691" 
d="M971 616l57 295h-285l-57 -295h285zM850 0l74 381h-285l-74 -381h-243l73 381h-266v235h313l56 295h-289v236h336l73 381h246l-73 -381h284l74 381h244l-74 -381h244v-236h-291l-58 -295h267v-235h-314l-73 -381h-244z" />
    <glyph glyph-name="dollar" unicode="$" horiz-adv-x="1163" 
d="M692 -238h-190v234q-105 2 -210 24q-105 23 -175 68v270q93 -58 186 -86q87 -26 201 -26q123 0 187 49q65 50 65 108q0 64 -74 127q-77 66 -219 164q-196 134 -273 233q-75 96 -75 220t98 226q99 103 289 130v236h190v-230q78 -7 147 -23q81 -19 140 -50v-265
q-67 43 -146 66q-86 25 -176 25q-116 0 -165 -40q-50 -41 -50 -73q0 -63 63 -122t189 -146q73 -54 170 -131q69 -55 118 -110q48 -54 68 -109q21 -57 21 -128q0 -86 -30 -152q-32 -69 -80 -115q-51 -48 -121 -80q-66 -30 -148 -46v-248z" />
    <glyph glyph-name="percent" unicode="%" horiz-adv-x="1830" 
d="M1536 1528l-995 -1528h-242l991 1528h246zM440 1528q156 0 257 -97q102 -97 102 -288v-56q0 -187 -103 -285q-101 -97 -256 -97q-153 0 -254 97q-102 98 -102 285v56q0 191 102 288q101 97 254 97zM569 1090v51q0 116 -35 171q-35 56 -94 56q-55 0 -92 -56t-37 -171v-51
q0 -115 37 -170q38 -56 92 -56q58 0 94 56q35 54 35 170zM1391 823q154 0 255 -97t101 -288v-55q0 -189 -101 -286t-255 -97q-152 0 -255 97q-104 98 -104 286v55q0 190 104 288q103 97 255 97zM1518 385v51q0 113 -35 171q-34 57 -92 57t-94 -57q-35 -55 -35 -171v-51
q0 -116 35 -170q36 -55 94 -55t92 55q35 56 35 170z" />
    <glyph glyph-name="ampersand" unicode="&#x26;" horiz-adv-x="1671" 
d="M602 1198q0 -66 34 -112q31 -42 97 -111q105 67 158 120q49 49 49 115q0 55 -43 101q-44 47 -129 47q-73 0 -119 -46q-47 -47 -47 -114zM674 190q76 0 149 36q75 37 146 96q-79 85 -164 179q-79 88 -146 161q-101 -66 -155 -133q-51 -63 -51 -144q0 -79 67 -136
q68 -57 154 -59zM1270 0q-25 25 -47 48q-10 11 -76 81q-100 -81 -225 -131q-121 -49 -285 -47q-246 1 -389 114q-142 112 -142 291q0 170 109 274q108 103 283 206q-98 104 -156 181q-59 78 -59 183q0 83 36 149q37 67 102 119q66 52 153 80q90 29 192 29q220 0 352 -101
q133 -102 133 -262q0 -116 -81 -203t-226 -175q-4 -3 -12 -8.5t-12 -7.5t-25 -13q94 -101 125 -136q86 -95 143 -157q31 35 97 111q50 57 96 114l186 -200q-37 -41 -102 -115q-58 -67 -99 -109q35 -39 94 -104.5t82 -91.5q83 -93 89 -99l-11 -20h-325z" />
    <glyph glyph-name="quotesingle" unicode="'" horiz-adv-x="716" 
d="M139 918l133 610h330l-235 -610h-228z" />
    <glyph glyph-name="parenleft" unicode="(" horiz-adv-x="927" 
d="M621 1608l165 -170q-52 -52 -104 -132q-55 -84 -97 -185q-46 -109 -73 -229q-29 -128 -29 -265v-27q0 -137 29 -265q29 -127 72 -230q44 -105 97 -183q54 -80 105 -129l-165 -170q-71 57 -146 147t-139 213q-66 127 -105 276q-41 156 -41 335v39q0 179 41 334
q39 147 105 276q63 123 139 214q74 88 146 151z" />
    <glyph glyph-name="parenright" unicode=")" horiz-adv-x="927" 
d="M307 1608q72 -63 146 -151q76 -91 139 -214q64 -125 104 -276q41 -155 41 -334v-39q0 -179 -41 -335q-40 -153 -104 -276q-62 -120 -140 -213q-73 -88 -147 -147l-164 170q54 52 106 129q55 81 98 183q45 108 73 230q28 124 28 265v27q0 141 -28 265q-28 123 -74 229
q-46 105 -99 185q-53 79 -104 132z" />
    <glyph glyph-name="asterisk" unicode="*" horiz-adv-x="851" 
d="M565 825l-135 279l-137 -283l-166 121l223 205l-274 33l63 194l242 -133l-55 287h202l-53 -285l236 133l63 -194l-266 -33l219 -205z" />
    <glyph glyph-name="plus" unicode="+" horiz-adv-x="1347" 
d="M1235 602h-426v-469h-270v469h-426v238h426v434h270v-434h426v-238z" />
    <glyph glyph-name="comma" unicode="," horiz-adv-x="673" 
d="M207 285h340l-228 -598h-229z" />
    <glyph glyph-name="hyphen" unicode="-" horiz-adv-x="829" 
d="M713 702v-272h-596v272h596z" />
    <glyph glyph-name="period" unicode="." horiz-adv-x="620" 
d="M141 309h338v-309h-338v309z" />
    <glyph glyph-name="slash" unicode="/" horiz-adv-x="1220" 
d="M1161 1597l-993 -2048h-291l987 2048h297z" />
    <glyph glyph-name="zero" unicode="0" horiz-adv-x="1409" 
d="M702 1577q128 0 236 -48q105 -47 187 -144q80 -95 123 -238q44 -146 44 -332v-106q0 -187 -45 -329q-46 -144 -123 -238q-79 -95 -186 -143q-108 -48 -236 -48q-124 0 -232 48q-106 47 -185 143q-77 94 -123 238q-45 142 -45 329v106q0 188 45 332q45 143 123 238
q81 98 185 144q108 48 232 48zM995 707v106q0 259 -82 384q-83 126 -211 126q-122 0 -206 -126t-84 -384v-106q0 -259 84 -383q84 -125 206 -125q128 0 211 125q82 124 82 383z" />
    <glyph glyph-name="one" unicode="1" horiz-adv-x="847" 
d="M686 0h-297v1098l-283 -281v379l347 332h233v-1528z" />
    <glyph glyph-name="two" unicode="2" horiz-adv-x="1282" 
d="M1094 0h-1004l-20 41q30 39 114 138q73 86 176 211q76 93 175 211q75 91 110 136q89 110 129 185q39 74 39 159q0 93 -75 165q-76 73 -197 73q-74 0 -163 -28q-85 -27 -173 -103l2 301q85 45 181 66q99 22 190 22q121 0 223 -38q101 -37 171 -102q70 -64 109 -153
t39 -188q0 -146 -66 -252t-177 -240q-24 -27 -56 -65q-42 -49 -78 -89q-17 -19 -49.5 -56t-40.5 -46q-28 -31 -92 -102h635z" />
    <glyph glyph-name="three" unicode="3" horiz-adv-x="1148" 
d="M459 -49q-47 0 -92 4q-58 5 -104 13q-50 9 -101 24q-51 16 -86 35v252q30 -21 72 -36t84 -27q39 -11 81 -16q43 -5 64 -5q174 -2 280 72q109 76 109 190q0 115 -102 182q-103 68 -256 68h-107l10 237h97q116 0 196 62t80 147q0 83 -72 132q-73 50 -186 50q-68 0 -128 -11
q-70 -13 -134 -44l18 256q51 18 126 30q66 11 173 11q104 0 197 -29t159 -80q68 -52 104 -122q38 -73 38 -154q-2 -102 -58 -193q-57 -91 -149 -147q125 -51 206 -158t81 -248q0 -104 -44 -197q-44 -92 -123 -158q-79 -65 -190 -103q-110 -37 -243 -37z" />
    <glyph glyph-name="four" unicode="4" horiz-adv-x="1374" 
d="M817 518v565l-373 -565h373zM1237 276h-123v-276h-297v276h-733l-23 54l801 1198h252v-1010h193z" />
    <glyph glyph-name="five" unicode="5" horiz-adv-x="1288" 
d="M475 -49q-91 0 -194 23q-111 25 -195 69v256q91 -48 184 -74q92 -26 205 -26q160 0 266 86q105 85 105 221q0 115 -106 194q-105 78 -281 78q-83 0 -153 -12q-68 -12 -140 -35l192 797h844l-76 -252h-565l-72 -266q20 2 32 2h32q143 0 255 -38q109 -37 187 -104
q76 -66 115 -158q39 -93 39 -202q0 -122 -47 -225q-46 -102 -135 -177q-89 -76 -213 -116q-126 -41 -279 -41z" />
    <glyph glyph-name="six" unicode="6" horiz-adv-x="1329" 
d="M670 -49q-125 0 -232 37q-108 38 -187 106q-78 68 -124 170q-45 100 -45 228q0 124 50 256q50 131 131 262q86 138 184 262q113 143 206 256h369q-133 -146 -268 -306q-133 -158 -224 -292l2 -2q51 28 111 45q58 16 125 16q100 0 190 -39q93 -40 157 -106
q68 -69 106 -159q39 -92 39 -193q0 -108 -45 -210q-45 -101 -121 -172q-78 -72 -187 -116q-107 -43 -237 -43zM670 770q-118 0 -207 -84q-88 -84 -88 -203q0 -116 88 -201t207 -85q123 0 208 85t85 201q0 119 -85 203q-86 84 -208 84z" />
    <glyph glyph-name="seven" unicode="7" horiz-adv-x="1261" 
d="M563 0h-327l548 1264h-704l84 264h1050z" />
    <glyph glyph-name="eight" unicode="8" horiz-adv-x="1314" 
d="M655 -49q-136 0 -244 37q-113 39 -187 101q-78 66 -118 155t-40 194q0 130 70 236q70 105 200 166q-89 50 -139 134q-50 83 -50 179q0 89 36 165q36 77 102 134t159 91t211 34q123 0 216 -34q96 -35 161 -91q66 -57 101 -134q34 -75 34 -165q0 -98 -49 -180
q-50 -83 -139 -135q125 -60 197 -165q71 -104 71 -235q0 -104 -42 -194t-119 -155q-75 -63 -186 -101q-108 -37 -245 -37zM655 918q91 0 159 62q69 63 69 150q0 88 -68 148q-66 59 -160 59q-93 0 -158 -59q-67 -61 -67 -148q0 -86 67 -150q65 -62 158 -62zM655 184
q125 0 213 79t88 194q0 114 -88 190t-213 76q-120 0 -208 -76q-89 -77 -89 -190q0 -114 89 -194q88 -79 208 -79z" />
    <glyph glyph-name="nine" unicode="9" horiz-adv-x="1329" 
d="M676 0h-369q139 153 270 306q127 149 224 292l-4 2q-51 -28 -111 -45q-58 -16 -125 -16q-100 0 -190 39q-91 39 -156 106q-64 66 -104 159q-39 91 -39 193q0 110 44 210q44 99 121 172t185 116q107 43 237 43q127 0 234 -37q108 -38 187 -106q78 -68 124 -170
q45 -100 45 -228q0 -126 -51 -256q-52 -133 -132 -262q-86 -138 -184 -262q-113 -143 -206 -256zM659 758q119 0 207 84t88 202q0 117 -88 202t-207 85q-122 0 -207 -85t-85 -202q0 -118 85 -202t207 -84z" />
    <glyph glyph-name="colon" unicode=":" horiz-adv-x="608" 
d="M143 950h326v-319h-326v319zM143 319h326v-319h-326v319z" />
    <glyph glyph-name="semicolon" unicode=";" horiz-adv-x="675" 
d="M197 950h321v-319h-321v319zM195 248h327l-184 -539h-240z" />
    <glyph glyph-name="less" unicode="&#x3c;" horiz-adv-x="1218" 
d="M1135 10l-1053 498v237l1053 502v-264l-795 -352l795 -348v-273z" />
    <glyph glyph-name="equal" unicode="=" horiz-adv-x="1208" 
d="M1100 1030v-219h-989v219h989zM1100 580v-220h-989v220h989z" />
    <glyph glyph-name="greater" unicode="&#x3e;" horiz-adv-x="1218" 
d="M84 10v273l795 348l-795 352v264l1053 -502v-237z" />
    <glyph glyph-name="question" unicode="?" horiz-adv-x="1204" 
d="M672 399h-275v416h70q61 0 116 16q53 15 98 49q44 33 67 81q24 49 24 114q0 92 -78 164t-221 72q-77 0 -160 -25q-76 -23 -161 -88l-11 254q92 53 196 80q103 27 206 27q235 0 379 -129q143 -128 143 -336q0 -103 -32 -187q-30 -78 -85 -141q-50 -57 -125 -96
q-71 -37 -151 -52v-219zM393 0v262h283v-262h-283z" />
    <glyph glyph-name="at" unicode="@" horiz-adv-x="2117" 
d="M1112 -391q-223 0 -406 75q-186 76 -313 203t-200 307q-72 177 -72 379q0 191 68 360q69 171 194 299q124 127 304 204q175 75 398 75q207 0 378 -69q170 -69 290 -187q118 -117 184 -272q66 -156 66 -328q0 -153 -41 -262t-102 -176q-62 -68 -138 -98q-79 -31 -143 -31
q-109 0 -179 47q-69 46 -93 119q-57 -71 -138 -115q-83 -46 -184 -47q-92 -2 -172 30t-138 91q-57 59 -92 142q-34 81 -34 182q0 99 35 184q34 84 93 144q58 59 138 94q78 34 170 34q95 1 174 -39q80 -41 137 -108v108h244v-614q0 -68 31 -83q30 -15 51 -15q27 0 67 22
q38 21 75 72t62 129t25 192q0 143 -54 273t-153 229q-97 97 -242 158q-140 59 -317 59q-185 0 -334 -67t-256 -180q-105 -111 -164 -256t-59 -298q0 -159 58 -313q56 -149 166 -265q108 -114 264 -183q158 -70 352 -70q94 0 176 11q91 12 173 33q81 21 158 53q75 31 128 71
l72 -119q-59 -43 -143 -78q-79 -33 -176 -58q-93 -24 -193 -36q-101 -12 -195 -12zM1047 319q91 0 156 69q65 70 65 157q0 85 -63 153t-158 68q-89 0 -157 -58q-69 -58 -69 -167q0 -105 69 -163q70 -59 157 -59z" />
    <glyph glyph-name="A" unicode="A" horiz-adv-x="1570" 
d="M1014 504l-232 631l-233 -631h465zM1200 0l-92 252h-653l-95 -252h-329l598 1528h315l598 -1528h-342z" />
    <glyph glyph-name="B" unicode="B" horiz-adv-x="1261" 
d="M686 0h-553v1528h510q128 0 221 -31q89 -30 145 -84q53 -52 78 -126q25 -75 25 -154q0 -95 -47 -181q-45 -84 -133 -145q113 -57 176 -161q63 -103 63 -226q0 -81 -28 -156q-28 -76 -88 -134q-59 -57 -152 -94q-91 -36 -217 -36zM571 1272h-118v-377h112q122 0 192 53
q68 52 68 142q-1 82 -55 132q-53 50 -199 50zM590 670h-137v-414h141q148 0 203 58t55 143q0 99 -69 156t-193 57z" />
    <glyph glyph-name="C" unicode="C" horiz-adv-x="1359" 
d="M1253 1501v-307q-67 43 -148 64q-85 22 -169 22q-109 0 -209 -41q-95 -39 -170 -111q-72 -69 -114 -163q-42 -95 -42 -197q0 -105 42 -200q43 -96 114 -166q72 -70 170 -112q99 -42 209 -42q88 0 169 21q79 20 148 65v-309q-84 -38 -159 -54q-84 -18 -176 -18
q-182 0 -334 64q-155 65 -265 174t-174 259q-63 148 -63 316q0 166 63 314t174 258t265 173q155 64 334 64q90 0 176 -20q81 -19 159 -54z" />
    <glyph glyph-name="D" unicode="D" horiz-adv-x="1462" 
d="M133 0v1528h438q157 0 301 -46t256 -140q113 -94 178 -237q66 -144 66 -339q0 -199 -65 -342q-66 -146 -177 -239t-254 -139q-142 -46 -301 -46h-442zM453 1241v-954h133q92 0 177 30q82 29 149 91t103 149q38 91 38 209q0 116 -38 206q-36 86 -103 148q-65 61 -149 90
q-88 31 -177 31h-133z" />
    <glyph glyph-name="E" unicode="E" horiz-adv-x="1120" 
d="M133 0v1528h854v-281h-534v-332h483v-258h-483v-376h551v-281h-871z" />
    <glyph glyph-name="F" unicode="F" horiz-adv-x="1130" 
d="M133 0v1528h903v-281h-583v-373h516v-278h-516v-596h-320z" />
    <glyph glyph-name="G" unicode="G" horiz-adv-x="1781" 
d="M1702 766q0 -168 -61 -320q-60 -151 -164 -259q-106 -110 -246 -173q-141 -63 -303 -63q-180 0 -333 64q-154 64 -268 174q-114 109 -180 260q-65 148 -65 317q0 170 65 316q66 148 180 258q115 111 268 173q157 64 333 64q168 0 316 -59q151 -60 257 -156l-205 -225
q-76 69 -170 109q-93 40 -198 40q-110 0 -207 -41t-167 -111q-71 -72 -112 -166q-41 -96 -41 -202q0 -108 41 -204q41 -95 112 -166q69 -69 167 -112q96 -42 207 -42q160 0 281 103t159 257h-420l111 262h643v-98z" />
    <glyph glyph-name="H" unicode="H" horiz-adv-x="1478" 
d="M133 0v1528h320v-572h573v572h320v-1528h-320v672h-573v-672h-320z" />
    <glyph glyph-name="I" unicode="I" horiz-adv-x="587" 
d="M135 0v1528h318v-1528h-318z" />
    <glyph glyph-name="J" unicode="J" horiz-adv-x="825" 
d="M51 0v297q38 -21 76 -30q39 -9 76 -9q77 0 123 61q47 62 47 240v969h317v-1077q0 -237 -100 -361q-101 -125 -344 -125q-57 0 -103 7q-50 8 -92 28z" />
    <glyph glyph-name="K" unicode="K" horiz-adv-x="1470" 
d="M1038 0l-463 641l-122 -145v-496h-320v1528h320v-604l505 604h390l-555 -647l637 -881h-392z" />
    <glyph glyph-name="L" unicode="L" horiz-adv-x="1044" 
d="M133 1528h320v-1241h528v-287h-848v1528z" />
    <glyph glyph-name="M" unicode="M" horiz-adv-x="1873" 
d="M449 961v-961h-316v1528h330l487 -735l465 735h326v-1528h-316v958v31l-460 -704h-37l-479 708v-32z" />
    <glyph glyph-name="N" unicode="N" horiz-adv-x="1609" 
d="M1171 0l-718 993v-993h-320v1528h311l715 -989v989h318v-1528h-306z" />
    <glyph glyph-name="O" unicode="O" horiz-adv-x="1851" 
d="M928 1577q171 0 328 -64q154 -63 269 -173q112 -108 179 -258q65 -146 65 -316q0 -169 -65 -317q-67 -153 -179 -260q-114 -109 -269 -174q-153 -64 -328 -64q-180 0 -333 64q-154 64 -268 174q-114 109 -180 260q-65 148 -65 317q0 170 65 316q66 148 180 258
q115 111 268 173q157 64 333 64zM928 1286q-110 0 -207 -41t-167 -111q-71 -72 -112 -166q-41 -96 -41 -202t41 -203q40 -95 112 -167q69 -69 167 -112q96 -42 207 -42q110 0 204 42q95 42 165 112q72 72 112 167q41 97 41 203t-41 202q-41 94 -112 166q-71 70 -165 111
q-96 41 -204 41z" />
    <glyph glyph-name="P" unicode="P" horiz-adv-x="1234" 
d="M561 524h-108v-524h-320v1528h434q119 0 229 -23q108 -22 188 -79q82 -58 129 -154q48 -99 48 -250q0 -132 -54 -227q-55 -96 -139 -155q-88 -62 -193 -88q-112 -28 -214 -28zM592 1243h-139v-438h139q110 0 182 57t72 160q0 104 -62 163q-61 58 -192 58z" />
    <glyph glyph-name="Q" unicode="Q" horiz-adv-x="1851" 
d="M928 1286q-110 0 -207 -41t-167 -111q-71 -72 -112 -166q-41 -96 -41 -202t41 -203q40 -95 112 -167q69 -69 167 -112q96 -42 207 -42q110 0 204 42q95 42 165 112q72 72 112 167q41 97 41 203t-41 202q-41 94 -112 166q-71 70 -165 111q-96 41 -204 41zM1757 -47h-772
q-20 -2 -29 -2h-28q-180 0 -333 64q-154 64 -268 174q-114 109 -180 260q-65 148 -65 317q0 170 65 316q66 148 180 258q115 111 268 173q157 64 333 64q172 0 328 -65q154 -64 269 -173q112 -106 179 -255q65 -145 65 -308q0 -172 -90 -331t-239 -259l348 43z" />
    <glyph glyph-name="R" unicode="R" horiz-adv-x="1327" 
d="M553 1243h-100v-446h100q117 0 185 61q69 62 69 168q0 100 -68 159q-67 58 -186 58zM889 0l-416 543h-20v-543h-320v1528h412q113 0 220 -26q105 -26 184 -85q80 -60 126 -154q47 -96 47 -233q0 -160 -90 -268q-91 -109 -219 -164l459 -598h-383z" />
    <glyph glyph-name="S" unicode="S" horiz-adv-x="1079" 
d="M915 1511l-4 -278q-54 26 -131 46q-75 19 -147 19q-107 0 -152 -36q-47 -38 -47 -86q0 -62 58 -120q45 -45 170 -155q186 -159 261 -273q74 -112 74 -231q0 -97 -41 -177q-40 -79 -112 -133q-74 -55 -170 -83q-101 -29 -211 -29q-26 0 -94 6q-39 3 -100 13q-53 8 -93 19
q-48 13 -76 24l4 282q66 -32 166 -58q97 -25 195 -25q100 0 156 47q55 46 55 106q0 63 -59 130q-63 71 -181 169q-83 72 -154 138q-65 60 -104 116t-57 111q-19 59 -19 121q0 72 31 143t93 123q64 54 160 86q97 33 230 33q72 0 153 -12q79 -12 146 -36z" />
    <glyph glyph-name="T" unicode="T" horiz-adv-x="958" 
d="M319 0v1243h-264v285h848v-285h-264v-1243h-320z" />
    <glyph glyph-name="U" unicode="U" horiz-adv-x="1495" 
d="M1360 643q0 -326 -158 -510q-157 -182 -454 -182t-455 182q-160 184 -160 510v885h320v-950q0 -83 24 -146q23 -59 66 -106q41 -44 94 -65q52 -21 111 -21q57 0 111 21q52 20 94 65t65 106q24 63 24 146v950h318v-885z" />
    <glyph glyph-name="V" unicode="V" horiz-adv-x="1550" 
d="M944 0h-342l-575 1528h342l413 -1139l414 1139h328z" />
    <glyph glyph-name="W" unicode="W" horiz-adv-x="2103" 
d="M1335 0l-282 1034l-289 -1034h-303l-430 1528h329l279 -1063l276 1063h285l277 -1061l278 1061h318l-435 -1528h-303z" />
    <glyph glyph-name="X" unicode="X" horiz-adv-x="1472" 
d="M1075 0l-344 586l-330 -586h-352l471 797l-434 731h354l295 -506l299 506h342l-434 -727l481 -801h-348z" />
    <glyph glyph-name="Y" unicode="Y" horiz-adv-x="1413" 
d="M864 0h-317v487l-527 1041h347l342 -740l360 740h324l-529 -1041v-487z" />
    <glyph glyph-name="Z" unicode="Z" horiz-adv-x="1368" 
d="M1202 0h-1134l-5 39l717 1214h-626l116 275h998l6 -41l-719 -1213h760z" />
    <glyph glyph-name="bracketleft" unicode="[" horiz-adv-x="931" 
d="M260 -438v1966h551v-185h-260v-1597h276v-184h-567z" />
    <glyph glyph-name="backslash" unicode="\" horiz-adv-x="1226" 
d="M61 1597h297l990 -2048h-293z" />
    <glyph glyph-name="bracketright" unicode="]" horiz-adv-x="931" 
d="M674 -438h-570v184h277v1597h-260v185h553v-1966z" />
    <glyph glyph-name="asciicircum" unicode="^" horiz-adv-x="1368" 
d="M985 756l-303 524l-303 -524h-273l459 772h232l465 -772h-277z" />
    <glyph glyph-name="underscore" unicode="_" horiz-adv-x="1093" 
d="M1059 -100v-232h-1024v232h1024z" />
    <glyph glyph-name="grave" unicode="`" horiz-adv-x="1093" 
d="M242 1618h350l166 -301h-242z" />
    <glyph glyph-name="a" unicode="a" horiz-adv-x="1118" 
d="M543 133q75 0 125 48q49 48 49 118q0 67 -48 113q-49 47 -126 47q-78 0 -125 -47t-47 -113q0 -67 47 -117q46 -49 125 -49zM735 0v100q-45 -56 -125 -97q-77 -40 -182 -40q-160 0 -257 94t-97 236q0 139 100 235q102 97 272 97q88 0 155 -23q69 -23 114 -57v51
q0 126 -63 172q-64 47 -173 47q-50 0 -103 -7q-47 -6 -151 -26l-4 236q87 19 163 26q81 7 155 7q231 0 349 -105t118 -278v-668h-271z" />
    <glyph glyph-name="b" unicode="b" horiz-adv-x="1368" 
d="M788 -37q-128 0 -231 53q-100 52 -168 144v-160h-274v1597h291v-720q69 85 166 134q100 50 216 50q104 0 197 -44t159 -119t105 -175t39 -215q0 -114 -39 -215t-105 -173q-66 -73 -159 -115q-91 -42 -197 -42zM399 512q0 -119 85 -207t210 -88q123 0 207 88q84 89 84 207
q0 124 -84 209q-84 86 -207 86q-124 0 -210 -87q-85 -86 -85 -208z" />
    <glyph glyph-name="c" unicode="c" horiz-adv-x="1024" 
d="M926 272v-256q-37 -25 -114 -36q-75 -11 -130 -11q-129 0 -241 41q-110 40 -192 113t-128 172q-47 102 -47 217t47 217q46 99 128 172t192 113q112 41 241 41q54 0 128 -11t116 -36v-258h-8q-45 32 -106 46q-56 13 -118 13q-132 0 -223 -86q-90 -85 -90 -211t90 -212
q89 -85 223 -85q60 0 117 12q58 12 107 45h8z" />
    <glyph glyph-name="d" unicode="d" horiz-adv-x="1368" 
d="M969 512q0 120 -86 208q-85 87 -209 87q-123 0 -207 -86q-84 -85 -84 -209q0 -118 84 -207q84 -88 207 -88q124 0 209 88q86 89 86 207zM981 0v162q-69 -95 -169 -146q-104 -53 -232 -53q-108 0 -199 42q-93 42 -159 115q-67 73 -104 173q-38 102 -38 215t38 215
q37 99 104 175q66 75 159 119t199 44q116 0 216 -50q99 -50 167 -134v720h290v-1597h-272z" />
    <glyph glyph-name="e" unicode="e" horiz-adv-x="1271" 
d="M643 836q-96 0 -161 -56t-89 -155h500q-23 96 -90 154q-66 57 -160 57zM1190 129q-82 -76 -206 -127t-288 -51q-147 0 -261 43q-116 44 -195 118q-80 75 -123 177q-43 101 -43 223q0 120 42 224q43 105 117 178q76 75 182 117q105 42 232 42q116 0 218 -42
q101 -42 175 -117t117 -177q43 -101 43 -223v-78h-815q18 -123 101 -189q84 -67 216 -67q104 0 186 35q81 35 144 90z" />
    <glyph glyph-name="f" unicode="f" horiz-adv-x="665" 
d="M596 780h-119v-780h-291v780h-120v244h120v201q0 121 39 201t102 123q66 45 141 61q77 16 157 16v-252q-60 0 -104 -32t-44 -134v-184h119v-244z" />
    <glyph glyph-name="g" unicode="g" horiz-adv-x="1323" 
d="M655 276q109 0 188 78t79 189q0 110 -79 189t-188 79q-111 0 -190 -79q-80 -80 -80 -189q0 -111 80 -189t190 -78zM621 -442q-88 0 -166 7q-90 8 -176 25v256q101 -23 179 -30q95 -9 154 -9q134 0 221 61q85 60 85 232v86q-65 -71 -157 -116q-87 -43 -186 -43
q-100 0 -186 36q-89 37 -159 104q-67 64 -110 163q-42 96 -42 213q0 119 42 216q43 99 110 165t159 104q89 37 186 37q101 0 194 -48q94 -48 161 -126v133h278v-241q0 -185 -1 -275t-1 -246v-151q0 -296 -146 -424q-147 -129 -439 -129z" />
    <glyph glyph-name="h" unicode="h" horiz-adv-x="1204" 
d="M406 596v-596h-291v1597h282v-704q45 57 130 106q86 50 202 50q154 0 260 -103q105 -102 105 -276v-670h-291v580q0 113 -58 162t-137 49q-69 0 -136 -52q-66 -51 -66 -143z" />
    <glyph glyph-name="i" unicode="i" horiz-adv-x="526" 
d="M414 1423v-247h-297v247h297zM410 1024v-1024h-291v1024h291z" />
    <glyph glyph-name="j" unicode="j" horiz-adv-x="526" 
d="M414 1423v-247h-297v247h297zM-66 -193h33q72 0 112 37t40 123v1057h291v-1061q0 -231 -107 -321q-108 -91 -340 -91h-29v256z" />
    <glyph glyph-name="k" unicode="k" horiz-adv-x="1175" 
d="M782 0l-278 432l-98 -108v-324h-291v1597h291v-921l337 348h363l-387 -403l414 -621h-351z" />
    <glyph glyph-name="l" unicode="l" horiz-adv-x="526" 
d="M410 1597v-1597h-291v1597h291z" />
    <glyph glyph-name="m" unicode="m" horiz-adv-x="1765" 
d="M406 598v-598h-291v1024h280v-152q34 59 111 118t188 59q102 0 183 -52q79 -50 118 -143q17 34 42 66q27 34 67 62t92 47q54 20 119 20q153 0 247 -102q95 -103 95 -277v-670h-293v580q0 115 -44 164t-120 49q-64 0 -117 -50t-53 -155v-588h-291v580q0 117 -46 164
q-47 49 -118 49q-69 0 -119 -53t-50 -142z" />
    <glyph glyph-name="n" unicode="n" horiz-adv-x="1204" 
d="M406 598v-598h-291v1024h276v-131q44 56 132 106t206 50q155 0 260 -102t105 -277v-670h-291v580q0 116 -58 163q-59 48 -137 48q-69 0 -136 -52q-66 -51 -66 -141z" />
    <glyph glyph-name="o" unicode="o" horiz-adv-x="1349" 
d="M674 1073q127 0 239 -44q111 -43 191 -119q80 -75 126 -178q46 -102 46 -220t-46 -220q-46 -103 -126 -178q-80 -76 -191 -119q-112 -44 -239 -44q-126 0 -238 44q-109 43 -190 119q-80 75 -126 178q-46 102 -46 220t46 220q46 103 126 178q81 76 190 119q112 44 238 44z
M674 821q-127 0 -211 -91q-84 -92 -84 -218q0 -129 84 -219t211 -90q126 0 212 90q85 89 85 219q0 127 -85 218t-212 91z" />
    <glyph glyph-name="p" unicode="p" horiz-adv-x="1368" 
d="M399 512q0 -122 85 -208q86 -87 210 -87q123 0 207 86t84 209q0 118 -84 207q-84 88 -207 88q-125 0 -210 -88t-85 -207zM788 -37q-116 0 -216 50q-97 49 -166 134v-583h-291v1460h274v-160q68 92 168 144q103 53 231 53q106 0 197 -42q93 -42 159 -115q66 -72 105 -173
t39 -215t-39 -215q-39 -100 -105 -175t-159 -119t-197 -44z" />
    <glyph glyph-name="q" unicode="q" horiz-adv-x="1363" 
d="M1249 -436h-288v583q-67 -85 -166 -134q-102 -50 -220 -50q-102 0 -195 44q-92 44 -158 119q-67 76 -104 175q-38 102 -38 215t38 215q37 100 104 173t158 115t195 42q129 0 232 -53q101 -52 170 -144v160h272v-1460zM969 512q0 118 -86 207q-85 88 -209 88
q-123 0 -207 -88q-84 -89 -84 -207q0 -124 84 -209q84 -86 207 -86q124 0 209 87q86 88 86 208z" />
    <glyph glyph-name="r" unicode="r" horiz-adv-x="792" 
d="M406 522v-522h-291v1024h278v-217q20 39 41 69q28 39 64 72q39 36 85 59t103 23h35v-323q-7 4 -25 6q-22 2 -28 2q-57 0 -109 -19q-47 -17 -83 -47q-35 -29 -52 -62q-18 -35 -18 -65z" />
    <glyph glyph-name="s" unicode="s" horiz-adv-x="892" 
d="M473 1057q73 0 130 -10q60 -11 108 -29v-244q-59 26 -117 40q-53 13 -92 13q-53 0 -81 -17q-30 -18 -30 -50q0 -27 34 -55q39 -32 103 -74q171 -113 230 -192q59 -78 59 -169q0 -130 -103 -215q-105 -87 -292 -88q-71 0 -160 19q-83 18 -145 45v243q75 -37 146 -55
t116 -18q67 -2 95 21q30 24 30 57q0 25 -30 59q-31 36 -138 104q-155 102 -202 172q-48 72 -48 160q0 52 22 105q20 50 68 91q43 38 121 63q74 24 176 24z" />
    <glyph glyph-name="t" unicode="t" horiz-adv-x="665" 
d="M598 780h-121v-780h-289v780h-122v244h122v326l289 75v-401h121v-244z" />
    <glyph glyph-name="u" unicode="u" horiz-adv-x="1204" 
d="M815 0v133q-46 -58 -132 -107q-90 -51 -204 -51q-158 0 -263 102t-105 277v670h290v-580q0 -116 58 -163q59 -48 139 -48q69 0 136 52t67 141v598h289v-1024h-275z" />
    <glyph glyph-name="v" unicode="v" horiz-adv-x="1232" 
d="M793 0h-351l-415 1024h323l271 -727l282 727h305z" />
    <glyph glyph-name="w" unicode="w" horiz-adv-x="1699" 
d="M1059 0l-205 621l-199 -621h-272l-352 1024h301l190 -651l205 651h256l207 -653l188 653h291l-348 -1024h-262z" />
    <glyph glyph-name="x" unicode="x" horiz-adv-x="1214" 
d="M834 0l-238 350l-242 -350h-305l373 530l-340 494h324l217 -338l223 338h307l-358 -498l348 -526h-309z" />
    <glyph glyph-name="y" unicode="y" horiz-adv-x="1224" 
d="M649 -436h-301l148 403l-467 1057h327l285 -723l254 723h301z" />
    <glyph glyph-name="z" unicode="z" horiz-adv-x="1114" 
d="M936 0h-864l-17 29l518 749h-430l99 246h774l16 -29l-510 -749h510z" />
    <glyph glyph-name="braceleft" unicode="{" horiz-adv-x="966" 
d="M801 -438h-187q-131 0 -210 58q-78 57 -78 224v404q0 93 -32 140q-31 46 -83 61q-1 1 -8 3t-8 3v176q1 1 8 3t8 3q53 16 83 60q32 47 32 139v409q0 167 78 224q80 59 210 59h187v-185h-68q-58 0 -86 -31q-29 -32 -29 -138v-332q0 -100 -41 -169q-42 -71 -133 -110v-41
q91 -40 133 -105q41 -64 41 -165v-354q0 -106 29 -129t86 -23h68v-184z" />
    <glyph glyph-name="bar" unicode="|" horiz-adv-x="507" 
d="M158 1528h190v-1856h-190v1856z" />
    <glyph glyph-name="braceright" unicode="}" horiz-adv-x="966" 
d="M352 -438h-186v168h67q59 0 88 22t29 131v369q0 98 41 165q40 66 131 105v41q-90 39 -131 110t-41 169v350q0 106 -29 136q-30 32 -88 32h-67v168h186q130 0 210 -59q79 -58 79 -224v-409q0 -92 32 -139q30 -44 83 -60q2 -1 9 -3t9 -3v-176q-2 -1 -9 -3t-9 -3
q-52 -15 -83 -61q-32 -47 -32 -140v-404q0 -166 -79 -224t-210 -58z" />
    <glyph glyph-name="asciitilde" unicode="~" horiz-adv-x="1431" 
d="M385 449l-252 18q0 218 89 315t231 97q59 0 126 -32q66 -31 132 -69q53 -30 127 -68q62 -32 110 -32q40 0 71 29q30 29 30 131l249 -19q0 -193 -75 -297q-76 -106 -224 -106q-63 0 -131 31q-69 31 -138 69q-73 40 -133 69q-63 31 -114 31q-37 0 -67 -31q-31 -33 -31 -136
z" />
    <glyph glyph-name="exclamdown" unicode="&#xa1;" horiz-adv-x="727" 
d="M197 1528h331v-289h-331v289zM489 1100l56 -1100h-365l56 1100h253z" />
    <glyph glyph-name="cent" unicode="&#xa2;" horiz-adv-x="1118" 
d="M1038 0q-50 -20 -110 -31q-60 -10 -113 -12v-197h-190v207q-119 21 -219 75q-101 54 -173 134q-71 79 -112 184q-41 106 -41 228q0 121 41 227q41 105 112 184q74 82 173 135q98 53 219 74v215h190v-204q51 -1 112 -14q59 -12 111 -36v-270h-8q-54 38 -123 55
q-70 17 -125 17q-79 0 -153 -31q-71 -30 -125 -82t-85 -122q-32 -72 -32 -148q0 -80 32 -150q31 -68 85 -122q51 -51 125 -82q70 -29 153 -29q64 0 122 13q61 14 126 52h8v-270z" />
    <glyph glyph-name="sterling" unicode="&#xa3;" horiz-adv-x="1308" 
d="M1192 233v-233h-1075v236h53q83 0 123 52q41 53 41 163v243h-166v185h166v266q0 99 43 175q45 79 115 130q76 56 165 81q98 28 197 28q52 0 133 -9q70 -8 131 -34v-256q-51 27 -107 40q-58 13 -112 13q-48 0 -96 -14q-49 -14 -84 -38q-37 -25 -60 -63q-22 -37 -22 -82
v-237h358v-185h-358v-243q0 -71 -19 -128q-18 -54 -51 -87z" />
    <glyph glyph-name="currency" unicode="&#xa4;" horiz-adv-x="1241" 
d="M999 293l-180 176q-43 -24 -93 -39q-46 -14 -105 -14t-107 14q-53 16 -94 41l-180 -178l-148 156l178 176q-22 43 -36 90q-13 45 -13 98q0 49 12 97q12 47 35 89l-176 179l148 155l180 -176q44 24 94 39q48 14 107 14t105 -14q51 -15 95 -39l178 176l152 -153l-180 -179
q24 -46 35 -91q12 -48 12 -97t-12 -96q-12 -45 -35 -90l180 -178zM621 1028q-90 0 -150 -64q-59 -63 -59 -151q0 -87 59 -150q60 -65 150 -65q89 0 149 65q59 63 59 150q0 88 -59 151q-60 64 -149 64z" />
    <glyph glyph-name="yen" unicode="&#xa5;" horiz-adv-x="1456" 
d="M1309 317h-424v-317h-318v317h-405v181h405v55l-51 100h-354v183h260l-356 692h344l321 -678l334 678h326l-359 -692h277v-183h-373l-51 -100v-55h424v-181z" />
    <glyph glyph-name="brokenbar" unicode="&#xa6;" horiz-adv-x="507" 
d="M158 1528h190v-832h-190v832zM158 504h190v-832h-190v832z" />
    <glyph glyph-name="section" unicode="&#xa7;" horiz-adv-x="1206" 
d="M625 393q33 -14 76 -38q44 -24 67 -40q44 23 69 63t25 91q0 22 -9 52q-9 29 -36 64q-25 32 -78 71q-56 41 -133 79q-9 4 -53 26q-34 17 -49 25q-71 -8 -111 -48q-41 -41 -41 -97q0 -55 50 -114q48 -56 223 -134zM516 -459q-82 0 -175 22q-90 21 -157 60l4 268
q83 -47 163 -75q82 -29 165 -29q94 0 153 40q60 41 60 107q0 28 -9 53q-8 24 -37 54q-26 28 -83 63q-59 37 -147 80q-184 78 -270 170q-85 91 -85 219q0 100 59 194q59 93 169 144q-61 59 -85 123q-24 63 -24 133q0 71 29 146q29 74 84 131t137 94q81 37 186 37
q69 0 133 -13q66 -14 136 -53l-2 -247q-63 34 -128 51q-63 16 -139 16q-69 0 -122 -37q-54 -38 -54 -94t66 -103q71 -50 190 -116q227 -113 308 -230q79 -115 79 -237q0 -131 -56 -212q-58 -84 -140 -128q38 -51 55 -110q16 -55 16 -113q0 -107 -42 -185q-41 -76 -109 -126
q-66 -48 -154 -73q-86 -24 -174 -24z" />
    <glyph glyph-name="dieresis" unicode="&#xa8;" horiz-adv-x="1093" 
d="M907 1610v-228h-258v228h258zM446 1610v-228h-260v228h260z" />
    <glyph glyph-name="copyright" unicode="&#xa9;" horiz-adv-x="1847" 
d="M926 1548q170 0 316 -61t253 -168q108 -108 167 -250q60 -144 60 -305t-60 -305q-59 -142 -167 -250q-107 -107 -253 -168t-316 -61q-172 0 -318 61q-148 62 -254 168q-108 108 -167 250q-60 144 -60 305t60 305q59 142 167 250q106 106 254 168q146 61 318 61zM926 1456
q-145 0 -271 -55t-220 -149q-93 -92 -148 -220q-56 -129 -56 -268q0 -141 56 -270t148 -221q93 -93 220 -147q128 -54 271 -54q140 0 268 54q127 54 220 147q94 94 148 221q54 128 54 270q0 140 -54 268q-53 125 -148 220q-94 94 -220 149t-268 55zM1272 1137l-113 -174
q-44 30 -92 48q-44 17 -98 17q-114 0 -191 -76q-78 -76 -78 -182t78 -183q79 -77 191 -77q54 0 98 17q48 18 92 48l113 -174q-67 -58 -152 -89q-80 -29 -166 -29q-106 0 -198 39q-96 41 -159 104q-66 67 -104 155q-38 90 -38 189t38 189q38 89 104 155t159 104q90 37 198 37
q86 0 166 -29q85 -31 152 -89z" />
    <glyph glyph-name="ordfeminine" unicode="&#xaa;" horiz-adv-x="870" 
d="M418 901q45 0 75 30q29 29 29 73q0 39 -29 67q-31 29 -75 29q-50 0 -77 -29q-28 -30 -28 -67q0 -41 28 -72t77 -31zM541 786v74q-34 -40 -91 -70t-139 -30q-118 0 -186 67q-70 68 -70 170q0 99 73 172q72 72 202 72q65 0 108 -14q51 -16 80 -35v20q0 76 -42 106
q-41 30 -126 28q-18 0 -76 -6q-34 -4 -110 -17v211q56 13 122 18q48 4 124 4q183 0 276 -78q94 -79 94 -208v-484h-239z" />
    <glyph glyph-name="guillemotleft" unicode="&#xab;" horiz-adv-x="1222" 
d="M690 0h-250l-329 508v6l329 510h252l-330 -512zM1104 0h-250l-330 508v6l330 510h252l-330 -512z" />
    <glyph glyph-name="logicalnot" unicode="&#xac;" horiz-adv-x="1409" 
d="M1292 248h-299v401h-897v256h1196v-657z" />
    <glyph glyph-name="registered" unicode="&#xae;" horiz-adv-x="1148" 
d="M575 1548q104 0 190 -37q88 -38 150 -100q64 -63 101 -149q37 -84 37 -183q0 -100 -37 -184q-38 -87 -101 -150q-62 -62 -150 -100q-86 -37 -190 -37q-103 0 -190 37q-90 38 -152 100q-61 61 -100 150q-37 84 -37 184q0 99 37 183q38 87 100 149t152 100q87 37 190 37z
M575 1493q-85 0 -161 -33q-77 -33 -133 -88q-59 -58 -91 -131q-32 -74 -32 -162q0 -87 32 -161t91 -133q56 -56 133 -89q74 -32 161 -32q86 0 160 32q76 33 132 89t89 133q33 76 33 161t-33 162q-33 76 -89 131q-57 56 -132 88q-77 33 -160 33zM575 1225h-26v-133h29
q33 0 50 17t17 48q0 35 -19 51q-20 17 -51 17zM664 817l-105 166h-8v-166h-148v533h166q29 0 76 -9q40 -8 70 -27t51 -56q20 -34 20 -91q0 -54 -25 -91q-24 -36 -61 -58l125 -189l-8 -12h-153z" />
    <glyph glyph-name="macron" unicode="&#xaf;" horiz-adv-x="1093" 
d="M856 1581v-213h-618v213h618z" />
    <glyph glyph-name="degree" unicode="&#xb0;" horiz-adv-x="854" 
d="M426 1567q74 0 137 -27q65 -28 109 -72q43 -43 71 -105q27 -60 27 -126q0 -68 -27 -128q-28 -62 -71 -105q-44 -44 -109 -72q-63 -27 -137 -27q-72 0 -135 27q-64 27 -110 72q-44 42 -72 105q-27 60 -27 128q0 66 27 126q28 63 72 105q46 45 110 72q63 27 135 27z
M426 1423q-78 0 -130 -56t-52 -132t52 -131t130 -55q80 0 132 56t52 130q0 76 -52 132t-132 56z" />
    <glyph glyph-name="plusminus" unicode="&#xb1;" horiz-adv-x="1327" 
d="M1210 645h-409v-342h-271v342h-413v238h413v395h271v-395h409v-238zM1214 227v-213h-1101v213h1101z" />
    <glyph glyph-name="two.sups" unicode="&#xb2;" horiz-adv-x="925" 
d="M754 571h-652l-16 33q1 2 28.5 36t48.5 60q108 135 109 137q20 25 56.5 70t52.5 64q51 63 72 90q37 49 58 87q19 35 19 81q0 52 -40 89q-42 39 -111 40q-45 0 -96 -18q-55 -20 -107 -60v227q56 27 117 39q67 13 117 13q163 -1 264 -90q98 -86 98 -216q-1 -98 -47 -162
q-35 -49 -98 -130q-17 -23 -72 -89q-47 -56 -96 -108h372z" />
    <glyph glyph-name="three.sups" unicode="&#xb3;" horiz-adv-x="847" 
d="M358 541q-61 0 -134 10q-79 11 -124 37v188q38 -26 97 -37q54 -10 90 -10q106 -2 166 35q61 37 61 96q0 58 -57 92q-58 35 -150 35h-61l8 182h53q68 0 116 31q46 30 46 78q0 44 -42 68t-110 24q-40 0 -83 -7t-84 -26l12 197q30 9 83 17q50 8 120 8q144 1 239 -70
q96 -72 96 -178q-2 -66 -35 -121q-35 -57 -92 -92q75 -34 124 -101q48 -66 48 -147q0 -134 -107 -222q-108 -88 -280 -87z" />
    <glyph glyph-name="acute" unicode="&#xb4;" horiz-adv-x="1093" 
d="M860 1618l-274 -301h-234l162 301h346z" />
    <glyph glyph-name="paragraph" unicode="&#xb6;" horiz-adv-x="1366" 
d="M868 -424h-186v981h-45q-122 0 -220 37q-102 39 -170 101q-71 65 -110 153t-39 190q0 97 40 184q41 89 112 156q75 70 173 109q103 41 224 41h574v-1952h-187v1753h-166v-1753z" />
    <glyph glyph-name="periodcentered" unicode="&#xb7;" horiz-adv-x="620" 
d="M141 862h338v-307h-338v307z" />
    <glyph glyph-name="cedilla" unicode="&#xb8;" horiz-adv-x="1093" 
d="M489 -418q-32 0 -77 6q-46 6 -86 21v125h2q45 -14 80 -19q41 -6 61 -6q51 0 81 18t30 48q0 29 -39 47t-101 18h-37l-6 15l58 168h131l-33 -82q96 -12 149 -59q54 -48 54 -118q0 -76 -74 -129t-193 -53z" />
    <glyph glyph-name="one.sups" unicode="&#xb9;" horiz-adv-x="677" 
d="M524 571h-231v627l-172 -166v297l223 199h180v-957z" />
    <glyph glyph-name="ordmasculine" unicode="&#xba;" horiz-adv-x="1024" 
d="M512 1567q94 0 178 -32q82 -31 143 -86q59 -53 94 -129q34 -74 34 -161q0 -89 -34 -164q-34 -76 -94 -130q-62 -55 -143 -85q-83 -30 -178 -30q-96 0 -178 30q-81 30 -143 85q-60 54 -94 130q-34 75 -34 164q0 87 34 161q35 76 94 129q61 55 143 86q84 32 178 32z
M512 1346q-75 0 -128 -55q-52 -53 -52 -132q0 -83 52 -135q53 -53 128 -53q78 0 129 53q51 52 51 135q0 78 -51 132q-52 55 -129 55z" />
    <glyph glyph-name="guillemotright" unicode="&#xbb;" horiz-adv-x="1222" 
d="M371 0h-250l330 514l-328 510h248l329 -510v-6zM782 0h-250l330 514l-327 510h247l330 -510v-6z" />
    <glyph glyph-name="onequarter" unicode="&#xbc;" horiz-adv-x="1961" 
d="M485 571h-231v627l-172 -166v297l223 199h180v-957zM1282 1528h262l-930 -1528h-258zM1565 348v291l-197 -291h197zM1866 158h-68v-158h-233v158h-455l-20 45l505 753h203v-608h119z" />
    <glyph glyph-name="onehalf" unicode="&#xbd;" horiz-adv-x="2103" 
d="M485 571h-231v627l-172 -166v297l223 199h180v-957zM1282 1528h262l-930 -1528h-258zM1970 0h-651l-16 33q7 9 32.5 41t43.5 55q16 20 34 42t40.5 50t35.5 44q18 23 54.5 67.5t53.5 66.5q51 63 72 90q35 46 58 88q20 37 20 80q0 52 -40 89q-42 39 -112 40q-48 0 -96 -17
q-54 -19 -106 -60v227q56 27 116 39q61 12 117 12q164 -1 264 -89q99 -87 99 -216q-1 -99 -47 -163q-24 -33 -99 -130q-18 -25 -71 -88q-39 -46 -97 -108h373z" />
    <glyph glyph-name="threequarters" unicode="&#xbe;" horiz-adv-x="2107" 
d="M319 541q-61 0 -134 10q-79 11 -124 37v188q38 -26 97 -37q54 -10 90 -10q106 -2 166 35q61 37 61 96q0 58 -57 92q-58 35 -150 35h-61l8 182h53q68 0 116 31q46 30 46 78q0 44 -42 68t-109 24q-40 0 -83 -7q-44 -7 -85 -26l12 197q30 9 83 17q50 8 120 8q144 1 239 -70
q97 -73 97 -178q-2 -64 -36 -121q-35 -58 -91 -92q74 -33 123 -101q49 -67 49 -147q0 -134 -108 -222t-280 -87zM1429 1528h263l-930 -1528h-258zM1710 348v291l-197 -291h197zM2011 158h-67v-158h-234v158h-455l-20 45l506 753h203v-608h118z" />
    <glyph glyph-name="questiondown" unicode="&#xbf;" horiz-adv-x="1230" 
d="M825 1528v-262h-284v262h284zM678 -31q-237 0 -381 126q-143 125 -143 333q0 107 31 187q31 79 85 138q51 56 125 88t154 44v245h270v-387h-65q-123 0 -216 -69q-94 -70 -94 -201q0 -106 78 -181t223 -75q77 0 160 25q77 23 162 88l8 -254q-94 -53 -194 -79
q-106 -28 -203 -28z" />
    <glyph glyph-name="Agrave" unicode="&#xc0;" horiz-adv-x="1570" 
d="M1014 504l-232 631l-233 -631h465zM1200 0l-92 252h-653l-95 -252h-329l598 1528h315l598 -1528h-342zM393 1954h350l166 -301h-241z" />
    <glyph glyph-name="Aacute" unicode="&#xc1;" horiz-adv-x="1570" 
d="M1014 504l-232 631l-233 -631h465zM1200 0l-92 252h-653l-95 -252h-329l598 1528h315l598 -1528h-342zM1182 1954l-275 -301h-233l162 301h346z" />
    <glyph glyph-name="Acircumflex" unicode="&#xc2;" horiz-adv-x="1570" 
d="M1014 504l-232 631l-233 -631h465zM1200 0l-92 252h-653l-95 -252h-329l598 1528h315l598 -1528h-342zM926 1653l-135 166l-136 -166h-258l244 301h299l246 -301h-260z" />
    <glyph glyph-name="Atilde" unicode="&#xc3;" horiz-adv-x="1570" 
d="M1014 504l-232 631l-233 -631h465zM1200 0l-92 252h-653l-95 -252h-329l598 1528h315l598 -1528h-342zM557 1653l-223 6q-12 185 64 257q78 73 188 73q50 0 99 -18q66 -24 97 -38q17 -8 46.5 -20.5t41.5 -17.5q38 -17 70 -17q34 0 58 20q26 21 24 84l221 -6
q10 -157 -56 -237t-190 -80q-53 0 -102 16q-57 18 -98 37q-26 12 -88 37q-39 16 -70 16q-32 0 -59 -21q-28 -21 -23 -91z" />
    <glyph glyph-name="Adieresis" unicode="&#xc4;" horiz-adv-x="1570" 
d="M1014 504l-232 631l-233 -631h465zM1200 0l-92 252h-653l-95 -252h-329l598 1528h315l598 -1528h-342zM1151 1880v-227h-258v227h258zM690 1880v-227h-260v227h260z" />
    <glyph glyph-name="Aring" unicode="&#xc5;" horiz-adv-x="1570" 
d="M1014 504l-232 631l-233 -631h465zM1200 0l-92 252h-653l-95 -252h-329l598 1528h315l598 -1528h-342zM791 1911q109 0 189 -77q79 -76 79 -179q0 -102 -79 -180t-189 -78q-111 0 -189 79q-78 80 -78 179q0 100 78 178t189 78zM791 1780q-52 0 -89 -37q-36 -36 -36 -88
t36 -88q37 -37 89 -37q51 0 88 37q36 36 36 88t-36 88q-37 37 -88 37z" />
    <glyph glyph-name="AE" unicode="&#xc6;" horiz-adv-x="2002" 
d="M991 504l-229 684l-232 -684h461zM1159 0l-84 252h-629l-86 -252h-329l577 1528h971v-281h-551l125 -332h584v-258h-490l142 -376h583v-281h-813z" />
    <glyph glyph-name="Ccedilla" unicode="&#xc7;" horiz-adv-x="1359" 
d="M1253 1501v-307q-67 43 -148 64q-85 22 -169 22q-109 0 -209 -41q-95 -39 -170 -111q-72 -69 -114 -163q-42 -95 -42 -197q0 -105 42 -200q43 -96 114 -166q72 -70 170 -112q99 -42 209 -42q88 0 169 21q79 20 148 65v-309q-84 -38 -159 -54q-84 -18 -176 -18
q-182 0 -334 64q-155 65 -265 174t-174 259q-63 148 -63 316q0 166 63 314t174 258t265 173q155 64 334 64q90 0 176 -20q81 -19 159 -54zM803 -465q-33 0 -78 6q-46 6 -86 21v125h2q45 -14 80 -19q41 -6 61 -6q53 0 81 17q30 18 30 49q0 29 -39 47t-100 18h-37l-6 14
l57 168h131l-33 -81q97 -12 150 -59t53 -118q0 -76 -74 -129t-192 -53z" />
    <glyph glyph-name="Egrave" unicode="&#xc8;" horiz-adv-x="1120" 
d="M133 0v1528h854v-281h-534v-332h483v-258h-483v-376h551v-281h-871zM178 1954h350l166 -301h-241z" />
    <glyph glyph-name="Eacute" unicode="&#xc9;" horiz-adv-x="1120" 
d="M133 0v1528h854v-281h-534v-332h483v-258h-483v-376h551v-281h-871zM967 1954l-275 -301h-233l162 301h346z" />
    <glyph glyph-name="Ecircumflex" unicode="&#xca;" horiz-adv-x="1120" 
d="M133 0v1528h854v-281h-534v-332h483v-258h-483v-376h551v-281h-871zM713 1653l-135 166l-136 -166h-258l244 301h299l246 -301h-260z" />
    <glyph glyph-name="Edieresis" unicode="&#xcb;" horiz-adv-x="1120" 
d="M133 0v1528h854v-281h-534v-332h483v-258h-483v-376h551v-281h-871zM938 1880v-227h-258v227h258zM477 1880v-227h-260v227h260z" />
    <glyph glyph-name="Igrave" unicode="&#xcc;" horiz-adv-x="587" 
d="M135 0v1528h318v-1528h-318zM-104 1954h350l166 -301h-242z" />
    <glyph glyph-name="Iacute" unicode="&#xcd;" horiz-adv-x="587" 
d="M135 0v1528h318v-1528h-318zM684 1954l-274 -301h-234l162 301h346z" />
    <glyph glyph-name="Icircumflex" unicode="&#xce;" horiz-adv-x="587" 
d="M135 0v1528h318v-1528h-318zM430 1653l-135 166l-135 -166h-258l243 301h299l246 -301h-260z" />
    <glyph glyph-name="Idieresis" unicode="&#xcf;" horiz-adv-x="587" 
d="M135 0v1528h318v-1528h-318zM655 1880v-227h-258v227h258zM195 1880v-227h-261v227h261z" />
    <glyph glyph-name="Eth" unicode="&#xd0;" horiz-adv-x="1476" 
d="M588 0h-441v655h-98v242h98v631h437q157 0 301 -46t256 -140q111 -93 177 -237t66 -339q0 -199 -65 -342q-67 -147 -175 -239q-109 -92 -255 -139q-144 -46 -301 -46zM465 287h131q92 0 177 30q84 29 150 91q65 61 102 149q38 91 38 209q0 116 -38 206q-37 88 -102 148
t-150 90q-88 31 -177 31h-131v-344h237v-242h-237v-368z" />
    <glyph glyph-name="Ntilde" unicode="&#xd1;" horiz-adv-x="1609" 
d="M1171 0l-718 993v-993h-320v1528h311l715 -989v989h318v-1528h-306zM545 1653l-223 6q-12 185 64 257q78 73 187 73q51 0 100 -18q66 -24 97 -38q17 -8 46.5 -20.5t41.5 -17.5q38 -17 70 -17q34 0 58 20q26 21 24 84l221 -6q10 -157 -56 -237t-190 -80q-53 0 -102 16
q-60 19 -99 37q-26 12 -88 37q-39 16 -69 16q-33 0 -60 -21t-22 -91z" />
    <glyph glyph-name="Ograve" unicode="&#xd2;" horiz-adv-x="1851" 
d="M928 1577q171 0 328 -64q154 -63 269 -173q112 -108 179 -258q65 -146 65 -316q0 -169 -65 -317q-67 -153 -179 -260q-114 -109 -269 -174q-153 -64 -328 -64q-180 0 -333 64q-154 64 -268 174q-114 109 -180 260q-65 148 -65 317q0 170 65 316q66 148 180 258
q115 111 268 173q157 64 333 64zM928 1286q-110 0 -207 -41t-167 -111q-71 -72 -112 -166q-41 -96 -41 -202t41 -203q40 -95 112 -167q69 -69 167 -112q96 -42 207 -42q110 0 204 42q95 42 165 112q72 72 112 167q41 97 41 203t-41 202q-41 94 -112 166q-71 70 -165 111
q-96 41 -204 41zM526 1954h351l165 -301h-241z" />
    <glyph glyph-name="Oacute" unicode="&#xd3;" horiz-adv-x="1851" 
d="M928 1577q171 0 328 -64q154 -63 269 -173q112 -108 179 -258q65 -146 65 -316q0 -169 -65 -317q-67 -153 -179 -260q-114 -109 -269 -174q-153 -64 -328 -64q-180 0 -333 64q-154 64 -268 174q-114 109 -180 260q-65 148 -65 317q0 170 65 316q66 148 180 258
q115 111 268 173q157 64 333 64zM928 1286q-110 0 -207 -41t-167 -111q-71 -72 -112 -166q-41 -96 -41 -202t41 -203q40 -95 112 -167q69 -69 167 -112q96 -42 207 -42q110 0 204 42q95 42 165 112q72 72 112 167q41 97 41 203t-41 202q-41 94 -112 166q-71 70 -165 111
q-96 41 -204 41zM1315 1954l-275 -301h-233l162 301h346z" />
    <glyph glyph-name="Ocircumflex" unicode="&#xd4;" horiz-adv-x="1851" 
d="M928 1577q171 0 328 -64q154 -63 269 -173q112 -108 179 -258q65 -146 65 -316q0 -169 -65 -317q-67 -153 -179 -260q-114 -109 -269 -174q-153 -64 -328 -64q-180 0 -333 64q-154 64 -268 174q-114 109 -180 260q-65 148 -65 317q0 170 65 316q66 148 180 258
q115 111 268 173q157 64 333 64zM928 1286q-110 0 -207 -41t-167 -111q-71 -72 -112 -166q-41 -96 -41 -202t41 -203q40 -95 112 -167q69 -69 167 -112q96 -42 207 -42q110 0 204 42q95 42 165 112q72 72 112 167q41 97 41 203t-41 202q-41 94 -112 166q-71 70 -165 111
q-96 41 -204 41zM1061 1653l-135 166l-135 -166h-259l244 301h299l246 -301h-260z" />
    <glyph glyph-name="Otilde" unicode="&#xd5;" horiz-adv-x="1851" 
d="M928 1577q171 0 328 -64q154 -63 269 -173q112 -108 179 -258q65 -146 65 -316q0 -169 -65 -317q-67 -153 -179 -260q-114 -109 -269 -174q-153 -64 -328 -64q-180 0 -333 64q-154 64 -268 174q-114 109 -180 260q-65 148 -65 317q0 170 65 316q66 148 180 258
q115 111 268 173q157 64 333 64zM928 1286q-110 0 -207 -41t-167 -111q-71 -72 -112 -166q-41 -96 -41 -202t41 -203q40 -95 112 -167q69 -69 167 -112q96 -42 207 -42q110 0 204 42q95 42 165 112q72 72 112 167q41 97 41 203t-41 202q-41 94 -112 166q-71 70 -165 111
q-96 41 -204 41zM692 1653l-223 6q-12 185 65 257q78 73 187 73q49 0 99 -18q71 -26 98 -38q17 -8 46.5 -20.5t41.5 -17.5q38 -17 69 -17q35 0 59 20q25 20 23 84l221 -6q10 -157 -56 -237t-189 -80q-54 0 -103 16q-57 18 -98 37q-26 12 -88 37q-39 16 -70 16q-32 0 -59 -21
q-28 -21 -23 -91z" />
    <glyph glyph-name="Odieresis" unicode="&#xd6;" horiz-adv-x="1851" 
d="M928 1577q171 0 328 -64q154 -63 269 -173q112 -108 179 -258q65 -146 65 -316q0 -169 -65 -317q-67 -153 -179 -260q-114 -109 -269 -174q-153 -64 -328 -64q-180 0 -333 64q-154 64 -268 174q-114 109 -180 260q-65 148 -65 317q0 170 65 316q66 148 180 258
q115 111 268 173q157 64 333 64zM928 1286q-110 0 -207 -41t-167 -111q-71 -72 -112 -166q-41 -96 -41 -202t41 -203q40 -95 112 -167q69 -69 167 -112q96 -42 207 -42q110 0 204 42q95 42 165 112q72 72 112 167q41 97 41 203t-41 202q-41 94 -112 166q-71 70 -165 111
q-96 41 -204 41zM1286 1880v-227h-258v227h258zM825 1880v-227h-260v227h260z" />
    <glyph glyph-name="multiply" unicode="&#xd7;" horiz-adv-x="1210" 
d="M948 186l-352 355l-340 -340l-160 161l338 340l-334 334l168 166l334 -334l316 318l163 -162l-317 -317l352 -353z" />
    <glyph glyph-name="Oslash" unicode="&#xd8;" horiz-adv-x="1878" 
d="M401 766q0 -96 33 -183q33 -88 90 -155l576 829q-38 14 -84 22q-41 7 -88 7q-110 0 -207 -41t-167 -111q-71 -72 -112 -166q-41 -96 -41 -202zM928 242q110 0 204 42q95 42 165 112q72 72 112 167q41 97 41 203q0 110 -44 210q-44 101 -120 169l-590 -852q53 -25 110 -38
q56 -13 122 -13zM928 -49q-111 0 -211 25q-101 25 -191 71l-100 -145h-264l186 268q-122 110 -194 265t-72 331q0 170 65 316q66 148 180 258q115 111 268 173q157 64 333 64q92 0 179 -18q82 -17 165 -52l82 119h264l-160 -229q140 -110 226 -276q85 -164 85 -355
q0 -169 -65 -317q-67 -153 -179 -260q-114 -109 -269 -174q-153 -64 -328 -64z" />
    <glyph glyph-name="Ugrave" unicode="&#xd9;" horiz-adv-x="1495" 
d="M1360 643q0 -326 -158 -510q-157 -182 -454 -182t-455 182q-160 184 -160 510v885h320v-950q0 -83 24 -146q23 -59 66 -106q41 -44 94 -65q52 -21 111 -21q57 0 111 21q52 20 94 65t65 106q24 63 24 146v950h318v-885zM346 1954h350l166 -301h-241z" />
    <glyph glyph-name="Uacute" unicode="&#xda;" horiz-adv-x="1495" 
d="M1360 643q0 -326 -158 -510q-157 -182 -454 -182t-455 182q-160 184 -160 510v885h320v-950q0 -83 24 -146q23 -59 66 -106q41 -44 94 -65q52 -21 111 -21q57 0 111 21q52 20 94 65t65 106q24 63 24 146v950h318v-885zM1135 1954l-275 -301h-233l161 301h347z" />
    <glyph glyph-name="Ucircumflex" unicode="&#xdb;" horiz-adv-x="1495" 
d="M1360 643q0 -326 -158 -510q-157 -182 -454 -182t-455 182q-160 184 -160 510v885h320v-950q0 -83 24 -146q23 -59 66 -106q41 -44 94 -65q52 -21 111 -21q57 0 111 21q52 20 94 65t65 106q24 63 24 146v950h318v-885zM883 1653l-135 166l-136 -166h-258l244 301h299
l246 -301h-260z" />
    <glyph glyph-name="Udieresis" unicode="&#xdc;" horiz-adv-x="1495" 
d="M1360 643q0 -326 -158 -510q-157 -182 -454 -182t-455 182q-160 184 -160 510v885h320v-950q0 -83 24 -146q23 -59 66 -106q41 -44 94 -65q52 -21 111 -21q57 0 111 21q52 20 94 65t65 106q24 63 24 146v950h318v-885zM1108 1880v-227h-258v227h258zM647 1880v-227h-260
v227h260z" />
    <glyph glyph-name="Yacute" unicode="&#xdd;" horiz-adv-x="1413" 
d="M864 0h-317v487l-527 1041h347l342 -740l360 740h324l-529 -1041v-487zM1116 1954l-274 -301h-234l162 301h346z" />
    <glyph glyph-name="Thorn" unicode="&#xde;" horiz-adv-x="1222" 
d="M592 1036h-139v-440h139q111 0 182 59q72 60 72 160q0 102 -62 162q-60 59 -192 59zM559 317h-106v-317h-320v1528h320v-207h114q119 0 229 -23t188 -78q82 -58 129 -155q48 -99 48 -250q0 -133 -53 -228t-138 -155t-194 -87q-112 -28 -217 -28z" />
    <glyph glyph-name="germandbls" unicode="&#xdf;" horiz-adv-x="1251" 
d="M604 -338v293q140 78 195 161q57 86 57 167q0 93 -66 152q-66 58 -172 81l140 264h-348v-780h-293v1237q0 132 40 211q41 81 104 122t146 55q78 13 162 13v-254q-65 0 -112 -30t-47 -137v-334l88 141h651l6 -12l-203 -393q100 -57 152 -145q51 -87 51 -191
q0 -105 -41 -198q-38 -87 -114 -167q-71 -75 -174 -139q-114 -70 -222 -117z" />
    <glyph glyph-name="agrave" unicode="&#xe0;" horiz-adv-x="1118" 
d="M543 133q75 0 125 48q49 48 49 118q0 67 -48 113q-49 47 -126 47q-78 0 -125 -47t-47 -113q0 -67 47 -117q46 -49 125 -49zM735 0v100q-45 -56 -125 -97q-77 -40 -182 -40q-160 0 -257 94t-97 236q0 139 100 235q102 97 272 97q88 0 155 -23q69 -23 114 -57v51
q0 126 -63 172q-64 47 -173 47q-50 0 -103 -7q-47 -6 -151 -26l-4 236q87 19 163 26q81 7 155 7q231 0 349 -105t118 -278v-668h-271zM158 1473h350l166 -302h-242z" />
    <glyph glyph-name="aacute" unicode="&#xe1;" horiz-adv-x="1118" 
d="M543 133q75 0 125 48q49 48 49 118q0 67 -48 113q-49 47 -126 47q-78 0 -125 -47t-47 -113q0 -67 47 -117q46 -49 125 -49zM735 0v100q-45 -56 -125 -97q-77 -40 -182 -40q-160 0 -257 94t-97 236q0 139 100 235q102 97 272 97q88 0 155 -23q69 -23 114 -57v51
q0 126 -63 172q-64 47 -173 47q-50 0 -103 -7q-47 -6 -151 -26l-4 236q87 19 163 26q81 7 155 7q231 0 349 -105t118 -278v-668h-271zM946 1473l-274 -302h-234l162 302h346z" />
    <glyph glyph-name="acircumflex" unicode="&#xe2;" horiz-adv-x="1118" 
d="M543 133q75 0 125 48q49 48 49 118q0 67 -48 113q-49 47 -126 47q-78 0 -125 -47t-47 -113q0 -67 47 -117q46 -49 125 -49zM735 0v100q-45 -56 -125 -97q-77 -40 -182 -40q-160 0 -257 94t-97 236q0 139 100 235q102 97 272 97q88 0 155 -23q69 -23 114 -57v51
q0 126 -63 172q-64 47 -173 47q-50 0 -103 -7q-47 -6 -151 -26l-4 236q87 19 163 26q81 7 155 7q231 0 349 -105t118 -278v-668h-271zM692 1171l-135 166l-135 -166h-258l244 302h299l245 -302h-260z" />
    <glyph glyph-name="atilde" unicode="&#xe3;" horiz-adv-x="1118" 
d="M543 133q75 0 125 48q49 48 49 118q0 67 -48 113q-49 47 -126 47q-78 0 -125 -47t-47 -113q0 -67 47 -117q46 -49 125 -49zM735 0v100q-45 -56 -125 -97q-77 -40 -182 -40q-160 0 -257 94t-97 236q0 139 100 235q102 97 272 97q88 0 155 -23q69 -23 114 -57v51
q0 126 -63 172q-64 47 -173 47q-50 0 -103 -7q-47 -6 -151 -26l-4 236q87 19 163 26q81 7 155 7q231 0 349 -105t118 -278v-668h-271zM348 1169l-217 9q-10 178 60 248q71 71 176 71q47 0 92 -16q49 -17 89 -36q42 -19 78 -36q35 -16 62 -16q33 0 54 18q22 19 22 78l217 -6
q8 -153 -53 -230t-178 -77q-48 0 -95 15q-36 11 -90 34q-73 30 -80 33q-40 16 -63 16q-28 0 -52 -21t-22 -84z" />
    <glyph glyph-name="adieresis" unicode="&#xe4;" horiz-adv-x="1118" 
d="M543 133q75 0 125 48q49 48 49 118q0 67 -48 113q-49 47 -126 47q-78 0 -125 -47t-47 -113q0 -67 47 -117q46 -49 125 -49zM735 0v100q-45 -56 -125 -97q-77 -40 -182 -40q-160 0 -257 94t-97 236q0 139 100 235q102 97 272 97q88 0 155 -23q69 -23 114 -57v51
q0 126 -63 172q-64 47 -173 47q-50 0 -103 -7q-47 -6 -151 -26l-4 236q87 19 163 26q81 7 155 7q231 0 349 -105t118 -278v-668h-271zM909 1399v-228h-258v228h258zM483 1399v-228h-258v228h258z" />
    <glyph glyph-name="aring" unicode="&#xe5;" horiz-adv-x="1118" 
d="M543 133q75 0 125 48q49 48 49 118q0 67 -48 113q-49 47 -126 47q-78 0 -125 -47t-47 -113q0 -67 47 -117q46 -49 125 -49zM735 0v100q-45 -56 -125 -97q-77 -40 -182 -40q-160 0 -257 94t-97 236q0 139 100 235q102 97 272 97q88 0 155 -23q69 -23 114 -57v51
q0 126 -63 172q-64 47 -173 47q-50 0 -103 -7q-47 -6 -151 -26l-4 236q87 19 163 26q81 7 155 7q231 0 349 -105t118 -278v-668h-271zM557 1673q109 0 189 -77q79 -76 79 -179q0 -102 -79 -180q-80 -78 -189 -78q-110 0 -188 79q-78 80 -78 179q0 100 78 178t188 78z
M557 1542q-51 0 -88 -37t-37 -88t37 -88t88 -37t88 37t37 88t-37 88t-88 37z" />
    <glyph glyph-name="ae" unicode="&#xe6;" horiz-adv-x="1882" 
d="M1255 836q-97 0 -161 -56q-65 -57 -88 -155h497q-23 96 -89 154q-64 57 -159 57zM543 121q77 0 127 49q51 49 51 125q0 66 -49 115t-129 49q-79 0 -125 -49q-47 -50 -47 -115q0 -74 47 -124t125 -50zM1800 129q-83 -74 -205 -126t-288 -52q-147 0 -265 50
q-113 48 -192 136q-40 -70 -133 -128q-94 -58 -242 -58q-186 0 -293 97q-108 98 -108 241q0 138 100 237t272 99q82 0 148 -21q68 -22 111 -53v45q0 126 -60 172q-61 47 -170 47q-49 0 -102 -6q-55 -6 -148 -27l-4 236q87 19 160 26q77 7 154 7q120 0 207 -33
q89 -34 141 -90q69 69 166 107t208 38q118 0 220 -42q103 -42 176 -117q72 -73 116 -177q43 -101 43 -223v-78h-815q18 -123 101 -189q84 -67 215 -67q103 0 185 35q81 35 144 90z" />
    <glyph glyph-name="ccedilla" unicode="&#xe7;" horiz-adv-x="1024" 
d="M926 272v-256q-37 -25 -114 -36q-75 -11 -130 -11q-129 0 -241 41q-110 40 -192 113t-128 172q-47 102 -47 217t47 217q46 99 128 172t192 113q112 41 241 41q54 0 128 -11t116 -36v-258h-8q-45 32 -106 46q-56 13 -118 13q-132 0 -223 -86q-90 -85 -90 -211t90 -212
q89 -85 223 -85q60 0 117 12q58 12 107 45h8zM580 -430q-34 0 -76 7q-47 8 -84 22v120h2q35 -9 78 -16q39 -6 59 -6q47 0 73 16q27 17 27 45q0 26 -35 44q-36 18 -94 18h-36l-5 14l58 164l125 -6l-31 -72q91 -12 144 -57t53 -113q0 -78 -71 -129t-187 -51z" />
    <glyph glyph-name="egrave" unicode="&#xe8;" horiz-adv-x="1271" 
d="M643 836q-96 0 -161 -56t-89 -155h500q-23 96 -90 154q-66 57 -160 57zM1190 129q-82 -76 -206 -127t-288 -51q-147 0 -261 43q-116 44 -195 118q-80 75 -123 177q-43 101 -43 223q0 120 42 224q43 105 117 178q76 75 182 117q105 42 232 42q116 0 218 -42
q101 -42 175 -117t117 -177q43 -101 43 -223v-78h-815q18 -123 101 -189q84 -67 216 -67q104 0 186 35q81 35 144 90zM248 1473h350l166 -302h-242z" />
    <glyph glyph-name="eacute" unicode="&#xe9;" horiz-adv-x="1271" 
d="M643 836q-96 0 -161 -56t-89 -155h500q-23 96 -90 154q-66 57 -160 57zM1190 129q-82 -76 -206 -127t-288 -51q-147 0 -261 43q-116 44 -195 118q-80 75 -123 177q-43 101 -43 223q0 120 42 224q43 105 117 178q76 75 182 117q105 42 232 42q116 0 218 -42
q101 -42 175 -117t117 -177q43 -101 43 -223v-78h-815q18 -123 101 -189q84 -67 216 -67q104 0 186 35q81 35 144 90zM1034 1473l-274 -302h-234l162 302h346z" />
    <glyph glyph-name="ecircumflex" unicode="&#xea;" horiz-adv-x="1271" 
d="M643 836q-96 0 -161 -56t-89 -155h500q-23 96 -90 154q-66 57 -160 57zM1190 129q-82 -76 -206 -127t-288 -51q-147 0 -261 43q-116 44 -195 118q-80 75 -123 177q-43 101 -43 223q0 120 42 224q43 105 117 178q76 75 182 117q105 42 232 42q116 0 218 -42
q101 -42 175 -117t117 -177q43 -101 43 -223v-78h-815q18 -123 101 -189q84 -67 216 -67q104 0 186 35q81 35 144 90zM782 1171l-135 166l-135 -166h-258l244 302h299l245 -302h-260z" />
    <glyph glyph-name="edieresis" unicode="&#xeb;" horiz-adv-x="1271" 
d="M643 836q-96 0 -161 -56t-89 -155h500q-23 96 -90 154q-66 57 -160 57zM1190 129q-82 -76 -206 -127t-288 -51q-147 0 -261 43q-116 44 -195 118q-80 75 -123 177q-43 101 -43 223q0 120 42 224q43 105 117 178q76 75 182 117q105 42 232 42q116 0 218 -42
q101 -42 175 -117t117 -177q43 -101 43 -223v-78h-815q18 -123 101 -189q84 -67 216 -67q104 0 186 35q81 35 144 90zM989 1399v-228h-258v228h258zM563 1399v-228h-258v228h258z" />
    <glyph glyph-name="igrave" unicode="&#xec;" horiz-adv-x="526" 
d="M408 1024v-1024h-289v1024h289zM-135 1473h350l166 -302h-242z" />
    <glyph glyph-name="iacute" unicode="&#xed;" horiz-adv-x="526" 
d="M408 1024v-1024h-289v1024h289zM653 1473l-274 -302h-234l162 302h346z" />
    <glyph glyph-name="icircumflex" unicode="&#xee;" horiz-adv-x="526" 
d="M408 1024v-1024h-289v1024h289zM397 1171l-135 166l-135 -166h-258l244 302h299l245 -302h-260z" />
    <glyph glyph-name="idieresis" unicode="&#xef;" horiz-adv-x="526" 
d="M408 1024v-1024h-289v1024h289zM606 1399v-228h-258v228h258zM180 1399v-228h-258v228h258z" />
    <glyph glyph-name="eth" unicode="&#xf0;" horiz-adv-x="1341" 
d="M662 -47q-124 0 -233 44q-104 42 -186 119q-79 74 -124 177q-45 102 -45 219q0 110 45 208t123 168q77 70 184 112q106 42 229 42q60 0 113 -10q56 -11 104 -31q-46 75 -81 122q-44 59 -97 118l-342 -102l-84 139l299 90q-66 62 -138 120q-71 58 -148 109h372
q54 -38 93 -71q54 -46 88 -78l286 86l78 -141l-242 -74q143 -169 226 -360q84 -194 84 -388q0 -10 -1 -15t-1 -13h2q0 -125 -46 -232q-46 -108 -127 -187q-79 -78 -192 -125q-110 -46 -239 -46zM672 815q-127 0 -212 -90q-85 -89 -85 -213q0 -126 85 -214q86 -89 212 -89
q125 0 209 89t84 214q0 123 -84 213t-209 90z" />
    <glyph glyph-name="ntilde" unicode="&#xf1;" horiz-adv-x="1204" 
d="M406 598v-598h-291v1024h276v-131q44 56 132 106t206 50q155 0 260 -102t105 -277v-670h-291v580q0 116 -58 163q-59 48 -137 48q-69 0 -136 -52q-66 -51 -66 -141zM385 1169l-217 9q-10 178 60 248q71 71 175 71q48 0 93 -16q49 -17 89 -36q42 -19 78 -36q35 -16 62 -16
q33 0 54 18q22 19 22 78l217 -6q8 -153 -53 -230t-179 -77q-48 0 -94 15q-36 11 -90 34q-72 30 -80 33q-40 16 -63 16q-28 0 -52 -21t-22 -84z" />
    <glyph glyph-name="ograve" unicode="&#xf2;" horiz-adv-x="1349" 
d="M674 1073q127 0 239 -44q111 -43 191 -119q80 -75 126 -178q46 -102 46 -220t-46 -220q-46 -103 -126 -178q-80 -76 -191 -119q-112 -44 -239 -44q-126 0 -238 44q-109 43 -190 119q-80 75 -126 178q-46 102 -46 220t46 220q46 103 126 178q81 76 190 119q112 44 238 44z
M674 821q-127 0 -211 -91q-84 -92 -84 -218q0 -129 84 -219t211 -90q126 0 212 90q85 89 85 219q0 127 -85 218t-212 91zM274 1473h351l166 -302h-242z" />
    <glyph glyph-name="oacute" unicode="&#xf3;" horiz-adv-x="1349" 
d="M674 1073q127 0 239 -44q111 -43 191 -119q80 -75 126 -178q46 -102 46 -220t-46 -220q-46 -103 -126 -178q-80 -76 -191 -119q-112 -44 -239 -44q-126 0 -238 44q-109 43 -190 119q-80 75 -126 178q-46 102 -46 220t46 220q46 103 126 178q81 76 190 119q112 44 238 44z
M674 821q-127 0 -211 -91q-84 -92 -84 -218q0 -129 84 -219t211 -90q126 0 212 90q85 89 85 219q0 127 -85 218t-212 91zM1063 1473l-275 -302h-233l162 302h346z" />
    <glyph glyph-name="ocircumflex" unicode="&#xf4;" horiz-adv-x="1349" 
d="M674 1073q127 0 239 -44q111 -43 191 -119q80 -75 126 -178q46 -102 46 -220t-46 -220q-46 -103 -126 -178q-80 -76 -191 -119q-112 -44 -239 -44q-126 0 -238 44q-109 43 -190 119q-80 75 -126 178q-46 102 -46 220t46 220q46 103 126 178q81 76 190 119q112 44 238 44z
M674 821q-127 0 -211 -91q-84 -92 -84 -218q0 -129 84 -219t211 -90q126 0 212 90q85 89 85 219q0 127 -85 218t-212 91zM809 1171l-135 166l-135 -166h-258l243 302h299l246 -302h-260z" />
    <glyph glyph-name="otilde" unicode="&#xf5;" horiz-adv-x="1349" 
d="M674 1073q127 0 239 -44q111 -43 191 -119q80 -75 126 -178q46 -102 46 -220t-46 -220q-46 -103 -126 -178q-80 -76 -191 -119q-112 -44 -239 -44q-126 0 -238 44q-109 43 -190 119q-80 75 -126 178q-46 102 -46 220t46 220q46 103 126 178q81 76 190 119q112 44 238 44z
M674 821q-127 0 -211 -91q-84 -92 -84 -218q0 -129 84 -219t211 -90q126 0 212 90q85 89 85 219q0 127 -85 218t-212 91zM465 1169l-217 9q-10 178 60 248q71 71 175 71q47 0 92 -16q53 -19 90 -36q12 -5 38 -17.5t39 -18.5q35 -16 63 -16q33 0 54 18q22 19 22 78l217 -6
q8 -152 -54 -230q-61 -77 -178 -77q-48 0 -94 15q-36 11 -90 34q-72 30 -80 33q-40 16 -63 16q-29 0 -53 -21q-23 -20 -21 -84z" />
    <glyph glyph-name="odieresis" unicode="&#xf6;" horiz-adv-x="1349" 
d="M674 1073q127 0 239 -44q111 -43 191 -119q80 -75 126 -178q46 -102 46 -220t-46 -220q-46 -103 -126 -178q-80 -76 -191 -119q-112 -44 -239 -44q-126 0 -238 44q-109 43 -190 119q-80 75 -126 178q-46 102 -46 220t46 220q46 103 126 178q81 76 190 119q112 44 238 44z
M674 821q-127 0 -211 -91q-84 -92 -84 -218q0 -129 84 -219t211 -90q126 0 212 90q85 89 85 219q0 127 -85 218t-212 91zM1016 1399v-228h-258v228h258zM590 1399v-228h-258v228h258z" />
    <glyph glyph-name="divide" unicode="&#xf7;" horiz-adv-x="1296" 
d="M512 1006v280h274v-280h-274zM1190 834v-236h-1084v236h1084zM512 145v281h274v-281h-274z" />
    <glyph glyph-name="oslash" unicode="&#xf8;" horiz-adv-x="1339" 
d="M397 512q0 -39 11 -78q10 -36 28 -69l260 430q-8 2 -12 2h-12q-116 0 -196 -84q-79 -83 -79 -201zM672 227q115 0 195 83q79 82 79 202q0 43 -10 80q-11 40 -31 72l-262 -435q8 -2 13 -2h16zM672 -47q-46 0 -93 6t-90 18l-45 -75h-288l112 186q-95 77 -147 185
q-53 111 -53 239q0 118 46 220q46 103 126 178q78 74 191 118q110 43 241 43q45 0 90 -6q50 -7 86 -16l45 73h291l-113 -184q96 -78 150 -186q55 -110 55 -240q0 -118 -46 -220q-46 -103 -126 -178q-78 -73 -192 -118q-110 -43 -240 -43z" />
    <glyph glyph-name="ugrave" unicode="&#xf9;" horiz-adv-x="1204" 
d="M815 0v133q-46 -58 -132 -107q-90 -51 -204 -51q-158 0 -263 102t-105 277v670h290v-580q0 -116 58 -163q59 -48 139 -48q69 0 136 52t67 141v598h289v-1024h-275zM199 1473h350l166 -302h-242z" />
    <glyph glyph-name="uacute" unicode="&#xfa;" horiz-adv-x="1204" 
d="M815 0v133q-46 -58 -132 -107q-90 -51 -204 -51q-158 0 -263 102t-105 277v670h290v-580q0 -116 58 -163q59 -48 139 -48q69 0 136 52t67 141v598h289v-1024h-275zM989 1473l-274 -302h-234l162 302h346z" />
    <glyph glyph-name="ucircumflex" unicode="&#xfb;" horiz-adv-x="1204" 
d="M815 0v133q-46 -58 -132 -107q-90 -51 -204 -51q-158 0 -263 102t-105 277v670h290v-580q0 -116 58 -163q59 -48 139 -48q69 0 136 52t67 141v598h289v-1024h-275zM735 1171l-135 166l-135 -166h-258l244 302h299l245 -302h-260z" />
    <glyph glyph-name="udieresis" unicode="&#xfc;" horiz-adv-x="1204" 
d="M815 0v133q-46 -58 -132 -107q-90 -51 -204 -51q-158 0 -263 102t-105 277v670h290v-580q0 -116 58 -163q59 -48 139 -48q69 0 136 52t67 141v598h289v-1024h-275zM942 1399v-228h-258v228h258zM516 1399v-228h-258v228h258z" />
    <glyph glyph-name="yacute" unicode="&#xfd;" horiz-adv-x="1224" 
d="M649 -436h-301l148 403l-467 1057h327l285 -723l254 723h301zM1020 1473l-275 -302h-233l162 302h346z" />
    <glyph glyph-name="thorn" unicode="&#xfe;" horiz-adv-x="1368" 
d="M399 512q0 -122 85 -208q86 -87 210 -87q123 0 207 87t84 210q0 116 -84 205q-84 88 -207 88q-125 0 -210 -88t-85 -207zM788 -37q-118 0 -216 49q-100 50 -166 131v-579h-291v2033h291v-712q67 83 164 129q100 47 218 47q106 0 197 -42q93 -43 159 -116q66 -74 105 -175
q39 -102 39 -216t-39 -215t-105 -174q-65 -72 -159 -117q-90 -43 -197 -43z" />
    <glyph glyph-name="ydieresis" unicode="&#xff;" horiz-adv-x="1224" 
d="M649 -436h-301l148 403l-467 1057h327l285 -723l254 723h301zM971 1399v-228h-258v228h258zM545 1399v-228h-258v228h258z" />
    <glyph glyph-name="Amacron" unicode="&#x100;" horiz-adv-x="1570" 
d="M1014 504l-232 631l-233 -631h465zM1200 0l-92 252h-653l-95 -252h-329l598 1528h315l598 -1528h-342zM1100 1866v-213h-619v213h619z" />
    <glyph glyph-name="amacron" unicode="&#x101;" horiz-adv-x="1118" 
d="M543 133q75 0 125 48q49 48 49 118q0 67 -48 113q-49 47 -126 47q-78 0 -125 -47t-47 -113q0 -67 47 -117q46 -49 125 -49zM735 0v100q-45 -56 -125 -97q-77 -40 -182 -40q-160 0 -257 94t-97 236q0 139 100 235q102 97 272 97q88 0 155 -23q69 -23 114 -57v51
q0 126 -63 172q-64 47 -173 47q-50 0 -103 -7q-47 -6 -151 -26l-4 236q87 19 163 26q81 7 155 7q231 0 349 -105t118 -278v-668h-271zM860 1384v-213h-606v213h606z" />
    <glyph glyph-name="Abreve" unicode="&#x102;" horiz-adv-x="1570" 
d="M1014 504l-232 631l-233 -631h465zM1200 0l-92 252h-653l-95 -252h-329l598 1528h315l598 -1528h-342zM1137 1964q-27 -141 -117 -231q-91 -91 -229 -91q-139 0 -230 91q-90 90 -117 231l179 6q26 -74 73 -112q46 -37 95 -37t95 37q45 37 72 112z" />
    <glyph glyph-name="abreve" unicode="&#x103;" horiz-adv-x="1118" 
d="M543 133q75 0 125 48q49 48 49 118q0 67 -48 113q-49 47 -126 47q-78 0 -125 -47t-47 -113q0 -67 47 -117q46 -49 125 -49zM735 0v100q-45 -56 -125 -97q-77 -40 -182 -40q-160 0 -257 94t-97 236q0 139 100 235q102 97 272 97q88 0 155 -23q69 -23 114 -57v51
q0 126 -63 172q-64 47 -173 47q-50 0 -103 -7q-47 -6 -151 -26l-4 236q87 19 163 26q81 7 155 7q231 0 349 -105t118 -278v-668h-271zM903 1481q-27 -142 -117 -232t-229 -90t-229 90t-117 232l178 6q26 -75 74 -113q46 -37 94 -37q49 0 95 37t73 113z" />
    <glyph glyph-name="Aogonek" unicode="&#x104;" horiz-adv-x="1570" 
d="M1331 -383q-113 0 -165 52t-52 118q0 65 37 114q40 52 88 85l6 4l-41 -2l-96 264h-653l-95 -252h-329l598 1528h315l598 -1528l-121 -76q-42 -26 -59 -49q-16 -22 -16 -43q0 -23 17 -40t44 -17q23 0 42 9q20 9 34 19l82 -104q-36 -33 -92 -55q-64 -26 -142 -27zM1014 504
l-232 631l-233 -631h465z" />
    <glyph glyph-name="aogonek" unicode="&#x105;" horiz-adv-x="1118" 
d="M801 -367q-111 0 -161 50t-50 112q0 57 35 104q32 43 86 78l24 17v106q-45 -56 -125 -97q-77 -40 -182 -40q-160 0 -257 94t-97 236q0 139 100 235q102 97 272 97q88 0 155 -23q69 -23 114 -57v51q0 126 -63 172q-64 47 -173 47q-50 0 -103 -7q-47 -6 -151 -26l-4 236
q87 19 163 26q81 7 155 7q231 0 349 -105t118 -278v-668l-115 -76q-40 -27 -55 -47q-17 -22 -17 -41q0 -21 17 -36q16 -15 43 -15q19 0 40 8q16 6 29 19l80 -103q-29 -27 -89 -52q-59 -24 -138 -24zM543 133q75 0 125 48q49 48 49 118q0 67 -48 113q-49 47 -126 47
q-78 0 -125 -47t-47 -113q0 -67 47 -117q46 -49 125 -49z" />
    <glyph glyph-name="Cacute" unicode="&#x106;" horiz-adv-x="1359" 
d="M1253 1501v-307q-67 43 -148 64q-85 22 -169 22q-109 0 -209 -41q-95 -39 -170 -111q-72 -69 -114 -163q-42 -95 -42 -197q0 -105 42 -200q43 -96 114 -166q72 -70 170 -112q99 -42 209 -42q88 0 169 21q79 20 148 65v-309q-84 -38 -159 -54q-84 -18 -176 -18
q-182 0 -334 64q-155 65 -265 174t-174 259q-63 148 -63 316q0 166 63 314t174 258t265 173q155 64 334 64q90 0 176 -20q81 -19 159 -54zM1243 1954l-274 -301h-234l162 301h346z" />
    <glyph glyph-name="cacute" unicode="&#x107;" horiz-adv-x="1024" 
d="M926 272v-256q-37 -25 -114 -36q-75 -11 -130 -11q-129 0 -241 41q-110 40 -192 113t-128 172q-47 102 -47 217t47 217q46 99 128 172t192 113q112 41 241 41q54 0 128 -11t116 -36v-258h-8q-45 32 -106 46q-56 13 -118 13q-132 0 -223 -86q-90 -85 -90 -211t90 -212
q89 -85 223 -85q60 0 117 12q58 12 107 45h8zM1030 1473l-274 -302h-234l162 302h346z" />
    <glyph glyph-name="Ccircumflex" unicode="&#x108;" horiz-adv-x="1359" 
d="M1253 1501v-307q-67 43 -148 64q-85 22 -169 22q-109 0 -209 -41q-95 -39 -170 -111q-72 -69 -114 -163q-42 -95 -42 -197q0 -105 42 -200q43 -96 114 -166q72 -70 170 -112q99 -42 209 -42q88 0 169 21q79 20 148 65v-309q-84 -38 -159 -54q-84 -18 -176 -18
q-182 0 -334 64q-155 65 -265 174t-174 259q-63 148 -63 316q0 166 63 314t174 258t265 173q155 64 334 64q90 0 176 -20q81 -19 159 -54zM989 1653l-135 166l-135 -166h-258l244 301h299l245 -301h-260z" />
    <glyph glyph-name="ccircumflex" unicode="&#x109;" horiz-adv-x="1024" 
d="M926 272v-256q-37 -25 -114 -36q-75 -11 -130 -11q-129 0 -241 41q-110 40 -192 113t-128 172q-47 102 -47 217t47 217q46 99 128 172t192 113q112 41 241 41q54 0 128 -11t116 -36v-258h-8q-45 32 -106 46q-56 13 -118 13q-132 0 -223 -86q-90 -85 -90 -211t90 -212
q89 -85 223 -85q60 0 117 12q58 12 107 45h8zM776 1171l-135 166l-135 -166h-258l244 302h299l245 -302h-260z" />
    <glyph glyph-name="Cdotaccent" unicode="&#x10a;" horiz-adv-x="1359" 
d="M1253 1501v-307q-67 43 -148 64q-85 22 -169 22q-109 0 -209 -41q-95 -39 -170 -111q-72 -69 -114 -163q-42 -95 -42 -197q0 -105 42 -200q43 -96 114 -166q72 -70 170 -112q99 -42 209 -42q88 0 169 21q79 20 148 65v-309q-84 -38 -159 -54q-84 -18 -176 -18
q-182 0 -334 64q-155 65 -265 174t-174 259q-63 148 -63 316q0 166 63 314t174 258t265 173q155 64 334 64q90 0 176 -20q81 -19 159 -54zM1004 1882v-229h-295v229h295z" />
    <glyph glyph-name="cdotaccent" unicode="&#x10b;" horiz-adv-x="1024" 
d="M926 272v-256q-37 -25 -114 -36q-75 -11 -130 -11q-129 0 -241 41q-110 40 -192 113t-128 172q-47 102 -47 217t47 217q46 99 128 172t192 113q112 41 241 41q54 0 128 -11t116 -36v-258h-8q-45 32 -106 46q-56 13 -118 13q-132 0 -223 -86q-90 -85 -90 -211t90 -212
q89 -85 223 -85q60 0 117 12q58 12 107 45h8zM788 1425v-247h-294v247h294z" />
    <glyph glyph-name="Ccaron" unicode="&#x10c;" horiz-adv-x="1359" 
d="M1253 1501v-307q-67 43 -148 64q-85 22 -169 22q-109 0 -209 -41q-95 -39 -170 -111q-72 -69 -114 -163q-42 -95 -42 -197q0 -105 42 -200q43 -96 114 -166q72 -70 170 -112q99 -42 209 -42q88 0 169 21q79 20 148 65v-309q-84 -38 -159 -54q-84 -18 -176 -18
q-182 0 -334 64q-155 65 -265 174t-174 259q-63 148 -63 316q0 166 63 314t174 258t265 173q155 64 334 64q90 0 176 -20q81 -19 159 -54zM1006 1653h-299l-244 301h256l133 -166l135 166h264z" />
    <glyph glyph-name="ccaron" unicode="&#x10d;" horiz-adv-x="1024" 
d="M926 272v-256q-37 -25 -114 -36q-75 -11 -130 -11q-129 0 -241 41q-110 40 -192 113t-128 172q-47 102 -47 217t47 217q46 99 128 172t192 113q112 41 241 41q54 0 128 -11t116 -36v-258h-8q-45 32 -106 46q-56 13 -118 13q-132 0 -223 -86q-90 -85 -90 -211t90 -212
q89 -85 223 -85q60 0 117 12q58 12 107 45h8zM791 1171h-299l-244 302h256l133 -166l135 166h264z" />
    <glyph glyph-name="Dcaron" unicode="&#x10e;" horiz-adv-x="1462" 
d="M133 0v1528h438q157 0 301 -46t256 -140q113 -94 178 -237q66 -144 66 -339q0 -199 -65 -342q-66 -146 -177 -239t-254 -139q-142 -46 -301 -46h-442zM453 1241v-954h133q92 0 177 30q82 29 149 91t103 149q38 91 38 209q0 116 -38 206q-36 86 -103 148q-65 61 -149 90
q-88 31 -177 31h-133zM825 1653h-299l-243 301h256l133 -166l135 166h264z" />
    <glyph glyph-name="dcaron" unicode="&#x10f;" horiz-adv-x="1368" 
d="M969 512q0 120 -86 208q-85 87 -209 87q-123 0 -207 -86q-84 -85 -84 -209q0 -118 84 -207q84 -88 207 -88q124 0 209 88q86 89 86 207zM981 0v162q-69 -95 -169 -146q-104 -53 -232 -53q-108 0 -199 42q-93 42 -159 115q-67 73 -104 173q-38 102 -38 215t38 215
q37 99 104 175q66 75 159 119t199 44q116 0 216 -50q99 -50 167 -134v720h290v-1597h-272zM1608 1597l-117 -358h-166l37 358h246z" />
    <glyph glyph-name="Dcroat" unicode="&#x110;" horiz-adv-x="1482" 
d="M596 0h-440v655h-99v242h99v631h436q157 0 301 -46t256 -140q111 -93 177 -237q67 -146 67 -339q0 -196 -66 -342q-67 -147 -175 -239q-109 -92 -255 -139q-144 -46 -301 -46zM473 287h131q92 0 177 30q84 29 150 91q65 61 102 149q38 91 38 209q0 116 -38 206
q-37 88 -102 148t-150 90q-88 31 -177 31h-131v-344h238v-242h-238v-368z" />
    <glyph glyph-name="dcroat" unicode="&#x111;" horiz-adv-x="1368" 
d="M969 512q0 120 -86 208q-85 87 -209 87q-123 0 -207 -86q-84 -85 -84 -209q0 -118 84 -207q84 -88 207 -88q124 0 209 88q86 89 86 207zM981 0v162q-69 -95 -169 -146q-104 -53 -232 -53q-108 0 -199 42q-93 42 -159 115q-67 73 -104 173q-38 102 -38 215t38 215
q37 99 104 175q66 75 159 119t199 44q116 0 216 -50q99 -50 167 -134v313h-164v178h164v229h290v-229h95v-178h-95v-1190h-272z" />
    <glyph glyph-name="Emacron" unicode="&#x112;" horiz-adv-x="1120" 
d="M133 0v1528h854v-281h-534v-332h483v-258h-483v-376h551v-281h-871zM887 1866v-213h-619v213h619z" />
    <glyph glyph-name="emacron" unicode="&#x113;" horiz-adv-x="1271" 
d="M643 836q-96 0 -161 -56t-89 -155h500q-23 96 -90 154q-66 57 -160 57zM1190 129q-82 -76 -206 -127t-288 -51q-147 0 -261 43q-116 44 -195 118q-80 75 -123 177q-43 101 -43 223q0 120 42 224q43 105 117 178q76 75 182 117q105 42 232 42q116 0 218 -42
q101 -42 175 -117t117 -177q43 -101 43 -223v-78h-815q18 -123 101 -189q84 -67 216 -67q104 0 186 35q81 35 144 90zM950 1384v-213h-606v213h606z" />
    <glyph glyph-name="Ebreve" unicode="&#x114;" horiz-adv-x="1120" 
d="M133 0v1528h854v-281h-534v-332h483v-258h-483v-376h551v-281h-871zM924 1964q-27 -141 -117 -231q-91 -91 -229 -91q-139 0 -230 91q-90 90 -117 231l179 6q26 -74 73 -112q46 -37 95 -37t95 37q45 37 72 112z" />
    <glyph glyph-name="ebreve" unicode="&#x115;" horiz-adv-x="1271" 
d="M643 836q-96 0 -161 -56t-89 -155h500q-23 96 -90 154q-66 57 -160 57zM1190 129q-82 -76 -206 -127t-288 -51q-147 0 -261 43q-116 44 -195 118q-80 75 -123 177q-43 101 -43 223q0 120 42 224q43 105 117 178q76 75 182 117q105 42 232 42q116 0 218 -42
q101 -42 175 -117t117 -177q43 -101 43 -223v-78h-815q18 -123 101 -189q84 -67 216 -67q104 0 186 35q81 35 144 90zM993 1481q-27 -143 -116 -232q-90 -90 -230 -90q-139 0 -229 90t-117 232l178 6q26 -75 74 -113q46 -37 94 -37q49 0 95 37t73 113z" />
    <glyph glyph-name="Edotaccent" unicode="&#x116;" horiz-adv-x="1120" 
d="M133 0v1528h854v-281h-534v-332h483v-258h-483v-376h551v-281h-871zM725 1882v-229h-295v229h295z" />
    <glyph glyph-name="edotaccent" unicode="&#x117;" horiz-adv-x="1271" 
d="M643 836q-96 0 -161 -56t-89 -155h500q-23 96 -90 154q-66 57 -160 57zM1190 129q-82 -76 -206 -127t-288 -51q-147 0 -261 43q-116 44 -195 118q-80 75 -123 177q-43 101 -43 223q0 120 42 224q43 105 117 178q76 75 182 117q105 42 232 42q116 0 218 -42
q101 -42 175 -117t117 -177q43 -101 43 -223v-78h-815q18 -123 101 -189q84 -67 216 -67q104 0 186 35q81 35 144 90zM795 1425v-247h-295v247h295z" />
    <glyph glyph-name="Eogonek" unicode="&#x118;" horiz-adv-x="1120" 
d="M1026 -301q-35 -32 -91 -55q-62 -26 -140 -27q-116 0 -168 52q-54 54 -54 118q0 59 38 108q35 45 89 80l39 25h-606v1528h854v-281h-534v-332h483v-258h-483v-376h551v-281l-121 -76q-45 -30 -60 -49q-18 -23 -18 -43q0 -25 17 -41t46 -16q22 0 43 9q22 9 33 19z" />
    <glyph glyph-name="eogonek" unicode="&#x119;" horiz-adv-x="1271" 
d="M643 836q-96 0 -161 -56t-89 -155h500q-23 96 -90 154q-66 57 -160 57zM1200 -291q-33 -28 -92 -52q-60 -24 -137 -24q-109 0 -163 51q-52 49 -52 117q0 46 20 85q22 42 49 75q-22 -3 -63 -7q-33 -3 -66 -3q-147 0 -261 43q-116 44 -195 118q-80 75 -123 177
q-43 101 -43 223q0 120 42 224q43 105 117 178q76 75 182 117q105 42 232 42q116 0 218 -42q101 -42 175 -117t117 -177q43 -101 43 -223v-78h-815q18 -123 101 -189q84 -67 216 -67q104 0 186 35q81 35 144 90l158 -176l-4 -4l-4 -4l-125 -144q-34 -38 -52 -70
q-18 -31 -18 -59q0 -27 15 -45t47 -18q19 0 40 8q17 6 31 19z" />
    <glyph glyph-name="Ecaron" unicode="&#x11a;" horiz-adv-x="1120" 
d="M133 0v1528h854v-281h-534v-332h483v-258h-483v-376h551v-281h-871zM729 1653h-299l-244 301h256l133 -166l136 166h264z" />
    <glyph glyph-name="ecaron" unicode="&#x11b;" horiz-adv-x="1271" 
d="M643 836q-96 0 -161 -56t-89 -155h500q-23 96 -90 154q-66 57 -160 57zM1190 129q-82 -76 -206 -127t-288 -51q-147 0 -261 43q-116 44 -195 118q-80 75 -123 177q-43 101 -43 223q0 120 42 224q43 105 117 178q76 75 182 117q105 42 232 42q116 0 218 -42
q101 -42 175 -117t117 -177q43 -101 43 -223v-78h-815q18 -123 101 -189q84 -67 216 -67q104 0 186 35q81 35 144 90zM799 1171h-299l-244 302h256l133 -166l135 166h264z" />
    <glyph glyph-name="Gcircumflex" unicode="&#x11c;" horiz-adv-x="1781" 
d="M1702 766q0 -168 -61 -320q-60 -151 -164 -259q-106 -110 -246 -173q-141 -63 -303 -63q-180 0 -333 64q-154 64 -268 174q-114 109 -180 260q-65 148 -65 317q0 170 65 316q66 148 180 258q115 111 268 173q157 64 333 64q168 0 316 -59q151 -60 257 -156l-205 -225
q-76 69 -170 109q-93 40 -198 40q-110 0 -207 -41t-167 -111q-71 -72 -112 -166q-41 -96 -41 -202q0 -108 41 -204q41 -95 112 -166q69 -69 167 -112q96 -42 207 -42q160 0 281 103t159 257h-420l111 262h643v-98zM1061 1653l-135 166l-135 -166h-259l244 301h299l246 -301
h-260z" />
    <glyph glyph-name="gcircumflex" unicode="&#x11d;" horiz-adv-x="1323" 
d="M655 276q109 0 188 78t79 189q0 110 -79 189t-188 79q-111 0 -190 -79q-80 -80 -80 -189q0 -111 80 -189t190 -78zM621 -442q-88 0 -166 7q-90 8 -176 25v256q101 -23 179 -30q95 -9 154 -9q134 0 221 61q85 60 85 232v86q-65 -71 -157 -116q-87 -43 -186 -43
q-100 0 -186 36q-89 37 -159 104q-67 64 -110 163q-42 96 -42 213q0 119 42 216q43 99 110 165t159 104q89 37 186 37q101 0 194 -48q94 -48 161 -126v133h278v-241q0 -185 -1 -275t-1 -246v-151q0 -296 -146 -424q-147 -129 -439 -129zM784 1171l-135 166l-135 -166h-258
l244 302h299l245 -302h-260z" />
    <glyph glyph-name="Gbreve" unicode="&#x11e;" horiz-adv-x="1781" 
d="M1702 766q0 -168 -61 -320q-60 -151 -164 -259q-106 -110 -246 -173q-141 -63 -303 -63q-180 0 -333 64q-154 64 -268 174q-114 109 -180 260q-65 148 -65 317q0 170 65 316q66 148 180 258q115 111 268 173q157 64 333 64q168 0 316 -59q151 -60 257 -156l-205 -225
q-76 69 -170 109q-93 40 -198 40q-110 0 -207 -41t-167 -111q-71 -72 -112 -166q-41 -96 -41 -202q0 -108 41 -204q41 -95 112 -166q69 -69 167 -112q96 -42 207 -42q160 0 281 103t159 257h-420l111 262h643v-98zM1272 1964q-27 -141 -117 -231q-91 -91 -229 -91
q-139 0 -230 91q-89 89 -116 231l178 6q26 -74 73 -112q46 -37 95 -37t95 37q47 38 73 112z" />
    <glyph glyph-name="gbreve" unicode="&#x11f;" horiz-adv-x="1323" 
d="M655 276q109 0 188 78t79 189q0 110 -79 189t-188 79q-111 0 -190 -79q-80 -80 -80 -189q0 -111 80 -189t190 -78zM621 -442q-88 0 -166 7q-90 8 -176 25v256q101 -23 179 -30q95 -9 154 -9q134 0 221 61q85 60 85 232v86q-65 -71 -157 -116q-87 -43 -186 -43
q-100 0 -186 36q-89 37 -159 104q-67 64 -110 163q-42 96 -42 213q0 119 42 216q43 99 110 165t159 104q89 37 186 37q101 0 194 -48q94 -48 161 -126v133h278v-241q0 -185 -1 -275t-1 -246v-151q0 -296 -146 -424q-147 -129 -439 -129zM995 1481q-27 -143 -116 -232
q-90 -90 -230 -90q-139 0 -229 90t-117 232l178 6q26 -75 74 -113q46 -37 94 -37q49 0 95 37t73 113z" />
    <glyph glyph-name="Gdotaccent" unicode="&#x120;" horiz-adv-x="1781" 
d="M1702 766q0 -168 -61 -320q-60 -151 -164 -259q-106 -110 -246 -173q-141 -63 -303 -63q-180 0 -333 64q-154 64 -268 174q-114 109 -180 260q-65 148 -65 317q0 170 65 316q66 148 180 258q115 111 268 173q157 64 333 64q168 0 316 -59q151 -60 257 -156l-205 -225
q-76 69 -170 109q-93 40 -198 40q-110 0 -207 -41t-167 -111q-71 -72 -112 -166q-41 -96 -41 -202q0 -108 41 -204q41 -95 112 -166q69 -69 167 -112q96 -42 207 -42q160 0 281 103t159 257h-420l111 262h643v-98zM1073 1882v-229h-295v229h295z" />
    <glyph glyph-name="gdotaccent" unicode="&#x121;" horiz-adv-x="1323" 
d="M655 276q109 0 188 78t79 189q0 110 -79 189t-188 79q-111 0 -190 -79q-80 -80 -80 -189q0 -111 80 -189t190 -78zM621 -442q-88 0 -166 7q-90 8 -176 25v256q101 -23 179 -30q95 -9 154 -9q134 0 221 61q85 60 85 232v86q-65 -71 -157 -116q-87 -43 -186 -43
q-100 0 -186 36q-89 37 -159 104q-67 64 -110 163q-42 96 -42 213q0 119 42 216q43 99 110 165t159 104q89 37 186 37q101 0 194 -48q94 -48 161 -126v133h278v-241q0 -185 -1 -275t-1 -246v-151q0 -296 -146 -424q-147 -129 -439 -129zM797 1425v-247h-295v247h295z" />
    <glyph glyph-name="Gcommaaccent" unicode="&#x122;" horiz-adv-x="1781" 
d="M1702 766q0 -168 -61 -320q-60 -151 -164 -259q-106 -110 -246 -173q-141 -63 -303 -63q-180 0 -333 64q-154 64 -268 174q-114 109 -180 260q-65 148 -65 317q0 170 65 316q66 148 180 258q115 111 268 173q157 64 333 64q168 0 316 -59q151 -60 257 -156l-205 -225
q-76 69 -170 109q-93 40 -198 40q-110 0 -207 -41t-167 -111q-71 -72 -112 -166q-41 -96 -41 -202q0 -108 41 -204q41 -95 112 -166q69 -69 167 -112q96 -42 207 -42q160 0 281 103t159 257h-420l111 262h643v-98zM1069 -145l-143 -359h-211l61 359h293z" />
    <glyph glyph-name="gcommaaccent" unicode="&#x123;" horiz-adv-x="1323" 
d="M655 276q109 0 188 78t79 189q0 110 -79 189t-188 79q-111 0 -190 -79q-80 -80 -80 -189q0 -111 80 -189t190 -78zM621 -442q-88 0 -166 7q-90 8 -176 25v256q101 -23 179 -30q95 -9 154 -9q134 0 221 61q85 60 85 232v86q-65 -71 -157 -116q-87 -43 -186 -43
q-100 0 -186 36q-89 37 -159 104q-67 64 -110 163q-42 96 -42 213q0 119 42 216q43 99 110 165t159 104q89 37 186 37q101 0 194 -48q94 -48 161 -126v133h278v-241q0 -185 -1 -275t-1 -246v-151q0 -296 -146 -424q-147 -129 -439 -129z" />
    <glyph glyph-name="Hcircumflex" unicode="&#x124;" horiz-adv-x="1478" 
d="M133 0v1528h320v-572h573v572h320v-1528h-320v672h-573v-672h-320zM874 1653l-135 166l-135 -166h-258l244 301h299l246 -301h-261z" />
    <glyph glyph-name="hcircumflex" unicode="&#x125;" horiz-adv-x="1204" 
d="M406 596v-596h-291v1597h282v-704q45 57 130 106q86 50 202 50q154 0 260 -103q105 -102 105 -276v-670h-291v580q0 113 -58 162t-137 49q-69 0 -136 -52q-66 -51 -66 -143zM391 1720l-135 166l-135 -166h-258l243 301h300l245 -301h-260z" />
    <glyph glyph-name="Hbar" unicode="&#x126;" horiz-adv-x="1521" 
d="M463 956h596v168h-596v-168zM463 672v-672h-318v1124h-96v215h96v189h318v-189h596v189h315v-189h99v-215h-99v-1124h-315v672h-596z" />
    <glyph glyph-name="hbar" unicode="&#x127;" horiz-adv-x="1200" 
d="M406 596v-596h-291v1190h-92v178h92v229h282v-229h174v-178h-174v-297q45 57 130 106q86 50 202 50q154 0 260 -103q105 -102 105 -276v-670h-291v580q0 113 -58 162t-137 49q-69 0 -136 -52q-66 -51 -66 -143z" />
    <glyph glyph-name="Itilde" unicode="&#x128;" horiz-adv-x="587" 
d="M135 0v1528h318v-1528h-318zM61 1653l-223 6q-12 185 65 257q78 73 187 73q50 0 99 -18q71 -26 98 -38q17 -8 46.5 -20.5t41.5 -17.5q38 -17 69 -17q35 0 59 20q25 20 23 84l222 -6q10 -156 -57 -237q-66 -80 -189 -80q-54 0 -103 16q-57 18 -98 37q-26 12 -88 37
q-39 16 -70 16q-32 0 -59 -21q-28 -21 -23 -91z" />
    <glyph glyph-name="itilde" unicode="&#x129;" horiz-adv-x="526" 
d="M408 1024v-1024h-289v1024h289zM55 1169l-217 9q-10 177 61 248t175 71q47 0 92 -16q49 -17 89 -36q42 -19 78 -36q35 -16 62 -16q34 0 55 18t21 78l217 -6q8 -153 -53 -230t-178 -77q-49 0 -95 15q-36 11 -90 34q-10 4 -37.5 15.5t-41.5 17.5q-40 16 -64 16
q-28 0 -52 -21t-22 -84z" />
    <glyph glyph-name="Imacron" unicode="&#x12a;" horiz-adv-x="587" 
d="M135 0v1528h318v-1528h-318zM604 1866v-213h-618v213h618z" />
    <glyph glyph-name="imacron" unicode="&#x12b;" horiz-adv-x="526" 
d="M408 1024v-1024h-289v1024h289zM567 1384v-213h-606v213h606z" />
    <glyph glyph-name="Ibreve" unicode="&#x12c;" horiz-adv-x="587" 
d="M135 0v1528h318v-1528h-318zM641 1964q-27 -141 -117 -231q-91 -91 -229 -91t-229 91q-90 90 -117 231l178 6q26 -73 74 -112q46 -37 94 -37q49 0 95 37q47 38 73 112z" />
    <glyph glyph-name="ibreve" unicode="&#x12d;" horiz-adv-x="526" 
d="M408 1024v-1024h-289v1024h289zM610 1481q-27 -143 -116 -232q-90 -90 -230 -90q-139 0 -229 90t-117 232l178 6q26 -75 74 -113q46 -37 94 -37q49 0 95 37t73 113z" />
    <glyph glyph-name="Iogonek" unicode="&#x12e;" horiz-adv-x="587" 
d="M244 -383q-114 0 -167 53q-52 52 -52 121q0 62 31 108q29 43 79 83v1546h318v-1528l-119 -76q-45 -30 -60 -49q-18 -23 -18 -43q0 -23 17 -40t46 -17q23 0 42 9q20 9 34 19l82 -104q-36 -33 -92 -55q-64 -26 -141 -27z" />
    <glyph glyph-name="iogonek" unicode="&#x12f;" horiz-adv-x="526" 
d="M414 1423v-247h-297v247h297zM205 -367q-111 0 -161 50t-50 112q0 59 37 109q38 52 86 84l12 8h-10v1028h291v-1024l-113 -76q-39 -27 -56 -47q-18 -21 -18 -41q0 -21 17 -36q16 -15 43 -15q22 0 41 8q15 6 28 19l80 -103q-28 -28 -88 -52t-139 -24z" />
    <glyph glyph-name="Idotaccent" unicode="&#x130;" horiz-adv-x="587" 
d="M135 0v1528h318v-1528h-318zM442 1882v-229h-295v229h295z" />
    <glyph glyph-name="dotlessi" unicode="&#x131;" horiz-adv-x="526" 
d="M408 1024v-1024h-289v1024h289z" />
    <glyph glyph-name="IJ" unicode="&#x132;" horiz-adv-x="1413" 
d="M135 0v1528h318v-1528h-318zM639 0v297q38 -21 76 -30q39 -9 76 -9q76 0 122 61q48 63 48 240v969h317v-1077q0 -237 -100 -361q-101 -125 -344 -125q-57 0 -103 7q-50 8 -92 28z" />
    <glyph glyph-name="ij" unicode="&#x133;" horiz-adv-x="1054" 
d="M414 1423v-247h-297v247h297zM410 1024v-1024h-291v1024h291zM940 1423v-247h-297v247h297zM461 -193h33q71 0 111 37t40 123v1057h291v-1061q0 -231 -107 -321q-108 -91 -340 -91h-28v256z" />
    <glyph glyph-name="Jcircumflex" unicode="&#x134;" horiz-adv-x="825" 
d="M51 0v297q38 -21 76 -30q39 -9 76 -9q77 0 123 61q47 62 47 240v969h317v-1077q0 -237 -100 -361q-101 -125 -344 -125q-57 0 -103 7q-50 8 -92 28zM666 1653l-136 166l-135 -166h-258l244 301h299l246 -301h-260z" />
    <glyph glyph-name="jcircumflex" unicode="&#x135;" horiz-adv-x="518" 
d="M-51 -199h28q60 0 99 46q39 47 39 128v1049h288v-1055q0 -217 -108 -317q-109 -101 -320 -101h-26v250zM399 1171l-135 166l-135 -166h-258l244 302h299l245 -302h-260z" />
    <glyph glyph-name="Kcommaaccent" unicode="&#x136;" horiz-adv-x="1470" 
d="M1038 0l-463 641l-122 -145v-496h-320v1528h320v-604l505 604h390l-555 -647l637 -881h-392zM870 -115l-143 -358h-211l62 358h292z" />
    <glyph glyph-name="kcommaaccent" unicode="&#x137;" horiz-adv-x="1175" 
d="M782 0l-278 432l-98 -108v-324h-291v1597h291v-921l337 348h363l-387 -403l414 -621h-351zM760 -115l-144 -358h-210l61 358h293z" />
    <glyph glyph-name="kgreenlandic" unicode="&#x138;" horiz-adv-x="1175" 
d="M782 0l-278 432l-98 -108v-324h-291v1024h291v-348l337 348h363l-387 -403l414 -621h-351z" />
    <glyph glyph-name="Lacute" unicode="&#x139;" horiz-adv-x="1044" 
d="M133 1528h320v-1241h528v-287h-848v1528zM678 1954l-275 -301h-233l162 301h346z" />
    <glyph glyph-name="lacute" unicode="&#x13a;" horiz-adv-x="526" 
d="M410 1597v-1597h-291v1597h291zM653 2021l-274 -301h-234l162 301h346z" />
    <glyph glyph-name="Lcommaaccent" unicode="&#x13b;" horiz-adv-x="1044" 
d="M133 1528h320v-1241h528v-287h-848v1528zM752 -115l-144 -358h-211l62 358h293z" />
    <glyph glyph-name="lcommaaccent" unicode="&#x13c;" horiz-adv-x="526" 
d="M410 1597v-1597h-291v1597h291zM410 -117l-144 -358h-211l62 358h293z" />
    <glyph glyph-name="Lcaron" unicode="&#x13d;" horiz-adv-x="1044" 
d="M133 1528h320v-1241h528v-287h-848v1528zM920 1597l-117 -358h-166l37 358h246z" />
    <glyph glyph-name="lcaron" unicode="&#x13e;" horiz-adv-x="526" 
d="M410 1597v-1597h-291v1597h291zM766 1597l-117 -358h-166l37 358h246z" />
    <glyph glyph-name="Ldot" unicode="&#x13f;" horiz-adv-x="1044" 
d="M133 1528h320v-1241h528v-287h-848v1528zM891 954v-229h-295v229h295z" />
    <glyph glyph-name="ldot" unicode="&#x140;" horiz-adv-x="731" 
d="M410 1597v-1597h-291v1597h291zM741 969v-248h-295v248h295z" />
    <glyph glyph-name="Lslash" unicode="&#x141;" horiz-adv-x="1056" 
d="M981 0h-848v592l-90 -43l-2 237l92 45v697h320v-543l344 166v-240l-344 -166v-458h528v-287z" />
    <glyph glyph-name="lslash" unicode="&#x142;" horiz-adv-x="563" 
d="M430 0h-291v690l-102 -55v215l102 55v692h291v-536l105 55v-217l-105 -55v-844z" />
    <glyph glyph-name="Nacute" unicode="&#x143;" horiz-adv-x="1609" 
d="M1171 0l-718 993v-993h-320v1528h311l715 -989v989h318v-1528h-306zM1169 1954l-274 -301h-233l161 301h346z" />
    <glyph glyph-name="nacute" unicode="&#x144;" horiz-adv-x="1204" 
d="M406 598v-598h-291v1024h276v-131q44 56 132 106t206 50q155 0 260 -102t105 -277v-670h-291v580q0 116 -58 163q-59 48 -137 48q-69 0 -136 -52q-66 -51 -66 -141zM985 1473l-274 -302h-234l162 302h346z" />
    <glyph glyph-name="Ncommaaccent" unicode="&#x145;" horiz-adv-x="1609" 
d="M1171 0l-718 993v-993h-320v1528h311l715 -989v989h318v-1528h-306zM928 -115l-144 -358h-211l62 358h293z" />
    <glyph glyph-name="ncommaaccent" unicode="&#x146;" horiz-adv-x="1204" 
d="M406 598v-598h-291v1024h276v-131q44 56 132 106t206 50q155 0 260 -102t105 -277v-670h-291v580q0 116 -58 163q-59 48 -137 48q-69 0 -136 -52q-66 -51 -66 -141zM752 -115l-144 -358h-211l62 358h293z" />
    <glyph glyph-name="Ncaron" unicode="&#x147;" horiz-adv-x="1609" 
d="M1171 0l-718 993v-993h-320v1528h311l715 -989v989h318v-1528h-306zM930 1653h-299l-244 301h256l133 -166l135 166h265z" />
    <glyph glyph-name="ncaron" unicode="&#x148;" horiz-adv-x="1204" 
d="M406 598v-598h-291v1024h276v-131q44 56 132 106t206 50q155 0 260 -102t105 -277v-670h-291v580q0 116 -58 163q-59 48 -137 48q-69 0 -136 -52q-66 -51 -66 -141zM745 1171h-299l-243 302h256l133 -166l135 166h264z" />
    <glyph glyph-name="Eng" unicode="&#x14a;" horiz-adv-x="1609" 
d="M1006 -469h-43v256h38q77 0 123 56q47 58 47 155l-718 995v-993h-320v1528h311l715 -989v989h318v-1526q0 -243 -121 -357q-122 -114 -350 -114z" />
    <glyph glyph-name="eng" unicode="&#x14b;" horiz-adv-x="1204" 
d="M664 -449h-27v250h29q59 0 98 44q39 43 39 126v609q0 116 -58 163q-59 48 -137 48q-69 0 -136 -52q-66 -51 -66 -141v-598h-291v1024h276v-131q44 56 132 106t206 50q155 0 260 -102t105 -277v-701q0 -216 -109 -317t-321 -101z" />
    <glyph glyph-name="Omacron" unicode="&#x14c;" horiz-adv-x="1851" 
d="M928 1577q171 0 328 -64q154 -63 269 -173q112 -108 179 -258q65 -146 65 -316q0 -169 -65 -317q-67 -153 -179 -260q-114 -109 -269 -174q-153 -64 -328 -64q-180 0 -333 64q-154 64 -268 174q-114 109 -180 260q-65 148 -65 317q0 170 65 316q66 148 180 258
q115 111 268 173q157 64 333 64zM928 1286q-110 0 -207 -41t-167 -111q-71 -72 -112 -166q-41 -96 -41 -202t41 -203q40 -95 112 -167q69 -69 167 -112q96 -42 207 -42q110 0 204 42q95 42 165 112q72 72 112 167q41 97 41 203t-41 202q-41 94 -112 166q-71 70 -165 111
q-96 41 -204 41zM1235 1866v-213h-619v213h619z" />
    <glyph glyph-name="omacron" unicode="&#x14d;" horiz-adv-x="1349" 
d="M674 1073q127 0 239 -44q111 -43 191 -119q80 -75 126 -178q46 -102 46 -220t-46 -220q-46 -103 -126 -178q-80 -76 -191 -119q-112 -44 -239 -44q-126 0 -238 44q-109 43 -190 119q-80 75 -126 178q-46 102 -46 220t46 220q46 103 126 178q81 76 190 119q112 44 238 44z
M674 821q-127 0 -211 -91q-84 -92 -84 -218q0 -129 84 -219t211 -90q126 0 212 90q85 89 85 219q0 127 -85 218t-212 91zM977 1384v-213h-606v213h606z" />
    <glyph glyph-name="Obreve" unicode="&#x14e;" horiz-adv-x="1851" 
d="M928 1577q171 0 328 -64q154 -63 269 -173q112 -108 179 -258q65 -146 65 -316q0 -169 -65 -317q-67 -153 -179 -260q-114 -109 -269 -174q-153 -64 -328 -64q-180 0 -333 64q-154 64 -268 174q-114 109 -180 260q-65 148 -65 317q0 170 65 316q66 148 180 258
q115 111 268 173q157 64 333 64zM928 1286q-110 0 -207 -41t-167 -111q-71 -72 -112 -166q-41 -96 -41 -202t41 -203q40 -95 112 -167q69 -69 167 -112q96 -42 207 -42q110 0 204 42q95 42 165 112q72 72 112 167q41 97 41 203t-41 202q-41 94 -112 166q-71 70 -165 111
q-96 41 -204 41zM1272 1964q-27 -141 -117 -231q-91 -91 -229 -91q-139 0 -230 91q-89 89 -116 231l178 6q26 -74 73 -112q46 -37 95 -37t95 37q47 38 73 112z" />
    <glyph glyph-name="obreve" unicode="&#x14f;" horiz-adv-x="1349" 
d="M674 1073q127 0 239 -44q111 -43 191 -119q80 -75 126 -178q46 -102 46 -220t-46 -220q-46 -103 -126 -178q-80 -76 -191 -119q-112 -44 -239 -44q-126 0 -238 44q-109 43 -190 119q-80 75 -126 178q-46 102 -46 220t46 220q46 103 126 178q81 76 190 119q112 44 238 44z
M674 821q-127 0 -211 -91q-84 -92 -84 -218q0 -129 84 -219t211 -90q126 0 212 90q85 89 85 219q0 127 -85 218t-212 91zM1020 1481q-27 -142 -117 -232t-229 -90q-140 0 -230 90q-89 89 -116 232l178 6q26 -75 74 -113q46 -37 94 -37q49 0 95 37t73 113z" />
    <glyph glyph-name="Ohungarumlaut" unicode="&#x150;" horiz-adv-x="1851" 
d="M928 1577q171 0 328 -64q154 -63 269 -173q112 -108 179 -258q65 -146 65 -316q0 -169 -65 -317q-67 -153 -179 -260q-114 -109 -269 -174q-153 -64 -328 -64q-180 0 -333 64q-154 64 -268 174q-114 109 -180 260q-65 148 -65 317q0 170 65 316q66 148 180 258
q115 111 268 173q157 64 333 64zM928 1286q-110 0 -207 -41t-167 -111q-71 -72 -112 -166q-41 -96 -41 -202t41 -203q40 -95 112 -167q69 -69 167 -112q96 -42 207 -42q110 0 204 42q95 42 165 112q72 72 112 167q41 97 41 203t-41 202q-41 94 -112 166q-71 70 -165 111
q-96 41 -204 41zM1194 1954h309l-272 -301h-213zM770 1954h309l-272 -301h-217z" />
    <glyph glyph-name="ohungarumlaut" unicode="&#x151;" horiz-adv-x="1349" 
d="M674 1073q127 0 239 -44q111 -43 191 -119q80 -75 126 -178q46 -102 46 -220t-46 -220q-46 -103 -126 -178q-80 -76 -191 -119q-112 -44 -239 -44q-126 0 -238 44q-109 43 -190 119q-80 75 -126 178q-46 102 -46 220t46 220q46 103 126 178q81 76 190 119q112 44 238 44z
M674 821q-127 0 -211 -91q-84 -92 -84 -218q0 -129 84 -219t211 -90q126 0 212 90q85 89 85 219q0 127 -85 218t-212 91zM936 1473h309l-272 -302h-213zM524 1473h310l-273 -302h-217z" />
    <glyph glyph-name="OE" unicode="&#x152;" horiz-adv-x="2056" 
d="M946 287h123v954h-123q-102 0 -201 -31q-96 -30 -171 -90t-118 -148q-44 -90 -44 -206q0 -118 44 -209q43 -89 118 -149q77 -62 171 -91q96 -30 201 -30zM958 0q-171 0 -327 46q-160 47 -277 139t-190 239q-72 146 -72 342q0 193 73 339q72 145 193 237q122 94 278 140
q154 46 325 46h950v-281h-535v-332h492v-258h-492v-376h551v-281h-969z" />
    <glyph glyph-name="oe" unicode="&#x153;" horiz-adv-x="2166" 
d="M1540 836q-98 0 -163 -56t-89 -155h500q-23 96 -89 154q-65 57 -159 57zM674 821q-127 0 -211 -91q-84 -92 -84 -218q0 -129 84 -219t211 -90q129 0 213 91q84 92 84 218q0 127 -85 218t-212 91zM2087 129q-84 -73 -207 -126q-122 -52 -289 -52q-154 0 -274 49
q-121 49 -199 135q-80 -84 -194 -134q-115 -50 -250 -50q-126 0 -238 44q-109 43 -190 119q-80 75 -126 178q-46 102 -46 220t46 220q46 103 126 178q81 76 190 119q112 44 238 44q134 0 247 -49q114 -49 193 -133q74 86 183 134t245 48q116 0 218 -42q100 -41 176 -117
q74 -74 118 -177q43 -101 43 -223v-78h-817q18 -123 102 -189q85 -67 217 -67q104 0 185 35q80 35 143 90z" />
    <glyph glyph-name="Racute" unicode="&#x154;" horiz-adv-x="1327" 
d="M553 1243h-100v-446h100q117 0 185 61q69 62 69 168q0 100 -68 159q-67 58 -186 58zM889 0l-416 543h-20v-543h-320v1528h412q113 0 220 -26q105 -26 184 -85q80 -60 126 -154q47 -96 47 -233q0 -160 -90 -268q-91 -109 -219 -164l459 -598h-383zM985 1954l-274 -301
h-234l162 301h346z" />
    <glyph glyph-name="racute" unicode="&#x155;" horiz-adv-x="792" 
d="M406 522v-522h-291v1024h278v-217q20 39 41 69q28 39 64 72q39 36 85 59t103 23h35v-323q-7 4 -25 6q-22 2 -28 2q-57 0 -109 -19q-47 -17 -83 -47q-35 -29 -52 -62q-18 -35 -18 -65zM854 1473l-274 -302h-234l162 302h346z" />
    <glyph glyph-name="Rcommaaccent" unicode="&#x156;" horiz-adv-x="1327" 
d="M553 1243h-100v-446h100q117 0 185 61q69 62 69 168q0 100 -68 159q-67 58 -186 58zM889 0l-416 543h-20v-543h-320v1528h412q113 0 220 -26q105 -26 184 -85q80 -60 126 -154q47 -96 47 -233q0 -160 -90 -268q-91 -109 -219 -164l459 -598h-383zM795 -115l-144 -358
h-211l62 358h293z" />
    <glyph glyph-name="rcommaaccent" unicode="&#x157;" horiz-adv-x="792" 
d="M406 522v-522h-291v1024h278v-217q20 39 41 69q28 39 64 72q39 36 85 59t103 23h35v-323q-7 4 -25 6q-22 2 -28 2q-57 0 -109 -19q-47 -17 -83 -47q-35 -29 -52 -62q-18 -35 -18 -65zM406 -115l-144 -358h-211l62 358h293z" />
    <glyph glyph-name="Rcaron" unicode="&#x158;" horiz-adv-x="1327" 
d="M553 1243h-100v-446h100q117 0 185 61q69 62 69 168q0 100 -68 159q-67 58 -186 58zM889 0l-416 543h-20v-543h-320v1528h412q113 0 220 -26q105 -26 184 -85q80 -60 126 -154q47 -96 47 -233q0 -160 -90 -268q-91 -109 -219 -164l459 -598h-383zM745 1653h-299l-243 301
h256l133 -166l135 166h264z" />
    <glyph glyph-name="rcaron" unicode="&#x159;" horiz-adv-x="792" 
d="M406 522v-522h-291v1024h278v-217q20 39 41 69q28 39 64 72q39 36 85 59t103 23h35v-323q-7 4 -25 6q-22 2 -28 2q-57 0 -109 -19q-47 -17 -83 -47q-35 -29 -52 -62q-18 -35 -18 -65zM616 1171h-299l-243 302h256l133 -166l135 166h264z" />
    <glyph glyph-name="Sacute" unicode="&#x15a;" horiz-adv-x="1079" 
d="M915 1511l-4 -278q-54 26 -131 46q-75 19 -147 19q-107 0 -152 -36q-47 -38 -47 -86q0 -62 58 -120q45 -45 170 -155q186 -159 261 -273q74 -112 74 -231q0 -97 -41 -177q-40 -79 -112 -133q-74 -55 -170 -83q-101 -29 -211 -29q-26 0 -94 6q-39 3 -100 13q-53 8 -93 19
q-48 13 -76 24l4 282q66 -32 166 -58q97 -25 195 -25q100 0 156 47q55 46 55 106q0 63 -59 130q-63 71 -181 169q-83 72 -154 138q-65 60 -104 116t-57 111q-19 59 -19 121q0 72 31 143t93 123q64 54 160 86q97 33 230 33q72 0 153 -12q79 -12 146 -36zM989 1954l-274 -301
h-234l162 301h346z" />
    <glyph glyph-name="sacute" unicode="&#x15b;" horiz-adv-x="892" 
d="M473 1057q73 0 130 -10q60 -11 108 -29v-244q-59 26 -117 40q-53 13 -92 13q-53 0 -81 -17q-30 -18 -30 -50q0 -27 34 -55q39 -32 103 -74q171 -113 230 -192q59 -78 59 -169q0 -130 -103 -215q-105 -87 -292 -88q-71 0 -160 19q-83 18 -145 45v243q75 -37 146 -55
t116 -18q67 -2 95 21q30 24 30 57q0 25 -30 59q-31 36 -138 104q-155 102 -202 172q-48 72 -48 160q0 52 22 105q20 50 68 91q43 38 121 63q74 24 176 24zM850 1473l-275 -302h-233l162 302h346z" />
    <glyph glyph-name="Scircumflex" unicode="&#x15c;" horiz-adv-x="1079" 
d="M915 1511l-4 -278q-54 26 -131 46q-75 19 -147 19q-107 0 -152 -36q-47 -38 -47 -86q0 -62 58 -120q45 -45 170 -155q186 -159 261 -273q74 -112 74 -231q0 -97 -41 -177q-40 -79 -112 -133q-74 -55 -170 -83q-101 -29 -211 -29q-26 0 -94 6q-39 3 -100 13q-53 8 -93 19
q-48 13 -76 24l4 282q66 -32 166 -58q97 -25 195 -25q100 0 156 47q55 46 55 106q0 63 -59 130q-63 71 -181 169q-83 72 -154 138q-65 60 -104 116t-57 111q-19 59 -19 121q0 72 31 143t93 123q64 54 160 86q97 33 230 33q72 0 153 -12q79 -12 146 -36zM735 1653l-135 166
l-135 -166h-258l244 301h299l245 -301h-260z" />
    <glyph glyph-name="scircumflex" unicode="&#x15d;" horiz-adv-x="892" 
d="M473 1057q73 0 130 -10q60 -11 108 -29v-244q-59 26 -117 40q-53 13 -92 13q-53 0 -81 -17q-30 -18 -30 -50q0 -27 34 -55q39 -32 103 -74q171 -113 230 -192q59 -78 59 -169q0 -130 -103 -215q-105 -87 -292 -88q-71 0 -160 19q-83 18 -145 45v243q75 -37 146 -55
t116 -18q67 -2 95 21q30 24 30 57q0 25 -30 59q-31 36 -138 104q-155 102 -202 172q-48 72 -48 160q0 52 22 105q20 50 68 91q43 38 121 63q74 24 176 24zM598 1171l-135 166l-135 -166h-258l243 302h299l246 -302h-260z" />
    <glyph glyph-name="Scedilla" unicode="&#x15e;" horiz-adv-x="1079" 
d="M915 1511l-4 -278q-54 26 -131 46q-75 19 -147 19q-107 0 -152 -36q-47 -38 -47 -86q0 -62 58 -120q45 -45 170 -155q186 -159 261 -273q74 -112 74 -231q0 -97 -41 -177q-40 -79 -112 -133q-74 -55 -170 -83q-101 -29 -211 -29q-26 0 -94 6q-39 3 -100 13q-53 8 -93 19
q-48 13 -76 24l4 282q66 -32 166 -58q97 -25 195 -25q100 0 156 47q55 46 55 106q0 63 -59 130q-63 71 -181 169q-83 72 -154 138q-65 60 -104 116t-57 111q-19 59 -19 121q0 72 31 143t93 123q64 54 160 86q97 33 230 33q72 0 153 -12q79 -12 146 -36zM430 -442
q-33 0 -78 6q-50 7 -86 20v125h2q39 -12 80 -18q40 -6 62 -6q53 0 81 17q29 17 29 48q0 29 -39 47q-41 19 -100 19h-37l-6 14l57 168h131l-32 -82q97 -12 149 -58q53 -47 53 -118q0 -77 -73 -129q-74 -53 -193 -53z" />
    <glyph glyph-name="scedilla" unicode="&#x15f;" horiz-adv-x="892" 
d="M473 1057q73 0 130 -10q60 -11 108 -29v-244q-59 26 -117 40q-53 13 -92 13q-53 0 -81 -17q-30 -18 -30 -50q0 -27 34 -55q39 -32 103 -74q171 -113 230 -192q59 -78 59 -169q0 -130 -103 -215q-105 -87 -292 -88q-71 0 -160 19q-83 18 -145 45v243q75 -37 146 -55
t116 -18q67 -2 95 21q30 24 30 57q0 25 -30 59q-31 36 -138 104q-155 102 -202 172q-48 72 -48 160q0 52 22 105q20 50 68 91q43 38 121 63q74 24 176 24zM385 -432q-34 0 -76 7q-47 8 -84 22v120h2q35 -9 78 -16q39 -6 60 -6q46 0 72 16q28 17 28 45q0 26 -36 44t-93 18
h-37l-4 14l57 164l125 -6l-31 -72q93 -12 145 -57t52 -113q0 -78 -71 -129q-70 -51 -187 -51z" />
    <glyph glyph-name="Scaron" unicode="&#x160;" horiz-adv-x="1079" 
d="M915 1511l-4 -278q-54 26 -131 46q-75 19 -147 19q-107 0 -152 -36q-47 -38 -47 -86q0 -62 58 -120q45 -45 170 -155q186 -159 261 -273q74 -112 74 -231q0 -97 -41 -177q-40 -79 -112 -133q-74 -55 -170 -83q-101 -29 -211 -29q-26 0 -94 6q-39 3 -100 13q-53 8 -93 19
q-48 13 -76 24l4 282q66 -32 166 -58q97 -25 195 -25q100 0 156 47q55 46 55 106q0 63 -59 130q-63 71 -181 169q-83 72 -154 138q-65 60 -104 116t-57 111q-19 59 -19 121q0 72 31 143t93 123q64 54 160 86q97 33 230 33q72 0 153 -12q79 -12 146 -36zM752 1653h-299
l-244 301h256l133 -166l135 166h264z" />
    <glyph glyph-name="scaron" unicode="&#x161;" horiz-adv-x="892" 
d="M473 1057q73 0 130 -10q60 -11 108 -29v-244q-59 26 -117 40q-53 13 -92 13q-53 0 -81 -17q-30 -18 -30 -50q0 -27 34 -55q39 -32 103 -74q171 -113 230 -192q59 -78 59 -169q0 -130 -103 -215q-105 -87 -292 -88q-71 0 -160 19q-83 18 -145 45v243q75 -37 146 -55
t116 -18q67 -2 95 21q30 24 30 57q0 25 -30 59q-31 36 -138 104q-155 102 -202 172q-48 72 -48 160q0 52 22 105q20 50 68 91q43 38 121 63q74 24 176 24zM612 1171h-299l-243 302h256l133 -166l135 166h264z" />
    <glyph glyph-name="Tcaron" unicode="&#x164;" horiz-adv-x="958" 
d="M319 0v1243h-264v285h848v-285h-264v-1243h-320zM631 1653h-299l-244 301h256l133 -166l135 166h265z" />
    <glyph glyph-name="tcaron" unicode="&#x165;" horiz-adv-x="665" 
d="M598 780h-121v-780h-289v780h-122v244h122v326l289 75v-401h121v-244zM809 1657l-117 -359h-166l37 359h246z" />
    <glyph glyph-name="Tbar" unicode="&#x166;" horiz-adv-x="958" 
d="M791 623h-152v-623h-320v623h-153v219h153v401h-264v285h848v-285h-264v-401h152v-219z" />
    <glyph glyph-name="tbar" unicode="&#x167;" horiz-adv-x="665" 
d="M600 422h-123v-422h-289v422h-122v176h122v182h-122v244h122v326l289 75v-401h121v-244h-121v-182h123v-176z" />
    <glyph glyph-name="Utilde" unicode="&#x168;" horiz-adv-x="1495" 
d="M1360 643q0 -326 -158 -510q-157 -182 -454 -182t-455 182q-160 184 -160 510v885h320v-950q0 -83 24 -146q23 -59 66 -106q41 -44 94 -65q52 -21 111 -21q57 0 111 21q52 20 94 65t65 106q24 63 24 146v950h318v-885zM514 1653l-223 6q-12 185 64 257q78 73 188 73
q49 0 99 -18q66 -24 97 -38q17 -8 46.5 -20.5t41.5 -17.5q38 -17 70 -17q34 0 58 20q25 21 24 84l221 -6q10 -157 -56 -237t-190 -80q-53 0 -102 16q-57 18 -98 37q-26 12 -88 37q-39 16 -70 16q-32 0 -59 -21q-28 -21 -23 -91z" />
    <glyph glyph-name="utilde" unicode="&#x169;" horiz-adv-x="1204" 
d="M815 0v133q-46 -58 -132 -107q-90 -51 -204 -51q-158 0 -263 102t-105 277v670h290v-580q0 -116 58 -163q59 -48 139 -48q69 0 136 52t67 141v598h289v-1024h-275zM391 1169l-217 9q-10 178 60 248q71 71 176 71q47 0 92 -16q49 -17 89 -36q42 -19 78 -36q35 -16 62 -16
q33 0 54 18q22 19 22 78l217 -6q8 -153 -53 -230t-178 -77q-49 0 -95 15q-36 11 -90 34q-73 30 -80 33q-40 16 -63 16q-28 0 -52 -21t-22 -84z" />
    <glyph glyph-name="Umacron" unicode="&#x16a;" horiz-adv-x="1495" 
d="M1360 643q0 -326 -158 -510q-157 -182 -454 -182t-455 182q-160 184 -160 510v885h320v-950q0 -83 24 -146q23 -59 66 -106q41 -44 94 -65q52 -21 111 -21q57 0 111 21q52 20 94 65t65 106q24 63 24 146v950h318v-885zM1057 1866v-213h-619v213h619z" />
    <glyph glyph-name="umacron" unicode="&#x16b;" horiz-adv-x="1204" 
d="M815 0v133q-46 -58 -132 -107q-90 -51 -204 -51q-158 0 -263 102t-105 277v670h290v-580q0 -116 58 -163q59 -48 139 -48q69 0 136 52t67 141v598h289v-1024h-275zM903 1384v-213h-606v213h606z" />
    <glyph glyph-name="Ubreve" unicode="&#x16c;" horiz-adv-x="1495" 
d="M1360 643q0 -326 -158 -510q-157 -182 -454 -182t-455 182q-160 184 -160 510v885h320v-950q0 -83 24 -146q23 -59 66 -106q41 -44 94 -65q52 -21 111 -21q57 0 111 21q52 20 94 65t65 106q24 63 24 146v950h318v-885zM1094 1964q-27 -141 -117 -231q-91 -91 -229 -91
q-139 0 -230 91q-90 90 -117 231l179 6q26 -74 73 -112q46 -37 95 -37t95 37q45 37 72 112z" />
    <glyph glyph-name="ubreve" unicode="&#x16d;" horiz-adv-x="1204" 
d="M815 0v133q-46 -58 -132 -107q-90 -51 -204 -51q-158 0 -263 102t-105 277v670h290v-580q0 -116 58 -163q59 -48 139 -48q69 0 136 52t67 141v598h289v-1024h-275zM946 1481q-27 -142 -117 -232t-229 -90t-229 90t-117 232l178 6q26 -75 74 -113q46 -37 94 -37
q49 0 95 37t73 113z" />
    <glyph glyph-name="Uring" unicode="&#x16e;" horiz-adv-x="1495" 
d="M1360 643q0 -326 -158 -510q-157 -182 -454 -182t-455 182q-160 184 -160 510v885h320v-950q0 -83 24 -146q23 -59 66 -106q41 -44 94 -65q52 -21 111 -21q57 0 111 21q52 20 94 65t65 106q24 63 24 146v950h318v-885zM748 2157q109 0 189 -77q79 -76 79 -179t-79 -181
t-189 -78q-111 0 -189 79t-78 180q0 100 78 178t189 78zM748 2025q-53 0 -89 -36t-36 -88q0 -53 36 -89t89 -36q52 0 88 36t36 89q0 52 -36 88t-88 36z" />
    <glyph glyph-name="uring" unicode="&#x16f;" horiz-adv-x="1204" 
d="M815 0v133q-46 -58 -132 -107q-90 -51 -204 -51q-158 0 -263 102t-105 277v670h290v-580q0 -116 58 -163q59 -48 139 -48q69 0 136 52t67 141v598h289v-1024h-275zM600 1673q109 0 189 -77q79 -76 79 -179q0 -102 -79 -180t-189 -78t-188 79q-78 80 -78 179q0 100 78 178
t188 78zM600 1542q-51 0 -88 -37t-37 -88t37 -88t88 -37t88 37t37 88t-37 88t-88 37z" />
    <glyph glyph-name="Uhungarumlaut" unicode="&#x170;" horiz-adv-x="1495" 
d="M1360 643q0 -326 -158 -510q-157 -182 -454 -182t-455 182q-160 184 -160 510v885h320v-950q0 -83 24 -146q23 -59 66 -106q41 -44 94 -65q52 -21 111 -21q57 0 111 21q52 20 94 65t65 106q24 63 24 146v950h318v-885zM1014 1954h309l-272 -301h-213zM590 1954h309
l-272 -301h-217z" />
    <glyph glyph-name="uhungarumlaut" unicode="&#x171;" horiz-adv-x="1204" 
d="M815 0v133q-46 -58 -132 -107q-90 -51 -204 -51q-158 0 -263 102t-105 277v670h290v-580q0 -116 58 -163q59 -48 139 -48q69 0 136 52t67 141v598h289v-1024h-275zM860 1473h309l-272 -302h-213zM449 1473h309l-273 -302h-217z" />
    <glyph glyph-name="Uogonek" unicode="&#x172;" horiz-adv-x="1517" 
d="M879 -383q-114 0 -166 52q-54 54 -54 120q0 46 20 88t52 74q-287 6 -442 188q-156 183 -156 504v885h320v-950q0 -83 24 -146q23 -59 66 -106q41 -44 94 -65q52 -21 111 -21q57 0 111 21q52 20 94 65t65 106q24 63 24 146v950h320v-885q0 -220 -72 -376t-209 -236h2
l-114 -78q-45 -33 -62 -61q-16 -26 -16 -54t17 -45q18 -18 46 -18q25 0 43 9q21 10 33 19l80 -104q-35 -32 -91 -55q-62 -26 -140 -27z" />
    <glyph glyph-name="uogonek" unicode="&#x173;" horiz-adv-x="1204" 
d="M885 -367q-111 0 -161 50t-50 112q0 59 36 105q36 47 83 80l22 14v139q-46 -58 -132 -107q-90 -51 -204 -51q-158 0 -263 102t-105 277v670h290v-580q0 -116 58 -163q59 -48 139 -48q69 0 136 52t67 141v598h289v-1024l-113 -76q-39 -27 -56 -47q-18 -21 -18 -41
q0 -21 17 -36q16 -15 43 -15q22 0 41 8q16 7 30 19l80 -103q-28 -27 -91 -52q-60 -24 -138 -24z" />
    <glyph glyph-name="Wcircumflex" unicode="&#x174;" horiz-adv-x="2103" 
d="M1335 0l-282 1034l-289 -1034h-303l-430 1528h329l279 -1063l276 1063h285l277 -1061l278 1061h318l-435 -1528h-303zM1198 1653l-135 166l-135 -166h-258l243 301h299l246 -301h-260z" />
    <glyph glyph-name="wcircumflex" unicode="&#x175;" horiz-adv-x="1699" 
d="M1059 0l-205 621l-199 -621h-272l-352 1024h301l190 -651l205 651h256l207 -653l188 653h291l-348 -1024h-262zM991 1171l-135 166l-135 -166h-258l244 302h299l245 -302h-260z" />
    <glyph glyph-name="Ycircumflex" unicode="&#x176;" horiz-adv-x="1413" 
d="M864 0h-317v487l-527 1041h347l342 -740l360 740h324l-529 -1041v-487zM862 1653l-135 166l-135 -166h-258l244 301h299l245 -301h-260z" />
    <glyph glyph-name="ycircumflex" unicode="&#x177;" horiz-adv-x="1224" 
d="M649 -436h-301l148 403l-467 1057h327l285 -723l254 723h301zM764 1171l-135 166l-135 -166h-258l243 302h299l246 -302h-260z" />
    <glyph glyph-name="Ydieresis" unicode="&#x178;" horiz-adv-x="1413" 
d="M864 0h-317v487l-527 1041h347l342 -740l360 740h324l-529 -1041v-487zM1087 1880v-227h-258v227h258zM627 1880v-227h-260v227h260z" />
    <glyph glyph-name="Zacute" unicode="&#x179;" horiz-adv-x="1368" 
d="M1202 0h-1134l-5 39l717 1214h-626l116 275h998l6 -41l-719 -1213h760zM1100 1954l-275 -301h-233l162 301h346z" />
    <glyph glyph-name="zacute" unicode="&#x17a;" horiz-adv-x="1114" 
d="M936 0h-864l-17 29l518 749h-430l99 246h774l16 -29l-510 -749h510zM973 1473l-275 -302h-233l162 302h346z" />
    <glyph glyph-name="Zdotaccent" unicode="&#x17b;" horiz-adv-x="1368" 
d="M1202 0h-1134l-5 39l717 1214h-626l116 275h998l6 -41l-719 -1213h760zM858 1882v-229h-295v229h295z" />
    <glyph glyph-name="zdotaccent" unicode="&#x17c;" horiz-adv-x="1114" 
d="M936 0h-864l-17 29l518 749h-430l99 246h774l16 -29l-510 -749h510zM731 1425v-247h-295v247h295z" />
    <glyph glyph-name="Zcaron" unicode="&#x17d;" horiz-adv-x="1368" 
d="M1202 0h-1134l-5 39l717 1214h-626l116 275h998l6 -41l-719 -1213h760zM862 1653h-299l-244 301h256l134 -166l135 166h264z" />
    <glyph glyph-name="zcaron" unicode="&#x17e;" horiz-adv-x="1114" 
d="M936 0h-864l-17 29l518 749h-430l99 246h774l16 -29l-510 -749h510zM735 1171h-299l-243 302h256l133 -166l135 166h264z" />
    <glyph glyph-name="florin" unicode="&#x192;" horiz-adv-x="1075" 
d="M612 29q-22 -146 -60 -233q-41 -94 -103 -147q-63 -54 -154 -77q-92 -23 -213 -23v256q40 0 86 7q40 6 66 28q28 24 49 68q19 41 30 121q7 47 15 97q3 20 6.5 44t7.5 57t7 54q24 180 26 191q5 33 14 102t14 104h-151v252h188q5 41 14 96q2 12 11 78q18 132 65 217
q46 82 114 129q65 44 151 61q87 17 174 17v-256q-65 0 -129 -28q-61 -27 -78 -142q-1 -10 -4.5 -35.5t-5.5 -41.5q-2 -15 -7.5 -47t-7.5 -48h154v-252h-189q-5 -35 -14 -104t-14 -102q-4 -31 -8.5 -64t-9.5 -71t-8 -57q-3 -21 -7 -54t-7.5 -58t-6.5 -44q-3 -20 -6 -38.5
t-5.5 -35t-3.5 -21.5z" />
    <glyph glyph-name="Aringacute" unicode="&#x1fa;" horiz-adv-x="1570" 
d="M1014 504l-232 631l-233 -631h465zM1200 0l-92 252h-653l-95 -252h-329l598 1528h315l598 -1528h-342zM791 1911q109 0 189 -77q79 -76 79 -179q0 -102 -79 -180t-189 -78q-111 0 -189 79q-78 80 -78 179q0 100 78 178t189 78zM791 1780q-52 0 -89 -37q-36 -36 -36 -88
t36 -88q37 -37 89 -37q51 0 88 37q36 36 36 88t-36 88q-37 37 -88 37zM1182 2261l-275 -301h-233l162 301h346z" />
    <glyph glyph-name="aringacute" unicode="&#x1fb;" horiz-adv-x="1118" 
d="M543 133q75 0 125 48q49 48 49 118q0 67 -48 113q-49 47 -126 47q-78 0 -125 -47t-47 -113q0 -67 47 -117q46 -49 125 -49zM735 0v100q-45 -56 -125 -97q-77 -40 -182 -40q-160 0 -257 94t-97 236q0 139 100 235q102 97 272 97q88 0 155 -23q69 -23 114 -57v51
q0 126 -63 172q-64 47 -173 47q-50 0 -103 -7q-47 -6 -151 -26l-4 236q87 19 163 26q81 7 155 7q231 0 349 -105t118 -278v-668h-271zM557 1673q109 0 189 -77q79 -76 79 -179q0 -102 -79 -180q-80 -78 -189 -78q-110 0 -188 79q-78 80 -78 179q0 100 78 178t188 78z
M557 1542q-51 0 -88 -37t-37 -88t37 -88t88 -37t88 37t37 88t-37 88t-88 37zM946 2023l-274 -301h-234l162 301h346z" />
    <glyph glyph-name="AEacute" unicode="&#x1fc;" horiz-adv-x="2002" 
d="M991 504l-229 684l-232 -684h461zM1159 0l-84 252h-629l-86 -252h-329l577 1528h971v-281h-551l125 -332h584v-258h-490l142 -376h583v-281h-813zM1198 1954l-274 -301h-234l162 301h346z" />
    <glyph glyph-name="aeacute" unicode="&#x1fd;" horiz-adv-x="1882" 
d="M1255 836q-97 0 -161 -56q-65 -57 -88 -155h497q-23 96 -89 154q-64 57 -159 57zM543 121q77 0 127 49q51 49 51 125q0 66 -49 115t-129 49q-79 0 -125 -49q-47 -50 -47 -115q0 -74 47 -124t125 -50zM1800 129q-83 -74 -205 -126t-288 -52q-147 0 -265 50
q-113 48 -192 136q-40 -70 -133 -128q-94 -58 -242 -58q-186 0 -293 97q-108 98 -108 241q0 138 100 237t272 99q82 0 148 -21q68 -22 111 -53v45q0 126 -60 172q-61 47 -170 47q-49 0 -102 -6q-55 -6 -148 -27l-4 236q87 19 160 26q77 7 154 7q120 0 207 -33
q89 -34 141 -90q69 69 166 107t208 38q118 0 220 -42q103 -42 176 -117q72 -73 116 -177q43 -101 43 -223v-78h-815q18 -123 101 -189q84 -67 215 -67q103 0 185 35q81 35 144 90zM1298 1473l-274 -302h-233l161 302h346z" />
    <glyph glyph-name="Oslashacute" unicode="&#x1fe;" horiz-adv-x="1878" 
d="M401 766q0 -96 33 -183q33 -88 90 -155l576 829q-38 14 -84 22q-41 7 -88 7q-110 0 -207 -41t-167 -111q-71 -72 -112 -166q-41 -96 -41 -202zM928 242q110 0 204 42q95 42 165 112q72 72 112 167q41 97 41 203q0 110 -44 210q-44 101 -120 169l-590 -852q53 -25 110 -38
q56 -13 122 -13zM928 -49q-111 0 -211 25q-101 25 -191 71l-100 -145h-264l186 268q-122 110 -194 265t-72 331q0 170 65 316q66 148 180 258q115 111 268 173q157 64 333 64q92 0 179 -18q82 -17 165 -52l82 119h264l-160 -229q140 -110 226 -276q85 -164 85 -355
q0 -169 -65 -317q-67 -153 -179 -260q-114 -109 -269 -174q-153 -64 -328 -64zM1315 1954l-275 -301h-233l162 301h346z" />
    <glyph glyph-name="oslashacute" unicode="&#x1ff;" horiz-adv-x="1339" 
d="M397 512q0 -39 11 -78q10 -36 28 -69l260 430q-8 2 -12 2h-12q-116 0 -196 -84q-79 -83 -79 -201zM672 227q115 0 195 83q79 82 79 202q0 43 -10 80q-11 40 -31 72l-262 -435q8 -2 13 -2h16zM672 -47q-46 0 -93 6t-90 18l-45 -75h-288l112 186q-95 77 -147 185
q-53 111 -53 239q0 118 46 220q46 103 126 178q78 74 191 118q110 43 241 43q45 0 90 -6q50 -7 86 -16l45 73h291l-113 -184q96 -78 150 -186q55 -110 55 -240q0 -118 -46 -220q-46 -103 -126 -178q-78 -73 -192 -118q-110 -43 -240 -43zM1034 1470l-274 -301h-234l162 301
h346z" />
    <glyph glyph-name="Scommaaccent" unicode="&#x218;" horiz-adv-x="1079" 
d="M915 1511l-4 -278q-54 26 -131 46q-75 19 -147 19q-107 0 -152 -36q-47 -38 -47 -86q0 -62 58 -120q45 -45 170 -155q186 -159 261 -273q74 -112 74 -231q0 -97 -41 -177q-40 -79 -112 -133q-74 -55 -170 -83q-101 -29 -211 -29q-26 0 -94 6q-39 3 -100 13q-53 8 -93 19
q-48 13 -76 24l4 282q66 -32 166 -58q97 -25 195 -25q100 0 156 47q55 46 55 106q0 63 -59 130q-63 71 -181 169q-83 72 -154 138q-65 60 -104 116t-57 111q-19 59 -19 121q0 72 31 143t93 123q64 54 160 86q97 33 230 33q72 0 153 -12q79 -12 146 -36zM612 -115l-143 -358
h-211l61 358h293z" />
    <glyph glyph-name="scommaaccent" unicode="&#x219;" horiz-adv-x="892" 
d="M473 1057q73 0 130 -10q60 -11 108 -29v-244q-59 26 -117 40q-53 13 -92 13q-53 0 -81 -17q-30 -18 -30 -50q0 -27 34 -55q39 -32 103 -74q171 -113 230 -192q59 -78 59 -169q0 -130 -103 -215q-105 -87 -292 -88q-71 0 -160 19q-83 18 -145 45v243q75 -37 146 -55
t116 -18q67 -2 95 21q30 24 30 57q0 25 -30 59q-31 36 -138 104q-155 102 -202 172q-48 72 -48 160q0 52 22 105q20 50 68 91q43 38 121 63q74 24 176 24zM569 -115l-143 -358h-211l61 358h293z" />
    <glyph glyph-name="Tcommaaccent" unicode="&#x21a;" horiz-adv-x="958" 
d="M319 0v1243h-264v285h848v-285h-264v-1243h-320zM627 -115l-144 -358h-211l62 358h293z" />
    <glyph glyph-name="tcommaaccent" unicode="&#x21b;" horiz-adv-x="665" 
d="M598 780h-121v-780h-289v780h-122v244h122v326l289 75v-401h121v-244zM477 -115l-143 -358h-211l61 358h293z" />
    <glyph glyph-name="dotlessj" unicode="&#x237;" horiz-adv-x="518" 
d="M-51 -199h28q60 0 99 46q39 47 39 128v1049h288v-1055q0 -217 -108 -317q-109 -101 -320 -101h-26v250z" />
    <glyph glyph-name="schwa" unicode="&#x259;" horiz-adv-x="1271" 
d="M625 -49q-117 0 -219 42q-105 43 -177 117q-72 73 -116 177q-43 101 -43 223v78h817q-18 122 -102 189t-218 67q-103 0 -185 -35q-80 -34 -142 -90l-158 176q83 74 206 126t287 52q148 0 261 -43q116 -44 194 -118q80 -75 123 -177q43 -101 43 -223q0 -120 -42 -224
q-42 -103 -117 -178t-180 -117t-232 -42zM629 188q92 0 159 56t89 155h-498q23 -96 89 -154q64 -57 161 -57z" />
    <glyph glyph-name="circumflex" unicode="&#x2c6;" horiz-adv-x="1093" 
d="M678 1317l-135 166l-135 -166h-258l243 301h299l246 -301h-260z" />
    <glyph glyph-name="caron" unicode="&#x2c7;" horiz-adv-x="1093" 
d="M692 1317h-299l-243 301h256l133 -166l135 166h264z" />
    <glyph glyph-name="breve" unicode="&#x2d8;" horiz-adv-x="1093" 
d="M893 1628q-27 -141 -117 -231t-229 -90q-140 0 -230 90q-89 89 -116 231l178 6q26 -73 74 -112q46 -37 94 -37q49 0 95 37q47 38 73 112z" />
    <glyph glyph-name="dotaccent" unicode="&#x2d9;" horiz-adv-x="1093" 
d="M694 1509v-229h-295v229h295z" />
    <glyph glyph-name="ring" unicode="&#x2da;" horiz-adv-x="1093" 
d="M547 1812q110 0 189 -76t79 -180q0 -102 -79 -180q-80 -78 -189 -78q-111 0 -189 79q-77 78 -77 179q0 102 77 179t189 77zM547 1681q-52 0 -88 -36q-37 -37 -37 -89q0 -51 37 -88q36 -36 88 -36t88 36q37 37 37 88q0 52 -37 89q-36 36 -88 36z" />
    <glyph glyph-name="ogonek" unicode="&#x2db;" horiz-adv-x="1093" 
d="M596 -63q-39 -27 -59 -51q-19 -22 -19 -42q0 -24 18 -41q17 -16 46 -16q22 0 42 9q17 8 31 20l82 -105q-32 -32 -90 -55q-64 -26 -141 -27q-117 0 -168 53q-51 52 -51 117q0 61 37 108q38 48 90 81l75 49l218 -25z" />
    <glyph glyph-name="tilde" unicode="&#x2dc;" horiz-adv-x="1093" 
d="M313 1315l-223 6q-12 185 65 257q78 73 187 73q50 0 99 -18q71 -26 98 -38q17 -7 46.5 -19.5t41.5 -17.5q41 -18 69 -18q34 0 59 21q25 20 23 84l221 -7q10 -157 -56 -237t-189 -80q-54 0 -103 16q-57 18 -98 37q-26 12 -88 37q-39 16 -70 16q-32 0 -59 -21
q-28 -21 -23 -91z" />
    <glyph glyph-name="hungarumlaut" unicode="&#x2dd;" horiz-adv-x="1093" 
d="M791 1618h309l-273 -301h-213zM367 1618h309l-273 -301h-217z" />
    <glyph glyph-name="acute.cmb" unicode="&#x301;" 
d="M348 1618l-274 -301h-234l162 301h346z" />
    <glyph glyph-name="mu" unicode="&#x3bc;" horiz-adv-x="1208" 
d="M362 -397l-247 -54v1475h291v-594q0 -100 63 -148q64 -49 133 -49q68 0 135 50q66 49 66 143v598h291v-1024h-248v115q-34 -59 -96 -99q-64 -41 -152 -41q-74 0 -138 35t-98 96v-503z" />
    <glyph glyph-name="Wgrave" unicode="&#x1e80;" horiz-adv-x="2103" 
d="M1335 0l-282 1034l-289 -1034h-303l-430 1528h329l279 -1063l276 1063h285l277 -1061l278 1061h318l-435 -1528h-303zM664 1954h350l166 -301h-242z" />
    <glyph glyph-name="wgrave" unicode="&#x1e81;" horiz-adv-x="1699" 
d="M1059 0l-205 621l-199 -621h-272l-352 1024h301l190 -651l205 651h256l207 -653l188 653h291l-348 -1024h-262zM457 1473h350l166 -302h-242z" />
    <glyph glyph-name="Wacute" unicode="&#x1e82;" horiz-adv-x="2103" 
d="M1335 0l-282 1034l-289 -1034h-303l-430 1528h329l279 -1063l276 1063h285l277 -1061l278 1061h318l-435 -1528h-303zM1452 1954l-274 -301h-234l162 301h346z" />
    <glyph glyph-name="wacute" unicode="&#x1e83;" horiz-adv-x="1699" 
d="M1059 0l-205 621l-199 -621h-272l-352 1024h301l190 -651l205 651h256l207 -653l188 653h291l-348 -1024h-262zM1247 1473l-274 -302h-234l162 302h346z" />
    <glyph glyph-name="Wdieresis" unicode="&#x1e84;" horiz-adv-x="2103" 
d="M1335 0l-282 1034l-289 -1034h-303l-430 1528h329l279 -1063l276 1063h285l277 -1061l278 1061h318l-435 -1528h-303zM1423 1880v-227h-258v227h258zM963 1880v-227h-261v227h261z" />
    <glyph glyph-name="wdieresis" unicode="&#x1e85;" horiz-adv-x="1699" 
d="M1059 0l-205 621l-199 -621h-272l-352 1024h301l190 -651l205 651h256l207 -653l188 653h291l-348 -1024h-262zM1198 1399v-228h-258v228h258zM772 1399v-228h-258v228h258z" />
    <glyph glyph-name="Ygrave" unicode="&#x1ef2;" horiz-adv-x="1413" 
d="M864 0h-317v487l-527 1041h347l342 -740l360 740h324l-529 -1041v-487zM328 1954h350l166 -301h-242z" />
    <glyph glyph-name="ygrave" unicode="&#x1ef3;" horiz-adv-x="1224" 
d="M649 -436h-301l148 403l-467 1057h327l285 -723l254 723h301zM231 1473h351l166 -302h-242z" />
    <glyph glyph-name="uni2000" unicode="&#x2000;" horiz-adv-x="1024" 
 />
    <glyph glyph-name="uni2001" unicode="&#x2001;" horiz-adv-x="2048" 
 />
    <glyph glyph-name="uni2002" unicode="&#x2002;" horiz-adv-x="1024" 
 />
    <glyph glyph-name="uni2003" unicode="&#x2003;" horiz-adv-x="2048" 
 />
    <glyph glyph-name="uni2004" unicode="&#x2004;" horiz-adv-x="681" 
 />
    <glyph glyph-name="uni2005" unicode="&#x2005;" horiz-adv-x="512" 
 />
    <glyph glyph-name="uni2009" unicode="&#x2009;" horiz-adv-x="339" 
 />
    <glyph glyph-name="uni200A" unicode="&#x200a;" horiz-adv-x="204" 
 />
    <glyph glyph-name="uni200B" unicode="&#x200b;" horiz-adv-x="0" 
 />
    <glyph glyph-name="endash" unicode="&#x2013;" horiz-adv-x="1142" 
d="M1047 680v-227h-951v227h951z" />
    <glyph glyph-name="emdash" unicode="&#x2014;" horiz-adv-x="1552" 
d="M1456 680v-227h-1360v227h1360z" />
    <glyph glyph-name="emdash.salt_em" unicode="&#x2015;" horiz-adv-x="2117" 
d="M2083 680v-227h-2048v227h2048z" />
    <glyph glyph-name="quoteleft" unicode="&#x2018;" horiz-adv-x="724" 
d="M594 1528l-129 -610h-332l238 610h223z" />
    <glyph glyph-name="quoteright" unicode="&#x2019;" horiz-adv-x="716" 
d="M139 918l133 610h330l-235 -610h-228z" />
    <glyph glyph-name="quotesinglbase" unicode="&#x201a;" horiz-adv-x="720" 
d="M100 -610l133 610h330l-235 -610h-228z" />
    <glyph glyph-name="quotedblleft" unicode="&#x201c;" horiz-adv-x="1159" 
d="M594 1528l-129 -610h-332l238 610h223zM1028 1528l-129 -610h-332l238 610h223z" />
    <glyph glyph-name="quotedblright" unicode="&#x201d;" horiz-adv-x="1150" 
d="M137 918l133 610h330l-235 -610h-228zM575 918l134 610h329l-235 -610h-228z" />
    <glyph glyph-name="quotedblbase" unicode="&#x201e;" horiz-adv-x="1159" 
d="M98 -610l133 610h330l-235 -610h-228zM537 -610l133 610h329l-235 -610h-227z" />
    <glyph glyph-name="dagger" unicode="&#x2020;" horiz-adv-x="1021" 
d="M918 934h-259v-1159l-297 61v1098h-258v229h258v365h297v-365h259v-229z" />
    <glyph glyph-name="daggerdbl" unicode="&#x2021;" horiz-adv-x="1024" 
d="M918 420h-259v-645l-294 61v584h-261v229h261v285h-261v229h261v365h294v-365h259v-229h-259v-285h259v-229z" />
    <glyph glyph-name="bullet" unicode="&#x2022;" horiz-adv-x="636" 
d="M141 807h353v-315h-353v315z" />
    <glyph glyph-name="ellipsis" unicode="&#x2026;" horiz-adv-x="1695" 
d="M141 309h338v-309h-338v309zM678 309h338v-309h-338v309zM1214 309h338v-309h-338v309z" />
    <glyph glyph-name="perthousand" unicode="&#x2030;" horiz-adv-x="2598" 
d="M1536 1528l-995 -1528h-242l991 1528h246zM440 1528q156 0 257 -97q102 -97 102 -288v-56q0 -187 -103 -285q-101 -97 -256 -97q-153 0 -254 97q-102 98 -102 285v56q0 191 102 288q101 97 254 97zM569 1090v51q0 116 -35 171q-35 56 -94 56q-55 0 -92 -56t-37 -171v-51
q0 -115 37 -170q38 -56 92 -56q58 0 94 56q35 54 35 170zM1391 823q154 0 255 -97t101 -288v-55q0 -189 -101 -286t-255 -97q-152 0 -255 97q-104 98 -104 286v55q0 190 104 288q103 97 255 97zM2161 823q154 0 255 -97t101 -288v-55q0 -189 -101 -286t-255 -97
q-150 0 -253 97q-104 98 -104 286v55q0 190 104 288q103 97 253 97zM2290 385v51q0 115 -36 172q-37 58 -93 58q-55 0 -93 -58q-36 -55 -36 -172v-51q0 -119 36 -172q37 -55 93 -55q57 0 93 55t36 172zM1518 385v51q0 113 -35 171q-34 57 -92 57t-94 -57q-35 -55 -35 -171
v-51q0 -116 35 -170q36 -55 94 -55t92 55q35 56 35 170z" />
    <glyph glyph-name="minute" unicode="&#x2032;" horiz-adv-x="604" 
d="M102 838l123 690h277l-123 -690h-277z" />
    <glyph glyph-name="second" unicode="&#x2033;" horiz-adv-x="1044" 
d="M102 838l123 690h277l-123 -690h-277zM543 838l123 690h276l-123 -690h-276z" />
    <glyph glyph-name="guilsinglleft" unicode="&#x2039;" horiz-adv-x="813" 
d="M690 0h-250l-329 508v6l329 510h252l-330 -512z" />
    <glyph glyph-name="guilsinglright" unicode="&#x203a;" horiz-adv-x="813" 
d="M371 0h-250l330 514l-328 510h248l329 -510v-6z" />
    <glyph glyph-name="fraction" unicode="&#x2044;" horiz-adv-x="702" 
d="M684 1528h262l-930 -1528h-258z" />
    <glyph glyph-name="zero.sups" unicode="&#x2070;" horiz-adv-x="1042" 
d="M522 1559q172 0 285 -120q113 -121 113 -358v-65q0 -232 -113 -354q-112 -121 -285 -121q-170 0 -284 121q-115 123 -115 354v65q0 237 115 358q114 120 284 120zM686 1014v65q0 143 -46 211q-47 70 -118 70t-120 -70q-48 -69 -48 -211v-65q0 -143 48 -212t120 -69
q70 0 117 69q47 70 47 212z" />
    <glyph glyph-name="four.sups" unicode="&#x2074;" horiz-adv-x="993" 
d="M557 920v290l-197 -290h197zM858 729h-67v-158h-234v158h-455l-20 45l506 754h203v-608h118z" />
    <glyph glyph-name="five.sups" unicode="&#x2075;" horiz-adv-x="931" 
d="M356 541q-61 0 -128 14q-75 16 -124 43v197q56 -30 118 -45q60 -15 136 -15q88 0 147 41q58 40 58 111q0 60 -64 100q-65 41 -175 41q-48 0 -92 -6q-43 -6 -82 -18l122 524h559l-59 -197h-344l-37 -133h7h8q196 0 295 -87q100 -88 100 -222q0 -153 -120 -251
q-119 -97 -325 -97z" />
    <glyph glyph-name="six.sups" unicode="&#x2076;" horiz-adv-x="972" 
d="M492 541q-168 0 -279 93t-111 259q0 82 33 166q34 85 84 164q48 75 116 157q76 92 126 148h276q-84 -88 -165 -180q-71 -80 -142 -179q34 17 70 27t78 10q120 0 209 -89q90 -90 90 -224q0 -69 -28 -136q-27 -64 -79 -113t-122 -76t-156 -27zM492 1038q-66 0 -113 -45
t-47 -108q0 -62 47 -107q46 -45 113 -45q62 0 109 45q46 45 46 107q0 63 -46 108q-47 45 -109 45z" />
    <glyph glyph-name="seven.sups" unicode="&#x2077;" horiz-adv-x="935" 
d="M442 571h-260l338 750h-418l62 207h694z" />
    <glyph glyph-name="eight.sups" unicode="&#x2078;" horiz-adv-x="964" 
d="M481 541q-183 0 -285 87t-102 224q0 78 42 141q42 64 120 101q-54 34 -82 84q-29 52 -29 112q0 110 88 189q89 80 248 80q164 0 250 -80t86 -189q0 -61 -27 -112t-83 -84q77 -38 119 -102q42 -63 42 -140q0 -137 -102 -224t-285 -87zM481 1151q47 0 83 33t36 84
q0 47 -35 77q-33 29 -84 29q-50 0 -85 -29q-36 -30 -36 -77q0 -51 35 -84t86 -33zM481 721q65 0 112 41q46 40 46 104q0 62 -46 101t-112 39q-65 0 -111 -39t-46 -101q0 -64 46 -104q47 -41 111 -41z" />
    <glyph glyph-name="nine.sups" unicode="&#x2079;" horiz-adv-x="972" 
d="M512 569h-276q69 71 166 181q83 94 143 180q-32 -16 -71 -27q-36 -10 -77 -10q-122 0 -213 89q-90 88 -90 224q0 70 29 136q29 65 80 112q54 49 123 75q72 27 157 27q166 0 277 -93q110 -92 110 -259q0 -85 -32 -165q-32 -81 -84 -163q-49 -78 -116 -159
q-76 -92 -126 -148zM483 1059q65 0 111 45q47 45 47 108q0 64 -47 109q-46 45 -111 45q-67 0 -112 -45t-45 -109q0 -63 45 -108t112 -45z" />
    <glyph glyph-name="zero.sinf" unicode="&#x2080;" horiz-adv-x="966" 
d="M483 578q173 0 285 -120q113 -121 113 -358v-65q0 -232 -113 -354q-112 -121 -285 -121q-170 0 -284 121q-115 123 -115 354v65q0 237 115 358q114 120 284 120zM647 33v65q0 143 -46 211q-47 70 -118 70q-70 0 -119 -70t-49 -211v-65q0 -142 49 -212q48 -69 119 -69
t117 69q47 70 47 212z" />
    <glyph glyph-name="one.sinf" unicode="&#x2081;" horiz-adv-x="598" 
d="M485 -410h-231v627l-172 -166v297l223 199h180v-957z" />
    <glyph glyph-name="two.sinf" unicode="&#x2082;" horiz-adv-x="847" 
d="M715 -410h-652l-16 33q1 2 28.5 36t48.5 60q108 135 109 137q20 25 56.5 70t52.5 64q51 63 72 90q37 49 58 87q20 37 20 81q0 52 -40 89q-42 39 -112 40q-45 0 -96 -18q-55 -20 -107 -60v227q55 27 117 39q67 13 117 13q163 -1 264 -90q98 -86 98 -216q-1 -98 -47 -162
q-35 -49 -98 -130q-17 -23 -72 -89q-46 -55 -96 -108h373z" />
    <glyph glyph-name="three.sinf" unicode="&#x2083;" horiz-adv-x="770" 
d="M319 -440q-61 0 -134 10q-79 11 -124 37v188q38 -26 97 -37q54 -10 90 -10q106 -2 166 35q61 37 61 96q0 57 -57 92q-58 35 -150 35h-61l8 182h53q68 0 116 31q46 30 46 78q0 44 -42 68t-109 24q-40 0 -83 -7q-44 -7 -85 -26l12 197q30 9 83 17q50 8 120 8q144 1 239 -70
q97 -73 97 -178q-2 -64 -36 -121q-35 -58 -91 -92q74 -33 123 -101q49 -67 49 -147q0 -133 -108 -222q-108 -88 -280 -87z" />
    <glyph glyph-name="four.sinf" unicode="&#x2084;" horiz-adv-x="915" 
d="M518 -61v290l-196 -290h196zM819 -252h-67v-158h-234v158h-455l-20 45l506 754h203v-608h118z" />
    <glyph glyph-name="five.sinf" unicode="&#x2085;" horiz-adv-x="854" 
d="M317 -440q-61 0 -128 14q-73 15 -123 43v197q57 -30 117 -45t136 -15q88 0 147 41q58 40 58 111q0 60 -64 100q-65 41 -175 41q-47 0 -91 -6t-83 -18l122 524h560l-60 -197h-344l-37 -133h7h8q197 0 296 -87t99 -222q0 -154 -120 -251q-119 -97 -325 -97z" />
    <glyph glyph-name="six.sinf" unicode="&#x2086;" horiz-adv-x="894" 
d="M453 -440q-168 0 -279 93t-111 259q0 82 33 166q34 85 84 164q48 75 116 157q76 92 126 148h276q-69 -73 -164 -180q-76 -86 -143 -179q34 17 70 27t78 10q121 0 210 -89t89 -224q0 -69 -28 -136q-27 -64 -79 -113t-122 -76q-71 -27 -156 -27zM453 57q-67 0 -113 -45
q-47 -45 -47 -108q0 -62 47 -107q46 -45 113 -45q63 0 109 45t46 107q0 63 -46 108t-109 45z" />
    <glyph glyph-name="seven.sinf" unicode="&#x2087;" horiz-adv-x="858" 
d="M403 -410h-260l338 750h-418l62 207h694z" />
    <glyph glyph-name="eight.sinf" unicode="&#x2088;" horiz-adv-x="884" 
d="M442 -440q-183 0 -285 87t-102 224q0 78 42 141q42 64 120 101q-54 34 -82 84q-29 52 -29 112q0 109 89 189t247 80q164 0 250 -80t86 -189q0 -61 -27 -112t-83 -84q76 -38 119 -102q42 -63 42 -140q0 -137 -102 -224t-285 -87zM442 170q47 0 83 33t36 84q0 47 -35 77
q-33 29 -84 29q-50 0 -85 -29t-35 -77q0 -51 34 -84t86 -33zM442 -260q65 0 112 41q46 40 46 104q0 62 -46 101t-112 39q-64 0 -111 -39q-46 -39 -46 -101q0 -64 46 -104q47 -41 111 -41z" />
    <glyph glyph-name="nine.sinf" unicode="&#x2089;" horiz-adv-x="894" 
d="M473 -412h-276q81 84 167 181q79 89 142 180q-32 -16 -71 -27q-36 -10 -77 -10q-122 0 -213 89q-90 89 -90 224q0 70 29 136q29 65 80 112q54 49 123 75q72 27 157 27q166 0 277 -93q110 -92 110 -259q0 -85 -32 -165q-32 -81 -84 -163q-49 -78 -116 -159
q-76 -92 -126 -148zM444 78q64 0 111 45t47 108q0 64 -47 109t-111 45q-67 0 -112 -45t-45 -109q0 -63 45 -108t112 -45z" />
    <glyph glyph-name="Euro" unicode="&#x20ac;" horiz-adv-x="1351" 
d="M1247 16q-64 -31 -131 -44q-65 -13 -143 -13q-134 0 -250 43q-118 44 -209 120q-93 78 -157 182q-63 102 -97 231h-211l31 149h156q0 7 -2 20.5t-2 20.5q-1 14 -1 41v30q0 9 2 29h-184l31 152h176q28 126 93 236q64 109 157 188q91 77 211 123q118 45 256 45
q73 0 143 -14t131 -46v-270q-53 33 -111 51q-62 19 -122 19q-153 0 -271 -95t-168 -237h553l-34 -152h-553q-2 -20 -2 -28v-29q0 -14 2 -42q1 -7 2.5 -21t1.5 -21h522l-35 -149h-448q53 -138 168 -227t262 -89q62 0 122 20t111 52v-275z" />
    <glyph glyph-name="copyrightsound" unicode="&#x2117;" horiz-adv-x="1847" 
d="M926 1548q170 0 316 -61t253 -168q108 -108 167 -250q60 -144 60 -305t-60 -305q-59 -142 -167 -250q-107 -107 -253 -168t-316 -61q-172 0 -318 61q-148 62 -254 168q-108 108 -167 250q-60 144 -60 305t60 305q59 142 167 250q106 106 254 168q146 61 318 61zM926 1456
q-143 0 -271 -54q-124 -53 -221 -148q-94 -93 -148 -220q-55 -130 -55 -270t55 -270q55 -129 148 -221q95 -94 221 -147q128 -54 271 -54q140 0 268 54q127 54 220 147q94 94 148 221q54 128 54 270t-54 270q-53 125 -148 220t-220 148q-127 54 -268 54zM950 586h-45v-260
h-248v891h289q78 0 149 -15q73 -15 123 -50q52 -36 82 -98q31 -65 31 -159q0 -85 -36 -145t-90 -96q-53 -35 -123 -52q-67 -16 -132 -16zM973 1008h-72v-215h72q54 0 88 28q35 29 35 74q0 53 -30 83t-93 30z" />
    <glyph glyph-name="trademark" unicode="&#x2122;" horiz-adv-x="1421" 
d="M195 905v471h-127v152h415v-152h-123v-471h-165zM905 1014l-172 262v-371h-162v623h181l174 -281l170 281h178v-623h-164v367l-168 -258h-37z" />
    <glyph glyph-name="arrowleft" unicode="&#x2190;" horiz-adv-x="1605" 
d="M1026 238v-17h-401l-588 588v33l588 588h401v-17l-428 -428h963v-319h-963z" />
    <glyph glyph-name="arrowup" unicode="&#x2191;" horiz-adv-x="1605" 
d="M1391 537l-428 426v-963h-320v963l-426 -426h-18v399l587 588h33l588 -588v-399h-16z" />
    <glyph glyph-name="arrowright" unicode="&#x2192;" horiz-adv-x="1605" 
d="M981 211h-401v16l428 428h-963v320h963l-428 428v16h401l590 -588v-32z" />
    <glyph glyph-name="arrowdown" unicode="&#x2193;" horiz-adv-x="1605" 
d="M819 4h-33l-587 588v399h18l426 -426v963h320v-963l428 426h16v-399z" />
    <glyph glyph-name="uni2196" unicode="&#x2196;" horiz-adv-x="1605" 
d="M1419 332l-225 -226l-680 680v-604l-14 -12l-281 283l-2 831l25 23h829l285 -283l-10 -12l-607 2z" />
    <glyph glyph-name="uni2197" unicode="&#x2197;" horiz-adv-x="1605" 
d="M1094 188v607l-684 -684l-224 225l680 680h-604l-12 12l285 285h829l22 -23l3 -831l-283 -285z" />
    <glyph glyph-name="uni2198" unicode="&#x2198;" horiz-adv-x="1605" 
d="M532 152l-284 284l12 13h606l-682 681l228 224l680 -682v606l14 14l280 -286v-830l-22 -22z" />
    <glyph glyph-name="uni2199" unicode="&#x2199;" horiz-adv-x="1605" 
d="M1071 147l-829 3l-25 20v834l285 282l10 -14v-606l682 684l225 -226l-682 -682h609l10 -12z" />
    <glyph glyph-name="minus" unicode="&#x2212;" horiz-adv-x="1247" 
d="M1149 836v-238h-1053v238h1053z" />
    <glyph glyph-name="radical" unicode="&#x221a;" horiz-adv-x="1439" 
d="M823 0h-295l-247 696h-175v236h347l223 -647l461 1243h258z" />
    <glyph glyph-name="infinity" unicode="&#x221e;" horiz-adv-x="1452" 
d="M1049 311q-115 0 -193 67q-76 65 -129 146q-63 -96 -142 -154q-80 -59 -192 -59q-72 0 -136 32q-62 31 -106 84q-45 55 -70 123q-26 72 -26 148q0 77 26 149q25 71 72 123q47 53 110 84t140 31q115 0 191 -63t133 -145q67 105 149 157q81 51 181 51q75 0 137 -31
q65 -32 109 -84q44 -51 70 -123t26 -149q0 -78 -27 -148q-27 -71 -73 -123q-47 -53 -110 -84q-66 -32 -140 -32zM422 530q75 0 121 51q43 48 73 107q-48 75 -89 129q-37 49 -111 49q-66 0 -108 -50t-42 -118t43 -117q45 -51 113 -51zM1038 530q63 0 106 51q42 49 42 117
t-44 118t-112 50q-72 0 -116 -44t-78 -111q41 -70 86 -128q41 -53 116 -53z" />
    <glyph glyph-name="approxequal" unicode="&#x2248;" horiz-adv-x="1261" 
d="M326 780l-213 35q0 94 24 157q23 62 65 100q41 38 90 53q53 16 101 16q50 0 111 -23q63 -24 118 -49q21 -10 58.5 -26.5t52.5 -23.5q53 -24 94 -24q39 0 74 18t35 81l211 -37q0 -91 -25 -157q-23 -61 -63 -99q-38 -37 -90 -52q-54 -16 -105 -16q-49 0 -110 23
q-63 24 -118 49q-30 14 -112 49q-54 23 -94 23q-40 2 -72 -16q-32 -17 -32 -81zM326 303l-213 37q0 92 24 155q23 60 65 99q40 37 90 52q53 16 101 16q50 0 111 -23q63 -24 118 -49q43 -20 111 -49q54 -23 94 -23q39 0 74 18t35 80l211 -36q0 -91 -25 -157q-23 -61 -63 -99
t-90 -53q-51 -15 -105 -15q-49 0 -110 23q-63 24 -118 49q-30 14 -112 49q-51 22 -94 22q-40 0 -72 -16t-32 -80z" />
    <glyph glyph-name="notequal" unicode="&#x2260;" horiz-adv-x="1200" 
d="M483 23l-256 -3l129 340h-245v220h327l88 231h-415v219h499l129 342h254l-129 -342h226v-219h-310l-86 -231h396v-220h-480z" />
    <glyph glyph-name="lessequal" unicode="&#x2264;" horiz-adv-x="1218" 
d="M1135 307l-1053 348v238l1053 354v-248l-777 -225l777 -213v-254zM82 244h1053v-203h-1053v203z" />
    <glyph glyph-name="greaterequal" unicode="&#x2265;" horiz-adv-x="1218" 
d="M84 307v254l776 213l-776 225v248l1053 -354v-238zM1137 242v-201h-1053v201h1053z" />
    <glyph glyph-name="lozenge" unicode="&#x25ca;" horiz-adv-x="1314" 
d="M1198 764l-442 -764h-193l-446 764l444 764h195zM662 242l301 518l-306 528l-303 -522z" />
    <glyph glyph-name="commaaccent" unicode="&#xf6c3;" horiz-adv-x="1093" 
d="M690 -61l-143 -359h-211l61 359h293z" />
    <glyph glyph-name="apple" unicode="&#xf8ff;" horiz-adv-x="1290" 
d="M55 -207v1559h1180v-1559h-1180zM221 1147v-1147h369q108 0 204 37q98 38 171 109q72 70 118 181q45 108 45 248q0 139 -45 246q-46 110 -120 179q-78 73 -175 110q-98 37 -204 37h-363zM520 35h-282v1075h282q87 0 171 -35q83 -35 148 -101q63 -65 103 -167
q39 -101 39 -232q0 -132 -39 -234t-103 -169t-148 -102t-171 -35zM520 1096h-268v-1045h268q85 0 165 34q81 34 142 100q63 68 100 165q38 100 38 225q0 126 -38 225q-36 95 -100 163q-60 64 -142 99q-80 34 -165 34zM397 160v827h193q71 0 135 -26q67 -27 116 -78
q50 -52 80 -129q29 -75 29 -179q0 -105 -29 -180q-29 -76 -80 -130q-48 -51 -116 -79q-64 -26 -135 -26h-193z" />
    <glyph glyph-name="uniFEFF" unicode="&#xfeff;" horiz-adv-x="0" 
 />
    <glyph glyph-name="Jacute" horiz-adv-x="825" 
d="M51 0v297q38 -21 76 -30q39 -9 76 -9q77 0 123 61q47 62 47 240v969h317v-1077q0 -237 -100 -361q-101 -125 -344 -125q-57 0 -103 7q-50 8 -92 28zM920 1954l-275 -301h-233l161 301h347z" />
    <glyph glyph-name="jacute" horiz-adv-x="518" 
d="M-51 -199h28q60 0 99 46q39 47 39 128v1049h288v-1055q0 -217 -108 -317q-109 -101 -320 -101h-26v250zM651 1473l-274 -302h-234l162 302h346z" />
    <glyph glyph-name="I_Jacute" horiz-adv-x="1413" 
d="M135 0v1528h318v-1528h-318zM684 1954l-274 -301h-234l162 301h346zM639 0v297q38 -21 76 -30q39 -9 76 -9q76 0 122 61q48 63 48 240v969h317v-1077q0 -237 -100 -361q-101 -125 -344 -125q-57 0 -103 7q-50 8 -92 28zM1507 1954l-274 -301h-234l162 301h346z" />
    <glyph glyph-name="c_h" horiz-adv-x="2142" 
d="M926 272v-256q-37 -25 -114 -36q-75 -11 -130 -11q-129 0 -241 41q-110 40 -192 113t-128 172q-47 102 -47 217t47 217q46 99 128 172t192 113q112 41 241 41q54 0 128 -11t116 -36v-258h-8q-45 32 -106 46q-56 13 -118 13q-132 0 -223 -86q-90 -85 -90 -211t90 -212
q89 -85 223 -85q60 0 117 12q58 12 107 45h8zM1341 596v-596h-290v1597h282v-704q45 57 130 106q86 50 202 50q154 0 260 -103q105 -102 105 -276v-670h-291v580q0 113 -58 162t-137 49q-69 0 -136 -52t-67 -143z" />
    <glyph glyph-name="c_k" horiz-adv-x="2111" 
d="M926 272v-256q-37 -25 -114 -36q-75 -11 -130 -11q-129 0 -241 41q-110 40 -192 113t-128 172q-47 102 -47 217t47 217q46 99 128 172t192 113q112 41 241 41q54 0 128 -11t116 -36v-258h-8q-45 32 -106 46q-56 13 -118 13q-132 0 -223 -86q-90 -85 -90 -211t90 -212
q89 -85 223 -85q60 0 117 12q58 12 107 45h8zM1718 0l-278 432l-99 -108v-324h-290v1597h290v-921l338 348h363l-387 -403l413 -621h-350z" />
    <glyph glyph-name="i_jacute" horiz-adv-x="1044" 
d="M408 1024v-1024h-289v1024h289zM653 1473l-274 -302h-234l162 302h346zM475 -199h29q59 0 98 46q39 47 39 128v1049h289v-1055q0 -216 -109 -317t-319 -101h-27v250zM1178 1473l-275 -302h-233l161 302h347z" />
    <glyph glyph-name="caron.vertical" orientation="v" 
d="M104 -61l-116 -359h-166l37 359h245z" />
    <glyph glyph-name="endash.salt_en" horiz-adv-x="1093" 
d="M1059 680v-227h-1024v227h1024z" />
    <glyph glyph-name="emdash.uc_salt_em" horiz-adv-x="2117" 
d="M2083 840v-228h-2048v228h2048z" />
    <glyph glyph-name="endash.uc_salt_en" horiz-adv-x="1093" 
d="M1059 840v-228h-1024v228h1024z" />
    <glyph glyph-name="registered.salt_big" horiz-adv-x="1847" 
d="M926 1548q170 0 316 -61t253 -168q108 -108 167 -250q60 -144 60 -305t-60 -305q-59 -142 -167 -250q-107 -107 -253 -168t-316 -61q-172 0 -318 61q-148 62 -254 168q-108 108 -167 250q-60 144 -60 305t60 305q59 142 167 250q106 106 254 168q146 61 318 61zM926 1456
q-143 0 -271 -54q-125 -53 -220 -148q-93 -92 -148 -220q-56 -129 -56 -270q0 -139 56 -268t148 -221q93 -93 220 -148q126 -55 271 -55q142 0 268 55q128 55 220 148q94 94 148 221t54 268q0 142 -54 270q-53 125 -148 220t-220 148q-127 54 -268 54zM926 1008h-45v-220h47
q55 0 86 28q30 27 30 81q0 58 -33 84q-34 27 -85 27zM1075 330l-174 274h-14v-274h-248v887h274q61 0 129 -14q67 -14 118 -47q52 -34 86 -93t34 -150q0 -88 -42 -149q-41 -60 -103 -98l211 -316l-19 -20h-252z" />
    <glyph glyph-name="acute.lc" 
d="M348 1618l-274 -301h-234l162 301h346z" />
    <glyph glyph-name="grave.lc" 
d="M-270 1618h350l166 -301h-242z" />
    <glyph glyph-name="hungarumlaut.lc" 
d="M272 1618h310l-273 -301h-213zM-139 1618h309l-272 -301h-217z" />
    <glyph glyph-name="circumflex.lc" 
d="M166 1317l-135 166l-135 -166h-258l243 301h299l246 -301h-260z" />
    <glyph glyph-name="caron.lc" 
d="M180 1317h-299l-243 301h256l133 -166l135 166h264z" />
    <glyph glyph-name="breve.lc" 
d="M381 1628q-27 -141 -117 -231t-229 -90q-140 0 -230 90q-89 89 -116 231l178 6q26 -73 74 -112q46 -37 94 -37q49 0 95 37q47 38 73 112z" />
    <glyph glyph-name="tilde.lc" 
d="M-174 1315l-217 8q-11 179 60 249q70 70 175 70q48 0 93 -16q49 -17 89 -36q12 -5 38 -17.5t39 -18.5q35 -16 63 -16q33 0 54 18q22 19 22 78l217 -6q8 -152 -53 -229q-62 -78 -179 -78q-47 0 -94 15q-36 11 -90 34q-13 5 -40 17t-40 17q-37 15 -63 15q-30 0 -53 -20
t-21 -84z" />
    <glyph glyph-name="macron.lc" 
d="M338 1581v-213h-606v213h606z" />
    <glyph glyph-name="dieresis.lc" 
d="M377 1610v-228h-258v228h258zM-49 1610v-228h-258v228h258z" />
    <glyph glyph-name="dotaccent.lc" 
d="M182 1528v-248h-295v248h295z" />
    <glyph glyph-name="ring.lc" 
d="M35 1812q110 0 189 -76t79 -180q0 -102 -79 -180q-80 -78 -189 -78q-111 0 -189 79q-77 78 -77 179q0 102 77 179t189 77zM35 1681q-52 0 -88 -36q-37 -37 -37 -89q0 -51 37 -88q36 -36 88 -36t88 36q37 37 37 88q0 52 -37 89q-36 36 -88 36z" />
    <glyph glyph-name="cedilla.lc" 
d="M-27 -399q-33 0 -75 7q-52 9 -84 21v121h2q35 -9 78 -16q39 -6 59 -6q47 0 73 16q27 16 27 45q0 26 -36 44q-34 17 -93 17h-37l-4 15l58 164l125 -6l-31 -72q91 -12 144 -57q52 -45 52 -113q0 -78 -70 -129t-188 -51z" />
    <glyph glyph-name="ogonek.lc" 
d="M82 -63q-38 -26 -55 -48t-17 -41t16 -35t42 -16q22 0 41 8q16 7 30 19l78 -103q-28 -28 -88 -52q-57 -23 -137 -23q-112 0 -162 49q-51 49 -51 112q0 57 35 104q33 45 86 79l73 47l222 -25z" />
    <glyph glyph-name="commaaccent.lc" 
d="M178 -61l-143 -359h-211l61 359h293z" />
    <glyph glyph-name="grave.cmb" 
d="M-270 1618h350l166 -301h-242z" />
    <glyph glyph-name="hungarumlaut.cmb" 
d="M279 1618h309l-273 -301h-213zM-145 1618h309l-273 -301h-217z" />
    <glyph glyph-name="circumflex.cmb" 
d="M166 1317l-135 166l-135 -166h-258l243 301h299l246 -301h-260z" />
    <glyph glyph-name="caron.cmb" 
d="M180 1317h-299l-243 301h256l133 -166l135 166h264z" />
    <glyph glyph-name="breve.cmb" 
d="M381 1628q-27 -141 -117 -231t-229 -90q-140 0 -230 90q-89 89 -116 231l178 6q26 -73 74 -112q46 -37 94 -37q49 0 95 37q47 38 73 112z" />
    <glyph glyph-name="tilde.cmb" 
d="M-199 1315l-223 6q-12 185 65 257q78 73 187 73q50 0 99 -18q71 -26 98 -38q17 -7 46.5 -19.5t41.5 -17.5q41 -18 69 -18q33 0 59 21q25 20 23 84l221 -7q10 -157 -56 -237t-189 -80q-54 0 -103 16q-57 18 -98 37q-26 12 -88 37q-39 16 -70 16q-32 0 -59 -21
q-28 -21 -23 -91z" />
    <glyph glyph-name="macron.cmb" 
d="M344 1581v-213h-618v213h618z" />
    <glyph glyph-name="dieresis.cmb" 
d="M395 1610v-228h-258v228h258zM-66 1610v-228h-260v228h260z" />
    <glyph glyph-name="dotaccent.cmb" 
d="M182 1509v-229h-295v229h295z" />
    <glyph glyph-name="ring.cmb" 
d="M35 1812q110 0 189 -76t79 -180q0 -102 -79 -180q-80 -78 -189 -78q-111 0 -189 79q-77 78 -77 179q0 102 77 179t189 77zM35 1681q-52 0 -88 -36q-37 -37 -37 -89q0 -51 37 -88q36 -36 88 -36t88 36q37 37 37 88q0 52 -37 89q-36 36 -88 36z" />
    <glyph glyph-name="cedilla.cmb" 
d="M-23 -418q-32 0 -77 6q-46 6 -86 21v125h2q45 -14 80 -19q41 -6 61 -6q51 0 81 18t30 48q0 29 -39 47t-101 18h-37l-6 15l58 168h131l-33 -82q96 -12 149 -59q54 -48 54 -118q0 -76 -74 -129t-193 -53z" />
    <glyph glyph-name="ogonek.cmb" 
d="M84 -63q-39 -27 -59 -51q-19 -22 -19 -42q0 -24 18 -41q17 -16 46 -16q22 0 42 9q17 8 31 20l82 -105q-32 -32 -90 -55q-64 -26 -141 -27q-117 0 -168 53q-51 52 -51 117q0 61 37 108q38 48 90 81l75 49l218 -25z" />
    <glyph glyph-name="commaaccent.cmb" 
d="M178 -61l-143 -359h-211l61 359h293z" />
    <glyph glyph-name="hyphen.uc" horiz-adv-x="897" 
d="M780 862v-272h-663v272h663z" />
    <glyph glyph-name="endash.uc" horiz-adv-x="1142" 
d="M1047 840v-228h-951v228h951z" />
    <glyph glyph-name="emdash.uc" horiz-adv-x="1552" 
d="M1456 840v-228h-1360v228h1360z" />
    <glyph glyph-name="parenleft.uc" horiz-adv-x="903" 
d="M621 1739l165 -170q-52 -52 -104 -132q-55 -84 -97 -185q-46 -109 -73 -229q-29 -128 -29 -265v-27q0 -137 29 -265q28 -125 72 -229q45 -108 97 -184q54 -79 105 -129l-165 -170q-71 57 -146 147t-139 213q-66 127 -105 276q-41 156 -41 335v39q0 179 41 334
q39 147 105 276q63 123 139 214q74 88 146 151z" />
    <glyph glyph-name="parenright.uc" horiz-adv-x="927" 
d="M307 1739q72 -63 146 -151q76 -91 139 -214q64 -125 104 -276q41 -155 41 -334v-39q0 -179 -41 -335q-40 -153 -104 -276q-62 -120 -140 -213q-73 -88 -147 -147l-164 170q54 52 106 129q54 80 98 184q46 109 73 229q28 124 28 265v27q0 141 -28 265q-28 123 -74 229
q-46 105 -99 185q-53 79 -104 132z" />
    <glyph glyph-name="bracketleft.uc" horiz-adv-x="931" 
d="M260 -250v1966h551v-184h-260v-1598h276v-184h-567z" />
    <glyph glyph-name="bracketright.uc" horiz-adv-x="931" 
d="M674 -250h-570v184h277v1598h-260v184h553v-1966z" />
    <glyph glyph-name="braceleft.uc" horiz-adv-x="964" 
d="M801 -250h-187q-130 0 -210 59q-78 57 -78 224v403q0 94 -32 141q-30 44 -83 60q-1 1 -8 3t-8 3v176q1 1 8 3t8 3q52 15 83 61q32 47 32 138v410q0 167 78 224q79 58 210 58h187v-184h-68q-57 0 -86 -32t-29 -138v-332q0 -100 -41 -169t-133 -109v-41q91 -39 133 -106
q41 -64 41 -165v-354q0 -106 29 -129t86 -23h68v-184z" />
    <glyph glyph-name="braceright.uc" horiz-adv-x="966" 
d="M352 -250h-186v168h67q57 0 88 23q29 22 29 131v368q0 98 41 165t131 106v41q-91 39 -131 109q-41 71 -41 169v350q0 107 -29 137q-30 31 -88 31h-67v168h186q131 0 210 -58t79 -224v-410q0 -91 32 -138q31 -46 83 -61q2 -1 9 -3t9 -3v-176q-2 -1 -9 -3t-9 -3
q-53 -16 -83 -60q-32 -47 -32 -141v-403q0 -166 -79 -224q-80 -59 -210 -59z" />
    <glyph glyph-name="guilsinglleft.uc" horiz-adv-x="880" 
d="M750 94h-248l-379 584v6l379 586h250l-381 -586z" />
    <glyph glyph-name="guilsinglright.uc" horiz-adv-x="880" 
d="M381 94h-252l379 592l-377 584h250l379 -586v-6z" />
    <glyph glyph-name="guillemotleft.uc" horiz-adv-x="1310" 
d="M1180 94h-250l-379 584v6l379 586h254l-381 -586zM750 94h-248l-379 584v6l379 586h250l-381 -586z" />
    <glyph glyph-name="guillemotright.uc" horiz-adv-x="1310" 
d="M811 94h-252l379 592l-377 584h250l379 -586v-6zM381 94h-252l379 592l-377 584h250l379 -586v-6z" />
    <glyph glyph-name="colon.uc" horiz-adv-x="608" 
d="M143 1274h326v-322h-326v322zM143 528h326v-323h-326v323z" />
    <glyph glyph-name="semicolon.uc" horiz-adv-x="673" 
d="M195 1274h323v-322h-323v322zM195 459h327l-194 -563h-236z" />
    <glyph glyph-name="plus.uc" horiz-adv-x="1347" 
d="M1235 649h-426v-469h-270v469h-426v238h426v434h270v-434h426v-238z" />
    <glyph glyph-name="minus.uc" horiz-adv-x="1247" 
d="M1149 883v-238h-1053v238h1053z" />
    <glyph glyph-name="divide.uc" horiz-adv-x="1296" 
d="M512 1053v280h274v-280h-274zM1190 881v-236h-1084v236h1084zM512 193v280h274v-280h-274z" />
    <glyph glyph-name="multiply.uc" horiz-adv-x="1210" 
d="M948 233l-352 355l-340 -340l-160 162l338 340l-334 333l168 166l334 -334l316 318l163 -162l-317 -317l352 -353z" />
    <glyph glyph-name="equal.uc" horiz-adv-x="1208" 
d="M1100 1077v-219h-989v219h989zM1100 627v-219h-989v219h989z" />
    <glyph glyph-name="zero.dnom" horiz-adv-x="966" 
d="M483 987q173 0 285 -120q113 -121 113 -357v-66q0 -232 -113 -354q-112 -121 -285 -121q-170 0 -284 121q-115 123 -115 354v66q0 236 115 357q114 120 284 120zM647 442v66q0 143 -46 211q-46 69 -118 69q-71 0 -119 -69q-49 -70 -49 -211v-66q0 -142 49 -212
q47 -68 119 -68q71 0 117 68q47 70 47 212z" />
    <glyph glyph-name="one.dnom" horiz-adv-x="598" 
d="M485 0h-231v627l-172 -166v297l223 198h180v-956z" />
    <glyph glyph-name="two.dnom" horiz-adv-x="847" 
d="M715 0h-652l-16 33q1 2 28.5 36t48.5 60q58 73 109 136q20 25 56.5 70t52.5 64q51 63 72 90q35 46 58 88q20 37 20 80q0 52 -40 89q-42 39 -112 40q-48 0 -96 -17q-55 -20 -107 -60v227q55 27 117 39t117 12q164 -1 264 -89q98 -86 98 -216q-1 -99 -47 -163
q-35 -49 -98 -130q-11 -16 -72 -88q-46 -55 -96 -108h373z" />
    <glyph glyph-name="three.dnom" horiz-adv-x="770" 
d="M319 -31q-54 0 -134 11q-81 11 -124 36v189q38 -26 97 -37q54 -10 90 -10q106 -2 166 35q61 37 61 96q0 57 -57 92q-58 35 -150 35h-61l8 182h53q68 0 116 31q46 30 46 78q0 43 -42 67q-44 25 -109 25q-40 0 -83 -7q-44 -7 -85 -26l12 197q30 9 83 17q43 7 120 7
q145 2 239 -69q97 -73 97 -179q-2 -64 -36 -121q-35 -58 -91 -92q75 -34 123 -100q49 -67 49 -147q0 -135 -108 -223t-280 -87z" />
    <glyph glyph-name="four.dnom" horiz-adv-x="915" 
d="M518 348v291l-196 -291h196zM819 158h-67v-158h-234v158h-455l-20 45l506 753h203v-608h118z" />
    <glyph glyph-name="five.dnom" horiz-adv-x="854" 
d="M317 -31q-56 0 -128 15q-73 15 -123 43v196q57 -30 117 -45q56 -14 136 -14q88 0 147 41q58 40 58 110q0 61 -64 101q-65 41 -175 41q-47 0 -91 -6q-39 -5 -83 -19l122 524h560l-60 -196h-344l-37 -133h7h8q197 0 296 -87t99 -223q0 -153 -120 -250q-121 -98 -325 -98z
" />
    <glyph glyph-name="six.dnom" horiz-adv-x="894" 
d="M453 -31q-168 0 -279 93t-111 260q0 81 33 165q34 85 84 164q51 79 116 158q64 78 126 147h276q-69 -73 -164 -180q-80 -90 -143 -178q34 17 70 27t78 10q121 0 210 -89t89 -224q0 -70 -28 -137q-26 -62 -79 -112q-52 -49 -122 -76q-73 -28 -156 -28zM453 467
q-67 0 -113 -45q-47 -45 -47 -109q0 -61 47 -106q46 -45 113 -45q63 0 109 45t46 106q0 64 -46 109t-109 45z" />
    <glyph glyph-name="seven.dnom" horiz-adv-x="858" 
d="M403 0h-260l338 750h-418l62 206h694z" />
    <glyph glyph-name="eight.dnom" horiz-adv-x="884" 
d="M442 -31q-183 0 -285 87t-102 225q0 78 42 141q42 62 120 100q-54 34 -82 84q-29 52 -29 113q0 108 89 188t247 80q164 0 250 -80t86 -188q0 -62 -27 -113t-83 -84q78 -39 119 -101q42 -63 42 -140q0 -138 -102 -225t-285 -87zM442 580q48 0 83 32q36 33 36 84
q0 47 -35 77q-34 30 -84 30q-49 0 -85 -30q-35 -29 -35 -77q0 -51 34 -84q33 -32 86 -32zM442 150q66 0 112 40t46 105q0 61 -46 100t-112 39q-64 0 -111 -39q-46 -39 -46 -100q0 -65 46 -105t111 -40z" />
    <glyph glyph-name="nine.dnom" horiz-adv-x="894" 
d="M473 -2h-276q91 95 167 180q79 89 142 180q-28 -14 -71 -26q-36 -10 -77 -10q-122 0 -213 89q-90 89 -90 224q0 70 29 136q29 65 80 112q52 47 123 74q75 28 157 28q166 0 277 -93q110 -92 110 -259q0 -85 -32 -165q-34 -84 -84 -164q-49 -78 -116 -159
q-65 -78 -126 -147zM444 487q64 0 111 45t47 109t-47 109t-111 45q-67 0 -112 -45t-45 -109t45 -109t112 -45z" />
    <glyph glyph-name="zero.numr" horiz-adv-x="966" 
d="M483 1559q173 0 285 -120q113 -121 113 -358v-65q0 -232 -113 -354q-112 -121 -285 -121q-170 0 -284 121q-115 123 -115 354v65q0 237 115 358q114 120 284 120zM647 1014v65q0 143 -46 211q-47 70 -118 70q-70 0 -119 -70t-49 -211v-65q0 -142 49 -212q48 -69 119 -69
t117 69q47 70 47 212z" />
    <glyph glyph-name="one.numr" horiz-adv-x="598" 
d="M485 571h-231v627l-172 -166v297l223 199h180v-957z" />
    <glyph glyph-name="two.numr" horiz-adv-x="847" 
d="M715 571h-652l-16 33q1 2 28.5 36t48.5 60q108 135 109 137q20 25 56.5 70t52.5 64q51 63 72 90q37 49 58 87q20 37 20 81q0 52 -40 89q-42 39 -112 40q-45 0 -96 -18q-55 -20 -107 -60v227q55 27 117 39q67 13 117 13q163 -1 264 -90q98 -86 98 -216q-1 -98 -47 -162
q-35 -49 -98 -130q-17 -23 -72 -89q-46 -56 -96 -108h373z" />
    <glyph glyph-name="three.numr" horiz-adv-x="770" 
d="M319 541q-61 0 -134 10q-79 11 -124 37v188q38 -26 97 -37q54 -10 90 -10q106 -2 166 35q61 37 61 96q0 58 -57 92q-58 35 -150 35h-61l8 182h53q68 0 116 31q46 30 46 78q0 44 -42 68t-109 24q-40 0 -83 -7q-44 -7 -85 -26l12 197q30 9 83 17q50 8 120 8q144 1 239 -70
q97 -73 97 -178q-2 -64 -36 -121q-35 -58 -91 -92q74 -33 123 -101q49 -67 49 -147q0 -134 -108 -222t-280 -87z" />
    <glyph glyph-name="four.numr" horiz-adv-x="915" 
d="M518 920v290l-196 -290h196zM819 729h-67v-158h-234v158h-455l-20 45l506 754h203v-608h118z" />
    <glyph glyph-name="five.numr" horiz-adv-x="854" 
d="M317 541q-61 0 -128 14q-73 15 -123 43v197q57 -30 117 -45t136 -15q88 0 147 41q58 40 58 111q0 60 -64 100q-65 41 -175 41q-47 0 -91 -6t-83 -18l122 524h560l-60 -197h-344l-37 -133h7h8q197 0 296 -87t99 -222q0 -153 -120 -251q-119 -97 -325 -97z" />
    <glyph glyph-name="six.numr" horiz-adv-x="894" 
d="M453 541q-168 0 -279 93t-111 259q0 82 33 166q34 85 84 164q48 75 116 157q76 92 126 148h276q-69 -73 -164 -180q-76 -86 -143 -179q34 17 70 27t78 10q121 0 210 -89t89 -224q0 -69 -28 -136q-27 -64 -79 -113t-122 -76q-71 -27 -156 -27zM453 1038q-67 0 -113 -45
q-47 -45 -47 -108q0 -62 47 -107q46 -45 113 -45q63 0 109 45t46 107q0 63 -46 108t-109 45z" />
    <glyph glyph-name="seven.numr" horiz-adv-x="858" 
d="M403 571h-260l338 750h-418l62 207h694z" />
    <glyph glyph-name="eight.numr" horiz-adv-x="884" 
d="M442 541q-183 0 -285 87t-102 224q0 78 42 141q42 64 120 101q-54 34 -82 84q-29 52 -29 112q0 109 89 189t247 80q164 0 250 -80t86 -189q0 -61 -27 -112t-83 -84q76 -38 119 -102q42 -63 42 -140q0 -137 -102 -224t-285 -87zM442 1151q47 0 83 33t36 84q0 47 -35 77
q-33 29 -84 29q-50 0 -85 -29t-35 -77q0 -51 34 -84t86 -33zM442 721q65 0 112 41q46 40 46 104q0 62 -46 101t-112 39q-64 0 -111 -39q-46 -39 -46 -101q0 -64 46 -104q47 -41 111 -41z" />
    <glyph glyph-name="nine.numr" horiz-adv-x="894" 
d="M473 569h-276q81 84 167 181q79 89 142 180q-32 -16 -71 -27q-36 -10 -77 -10q-122 0 -213 89q-90 88 -90 224q0 70 29 136q29 65 80 112q54 49 123 75q72 27 157 27q166 0 277 -93q110 -92 110 -259q0 -85 -32 -165q-32 -81 -84 -163q-49 -78 -116 -159
q-76 -92 -126 -148zM444 1059q64 0 111 45t47 108q0 64 -47 109t-111 45q-67 0 -112 -45t-45 -109q0 -63 45 -108t112 -45z" />
    <glyph glyph-name="zero.salt_slash" horiz-adv-x="1409" 
d="M702 1577q128 0 236 -48q105 -47 187 -144q80 -95 123 -238q44 -146 44 -332v-106q0 -187 -45 -329q-46 -144 -123 -238q-79 -95 -186 -143q-108 -48 -236 -48q-124 0 -232 48q-106 47 -185 143q-77 94 -123 238q-45 142 -45 329v106q0 188 45 332q45 143 123 238
q81 98 185 144q108 48 232 48zM702 1323q-38 0 -70 -11q-38 -13 -65 -32l367 -922q28 62 45 151q16 84 16 198v106q0 259 -82 384q-83 126 -211 126zM702 199q21 0 42 3t40 11l-342 860q-14 -49 -22 -119t-8 -141v-106q0 -259 84 -383q84 -125 206 -125z" />
    <glyph glyph-name="C.salt_low" horiz-adv-x="1474" 
d="M1395 1430l-144 -238q-72 47 -153 70q-84 24 -176 24q-116 0 -214 -42t-165 -112t-105 -166q-37 -93 -37 -198q0 -108 37 -203q38 -96 105 -168q66 -70 165 -113q98 -42 214 -42q92 0 171 23t158 71l144 -238q-120 -77 -238 -112q-119 -35 -246 -35q-186 0 -338 64
q-155 65 -262 174q-109 111 -169 260q-60 150 -60 317q0 168 60 316q59 147 169 258q108 110 262 173q155 64 338 64q131 0 245 -34q119 -36 239 -113z" />
    <glyph glyph-name="Ccedilla.salt_low" horiz-adv-x="1474" 
d="M1395 1430l-144 -238q-72 47 -153 70q-84 24 -176 24q-116 0 -214 -42t-165 -112t-105 -166q-37 -93 -37 -198q0 -108 37 -203q38 -96 105 -168q66 -70 165 -113q98 -42 214 -42q92 0 171 23t158 71l144 -238q-120 -77 -238 -112q-119 -35 -246 -35q-186 0 -338 64
q-155 65 -262 174q-109 111 -169 260q-60 150 -60 317q0 168 60 316q59 147 169 258q108 110 262 173q155 64 338 64q131 0 245 -34q119 -36 239 -113zM840 -467q-33 0 -78 6q-46 6 -86 21v125h2q45 -14 80 -19q41 -6 61 -6q53 0 81 17q30 18 30 49q0 29 -39 47t-100 18h-37
l-6 14l57 168h131l-33 -82q98 -12 150 -58q53 -47 53 -118q0 -76 -74 -129t-192 -53z" />
    <glyph glyph-name="Cacute.salt_low" horiz-adv-x="1474" 
d="M1395 1430l-144 -238q-72 47 -153 70q-84 24 -176 24q-116 0 -214 -42t-165 -112t-105 -166q-37 -93 -37 -198q0 -108 37 -203q38 -96 105 -168q66 -70 165 -113q98 -42 214 -42q92 0 171 23t158 71l144 -238q-120 -77 -238 -112q-119 -35 -246 -35q-186 0 -338 64
q-155 65 -262 174q-109 111 -169 260q-60 150 -60 317q0 168 60 316q59 147 169 258q108 110 262 173q155 64 338 64q131 0 245 -34q119 -36 239 -113zM1278 1954l-274 -301h-234l162 301h346z" />
    <glyph glyph-name="Ccircumflex.salt_low" horiz-adv-x="1474" 
d="M1395 1430l-144 -238q-72 47 -153 70q-84 24 -176 24q-116 0 -214 -42t-165 -112t-105 -166q-37 -93 -37 -198q0 -108 37 -203q38 -96 105 -168q66 -70 165 -113q98 -42 214 -42q92 0 171 23t158 71l144 -238q-120 -77 -238 -112q-119 -35 -246 -35q-186 0 -338 64
q-155 65 -262 174q-109 111 -169 260q-60 150 -60 317q0 168 60 316q59 147 169 258q108 110 262 173q155 64 338 64q131 0 245 -34q119 -36 239 -113zM1024 1653l-135 166l-135 -166h-258l243 301h299l246 -301h-260z" />
    <glyph glyph-name="Cdotaccent.salt_low" horiz-adv-x="1474" 
d="M1395 1430l-144 -238q-72 47 -153 70q-84 24 -176 24q-116 0 -214 -42t-165 -112t-105 -166q-37 -93 -37 -198q0 -108 37 -203q38 -96 105 -168q66 -70 165 -113q98 -42 214 -42q92 0 171 23t158 71l144 -238q-120 -77 -238 -112q-119 -35 -246 -35q-186 0 -338 64
q-155 65 -262 174q-109 111 -169 260q-60 150 -60 317q0 168 60 316q59 147 169 258q108 110 262 173q155 64 338 64q131 0 245 -34q119 -36 239 -113zM1038 1882v-229h-295v229h295z" />
    <glyph glyph-name="Ccaron.salt_low" horiz-adv-x="1474" 
d="M1395 1430l-144 -238q-72 47 -153 70q-84 24 -176 24q-116 0 -214 -42t-165 -112t-105 -166q-37 -93 -37 -198q0 -108 37 -203q38 -96 105 -168q66 -70 165 -113q98 -42 214 -42q92 0 171 23t158 71l144 -238q-120 -77 -238 -112q-119 -35 -246 -35q-186 0 -338 64
q-155 65 -262 174q-109 111 -169 260q-60 150 -60 317q0 168 60 316q59 147 169 258q108 110 262 173q155 64 338 64q131 0 245 -34q119 -36 239 -113zM1040 1653h-299l-243 301h256l133 -166l135 166h264z" />
    <glyph glyph-name="S.salt_low" horiz-adv-x="1083" 
d="M967 1458l-117 -246q-53 36 -115 61t-127 25q-94 0 -133 -36q-41 -38 -41 -86q0 -62 58 -120q45 -45 170 -155q186 -159 261 -273q74 -112 74 -233q0 -99 -40 -176q-41 -79 -109 -132q-69 -54 -165 -83t-204 -29q-101 0 -219 30q-120 30 -205 81l115 248q78 -44 148 -70
q75 -28 163 -28q95 0 145 47t50 106q0 63 -59 130q-63 71 -181 169q-83 72 -154 138q-65 60 -104 116t-57 111q-19 59 -19 121q0 74 30 143q31 72 91 123q62 53 157 86t224 33q84 0 184 -28q93 -26 179 -73z" />
    <glyph glyph-name="Sacute.salt_low" horiz-adv-x="1083" 
d="M967 1458l-117 -246q-53 36 -115 61t-127 25q-94 0 -133 -36q-41 -38 -41 -86q0 -62 58 -120q45 -45 170 -155q186 -159 261 -273q74 -112 74 -233q0 -99 -40 -176q-41 -79 -109 -132q-69 -54 -165 -83t-204 -29q-101 0 -219 30q-120 30 -205 81l115 248q78 -44 148 -70
q75 -28 163 -28q95 0 145 47t50 106q0 63 -59 130q-63 71 -181 169q-83 72 -154 138q-65 60 -104 116t-57 111q-19 59 -19 121q0 74 30 143q31 72 91 123q62 53 157 86t224 33q84 0 184 -28q93 -26 179 -73zM981 1954l-274 -301h-234l162 301h346z" />
    <glyph glyph-name="Scircumflex.salt_low" horiz-adv-x="1083" 
d="M967 1458l-117 -246q-53 36 -115 61t-127 25q-94 0 -133 -36q-41 -38 -41 -86q0 -62 58 -120q45 -45 170 -155q186 -159 261 -273q74 -112 74 -233q0 -99 -40 -176q-41 -79 -109 -132q-69 -54 -165 -83t-204 -29q-101 0 -219 30q-120 30 -205 81l115 248q78 -44 148 -70
q75 -28 163 -28q95 0 145 47t50 106q0 63 -59 130q-63 71 -181 169q-83 72 -154 138q-65 60 -104 116t-57 111q-19 59 -19 121q0 74 30 143q31 72 91 123q62 53 157 86t224 33q84 0 184 -28q93 -26 179 -73zM727 1653l-135 166l-135 -166h-258l243 301h299l246 -301h-260z
" />
    <glyph glyph-name="Scedilla.salt_low" horiz-adv-x="1083" 
d="M967 1458l-117 -246q-53 36 -115 61t-127 25q-94 0 -133 -36q-41 -38 -41 -86q0 -62 58 -120q45 -45 170 -155q186 -159 261 -273q74 -112 74 -233q0 -99 -40 -176q-41 -79 -109 -132q-69 -54 -165 -83t-204 -29q-101 0 -219 30q-120 30 -205 81l115 248q78 -44 148 -70
q75 -28 163 -28q95 0 145 47t50 106q0 63 -59 130q-63 71 -181 169q-83 72 -154 138q-65 60 -104 116t-57 111q-19 59 -19 121q0 74 30 143q31 72 91 123q62 53 157 86t224 33q84 0 184 -28q93 -26 179 -73zM442 -442q-32 0 -77 6q-50 7 -86 20v125h2q39 -12 79 -18t62 -6
q53 0 81 17q29 17 29 48q0 29 -38 47q-41 19 -101 19h-37l-6 14l58 168h131l-33 -82q97 -12 149 -58q54 -48 54 -118q0 -76 -74 -129t-193 -53z" />
    <glyph glyph-name="Scaron.salt_low" horiz-adv-x="1083" 
d="M967 1458l-117 -246q-53 36 -115 61t-127 25q-94 0 -133 -36q-41 -38 -41 -86q0 -62 58 -120q45 -45 170 -155q186 -159 261 -273q74 -112 74 -233q0 -99 -40 -176q-41 -79 -109 -132q-69 -54 -165 -83t-204 -29q-101 0 -219 30q-120 30 -205 81l115 248q78 -44 148 -70
q75 -28 163 -28q95 0 145 47t50 106q0 63 -59 130q-63 71 -181 169q-83 72 -154 138q-65 60 -104 116t-57 111q-19 59 -19 121q0 74 30 143q31 72 91 123q62 53 157 86t224 33q84 0 184 -28q93 -26 179 -73zM743 1653h-299l-243 301h256l133 -166l135 166h264z" />
    <glyph glyph-name="Scommaaccent.salt_low" horiz-adv-x="1083" 
d="M967 1458l-117 -246q-53 36 -115 61t-127 25q-94 0 -133 -36q-41 -38 -41 -86q0 -62 58 -120q45 -45 170 -155q186 -159 261 -273q74 -112 74 -233q0 -99 -40 -176q-41 -79 -109 -132q-69 -54 -165 -83t-204 -29q-101 0 -219 30q-120 30 -205 81l115 248q78 -44 148 -70
q75 -28 163 -28q95 0 145 47t50 106q0 63 -59 130q-63 71 -181 169q-83 72 -154 138q-65 60 -104 116t-57 111q-19 59 -19 121q0 74 30 143q31 72 91 123q62 53 157 86t224 33q84 0 184 -28q93 -26 179 -73zM625 -115l-144 -358h-211l62 358h293z" />
    <glyph glyph-name="a.salt_low" horiz-adv-x="1118" 
d="M543 133q75 0 125 50q49 49 49 120q0 65 -48 112q-47 46 -126 46t-125 -46q-47 -47 -47 -112q0 -70 47 -120t125 -50zM735 0v88q-45 -49 -124 -88q-75 -37 -181 -37q-160 0 -258 94t-98 238q0 137 100 233q102 97 272 97q88 0 155 -23q69 -23 114 -57v51q0 126 -63 172
q-64 47 -173 47q-48 0 -97 -7q-63 -9 -132 -22l-53 228q99 21 184 29q82 8 158 8q231 0 349 -105t118 -278v-668h-271z" />
    <glyph glyph-name="agrave.salt_low" horiz-adv-x="1118" 
d="M543 133q75 0 125 50q49 49 49 120q0 65 -48 112q-47 46 -126 46t-125 -46q-47 -47 -47 -112q0 -70 47 -120t125 -50zM735 0v88q-45 -49 -124 -88q-75 -37 -181 -37q-160 0 -258 94t-98 238q0 137 100 233q102 97 272 97q88 0 155 -23q69 -23 114 -57v51q0 126 -63 172
q-64 47 -173 47q-48 0 -97 -7q-63 -9 -132 -22l-53 228q99 21 184 29q82 8 158 8q231 0 349 -105t118 -278v-668h-271zM158 1473h350l166 -302h-242z" />
    <glyph glyph-name="aacute.salt_low" horiz-adv-x="1118" 
d="M543 133q75 0 125 50q49 49 49 120q0 65 -48 112q-47 46 -126 46t-125 -46q-47 -47 -47 -112q0 -70 47 -120t125 -50zM735 0v88q-45 -49 -124 -88q-75 -37 -181 -37q-160 0 -258 94t-98 238q0 137 100 233q102 97 272 97q88 0 155 -23q69 -23 114 -57v51q0 126 -63 172
q-64 47 -173 47q-48 0 -97 -7q-63 -9 -132 -22l-53 228q99 21 184 29q82 8 158 8q231 0 349 -105t118 -278v-668h-271zM946 1473l-274 -302h-234l162 302h346z" />
    <glyph glyph-name="acircumflex.salt_low" horiz-adv-x="1118" 
d="M543 133q75 0 125 50q49 49 49 120q0 65 -48 112q-47 46 -126 46t-125 -46q-47 -47 -47 -112q0 -70 47 -120t125 -50zM735 0v88q-45 -49 -124 -88q-75 -37 -181 -37q-160 0 -258 94t-98 238q0 137 100 233q102 97 272 97q88 0 155 -23q69 -23 114 -57v51q0 126 -63 172
q-64 47 -173 47q-48 0 -97 -7q-63 -9 -132 -22l-53 228q99 21 184 29q82 8 158 8q231 0 349 -105t118 -278v-668h-271zM692 1171l-135 166l-135 -166h-258l244 302h299l245 -302h-260z" />
    <glyph glyph-name="atilde.salt_low" horiz-adv-x="1118" 
d="M543 133q75 0 125 50q49 49 49 120q0 65 -48 112q-47 46 -126 46t-125 -46q-47 -47 -47 -112q0 -70 47 -120t125 -50zM735 0v88q-45 -49 -124 -88q-75 -37 -181 -37q-160 0 -258 94t-98 238q0 137 100 233q102 97 272 97q88 0 155 -23q69 -23 114 -57v51q0 126 -63 172
q-64 47 -173 47q-48 0 -97 -7q-63 -9 -132 -22l-53 228q99 21 184 29q82 8 158 8q231 0 349 -105t118 -278v-668h-271zM348 1169l-217 9q-10 178 60 248q71 71 176 71q47 0 92 -16q49 -17 89 -36q42 -19 78 -36q35 -16 62 -16q33 0 54 18q22 19 22 78l217 -6
q8 -153 -53 -230t-178 -77q-48 0 -95 15q-36 11 -90 34q-73 30 -80 33q-40 16 -63 16q-28 0 -52 -21t-22 -84z" />
    <glyph glyph-name="adieresis.salt_low" horiz-adv-x="1118" 
d="M543 133q75 0 125 50q49 49 49 120q0 65 -48 112q-47 46 -126 46t-125 -46q-47 -47 -47 -112q0 -70 47 -120t125 -50zM735 0v88q-45 -49 -124 -88q-75 -37 -181 -37q-160 0 -258 94t-98 238q0 137 100 233q102 97 272 97q88 0 155 -23q69 -23 114 -57v51q0 126 -63 172
q-64 47 -173 47q-48 0 -97 -7q-63 -9 -132 -22l-53 228q99 21 184 29q82 8 158 8q231 0 349 -105t118 -278v-668h-271zM909 1399v-228h-258v228h258zM483 1399v-228h-258v228h258z" />
    <glyph glyph-name="aring.salt_low" horiz-adv-x="1118" 
d="M543 133q75 0 125 50q49 49 49 120q0 65 -48 112q-47 46 -126 46t-125 -46q-47 -47 -47 -112q0 -70 47 -120t125 -50zM735 0v88q-45 -49 -124 -88q-75 -37 -181 -37q-160 0 -258 94t-98 238q0 137 100 233q102 97 272 97q88 0 155 -23q69 -23 114 -57v51q0 126 -63 172
q-64 47 -173 47q-48 0 -97 -7q-63 -9 -132 -22l-53 228q99 21 184 29q82 8 158 8q231 0 349 -105t118 -278v-668h-271zM557 1673q109 0 189 -77q79 -76 79 -179q0 -102 -79 -180q-80 -78 -189 -78q-110 0 -188 79q-78 80 -78 179q0 100 78 178t188 78zM557 1542
q-51 0 -88 -37t-37 -88t37 -88t88 -37t88 37t37 88t-37 88t-88 37z" />
    <glyph glyph-name="amacron.salt_low" horiz-adv-x="1118" 
d="M543 133q75 0 125 50q49 49 49 120q0 65 -48 112q-47 46 -126 46t-125 -46q-47 -47 -47 -112q0 -70 47 -120t125 -50zM735 0v88q-45 -49 -124 -88q-75 -37 -181 -37q-160 0 -258 94t-98 238q0 137 100 233q102 97 272 97q88 0 155 -23q69 -23 114 -57v51q0 126 -63 172
q-64 47 -173 47q-48 0 -97 -7q-63 -9 -132 -22l-53 228q99 21 184 29q82 8 158 8q231 0 349 -105t118 -278v-668h-271zM860 1384v-213h-606v213h606z" />
    <glyph glyph-name="abreve.salt_low" horiz-adv-x="1118" 
d="M543 133q75 0 125 50q49 49 49 120q0 65 -48 112q-47 46 -126 46t-125 -46q-47 -47 -47 -112q0 -70 47 -120t125 -50zM735 0v88q-45 -49 -124 -88q-75 -37 -181 -37q-160 0 -258 94t-98 238q0 137 100 233q102 97 272 97q88 0 155 -23q69 -23 114 -57v51q0 126 -63 172
q-64 47 -173 47q-48 0 -97 -7q-63 -9 -132 -22l-53 228q99 21 184 29q82 8 158 8q231 0 349 -105t118 -278v-668h-271zM903 1481q-27 -142 -117 -232t-229 -90t-229 90t-117 232l178 6q26 -75 74 -113q46 -37 94 -37q49 0 95 37t73 113z" />
    <glyph glyph-name="aogonek.salt_low" horiz-adv-x="1118" 
d="M801 -367q-111 0 -161 50t-50 112q0 57 35 104q32 43 86 78l24 17v94q-45 -49 -124 -88q-75 -37 -181 -37q-160 0 -258 94t-98 238q0 137 100 233q102 97 272 97q88 0 155 -23q69 -23 114 -57v51q0 126 -63 172q-64 47 -173 47q-48 0 -97 -7q-63 -9 -132 -22l-53 228
q99 21 184 29q82 8 158 8q231 0 349 -105t118 -278v-668l-115 -76q-40 -27 -55 -47q-17 -22 -17 -41q0 -21 17 -36q16 -15 43 -15q19 0 40 8q16 6 29 19l80 -103q-32 -28 -91 -52t-136 -24zM543 133q75 0 125 48q49 48 49 118q0 67 -48 113q-49 47 -126 47q-78 0 -125 -47
t-47 -113q0 -69 47 -118q46 -48 125 -48z" />
    <glyph glyph-name="aringacute.salt_low" horiz-adv-x="1118" 
d="M543 133q75 0 125 50q49 49 49 120q0 65 -48 112q-47 46 -126 46t-125 -46q-47 -47 -47 -112q0 -70 47 -120t125 -50zM735 0v88q-45 -49 -124 -88q-75 -37 -181 -37q-160 0 -258 94t-98 238q0 137 100 233q102 97 272 97q88 0 155 -23q69 -23 114 -57v51q0 126 -63 172
q-64 47 -173 47q-48 0 -97 -7q-63 -9 -132 -22l-53 228q99 21 184 29q82 8 158 8q231 0 349 -105t118 -278v-668h-271zM557 1673q109 0 189 -77q79 -76 79 -179q0 -102 -79 -180q-80 -78 -189 -78q-110 0 -188 79q-78 80 -78 179q0 100 78 178t188 78zM557 1542
q-51 0 -88 -37t-37 -88t37 -88t88 -37t88 37t37 88t-37 88t-88 37zM946 2023l-274 -301h-234l162 301h346z" />
    <glyph glyph-name="c.salt_low" horiz-adv-x="1056" 
d="M889 274l115 -204q-65 -48 -152 -76q-90 -29 -184 -29q-127 0 -236 41q-108 40 -188 113q-81 73 -125 173q-45 102 -45 220q0 116 45 217q44 99 125 172q80 73 188 113q109 41 236 41q94 0 184 -29q87 -28 152 -76l-115 -202h-6q-42 32 -98 46q-52 13 -105 13
q-127 0 -213 -86t-86 -209q0 -128 86 -214q85 -85 213 -85q55 0 105 14q57 16 98 47h6z" />
    <glyph glyph-name="ccedilla.salt_low" horiz-adv-x="1056" 
d="M889 274l115 -204q-65 -48 -152 -76q-90 -29 -184 -29q-127 0 -236 41q-108 40 -188 113q-81 73 -125 173q-45 102 -45 220q0 116 45 217q44 99 125 172q80 73 188 113q109 41 236 41q94 0 184 -29q87 -28 152 -76l-115 -202h-6q-42 32 -98 46q-52 13 -105 13
q-127 0 -213 -86t-86 -209q0 -128 86 -214q85 -85 213 -85q55 0 105 14q57 16 98 47h6zM580 -430q-34 0 -76 7q-47 8 -84 22v120h2q35 -9 78 -16q39 -6 59 -6q47 0 73 16q27 17 27 45q0 26 -35 44q-36 18 -94 18h-36l-5 14l58 164l125 -6l-31 -72q91 -12 144 -57t53 -113
q0 -78 -71 -129t-187 -51z" />
    <glyph glyph-name="cacute.salt_low" horiz-adv-x="1056" 
d="M889 274l115 -204q-65 -48 -152 -76q-90 -29 -184 -29q-127 0 -236 41q-108 40 -188 113q-81 73 -125 173q-45 102 -45 220q0 116 45 217q44 99 125 172q80 73 188 113q109 41 236 41q94 0 184 -29q87 -28 152 -76l-115 -202h-6q-42 32 -98 46q-52 13 -105 13
q-127 0 -213 -86t-86 -209q0 -128 86 -214q85 -85 213 -85q55 0 105 14q57 16 98 47h6zM1030 1473l-274 -302h-234l162 302h346z" />
    <glyph glyph-name="ccircumflex.salt_low" horiz-adv-x="1056" 
d="M889 274l115 -204q-65 -48 -152 -76q-90 -29 -184 -29q-127 0 -236 41q-108 40 -188 113q-81 73 -125 173q-45 102 -45 220q0 116 45 217q44 99 125 172q80 73 188 113q109 41 236 41q94 0 184 -29q87 -28 152 -76l-115 -202h-6q-42 32 -98 46q-52 13 -105 13
q-127 0 -213 -86t-86 -209q0 -128 86 -214q85 -85 213 -85q55 0 105 14q57 16 98 47h6zM776 1171l-135 166l-135 -166h-258l244 302h299l245 -302h-260z" />
    <glyph glyph-name="cdotaccent.salt_low" horiz-adv-x="1056" 
d="M889 274l115 -204q-65 -48 -152 -76q-90 -29 -184 -29q-127 0 -236 41q-108 40 -188 113q-81 73 -125 173q-45 102 -45 220q0 116 45 217q44 99 125 172q80 73 188 113q109 41 236 41q94 0 184 -29q87 -28 152 -76l-115 -202h-6q-42 32 -98 46q-52 13 -105 13
q-127 0 -213 -86t-86 -209q0 -128 86 -214q85 -85 213 -85q55 0 105 14q57 16 98 47h6zM788 1432v-248h-294v248h294z" />
    <glyph glyph-name="ccaron.salt_low" horiz-adv-x="1056" 
d="M889 274l115 -204q-65 -48 -152 -76q-90 -29 -184 -29q-127 0 -236 41q-108 40 -188 113q-81 73 -125 173q-45 102 -45 220q0 116 45 217q44 99 125 172q80 73 188 113q109 41 236 41q94 0 184 -29q87 -28 152 -76l-115 -202h-6q-42 32 -98 46q-52 13 -105 13
q-127 0 -213 -86t-86 -209q0 -128 86 -214q85 -85 213 -85q55 0 105 14q57 16 98 47h6zM791 1171h-299l-244 302h256l133 -166l135 166h264z" />
    <glyph glyph-name="s.salt_low" horiz-adv-x="892" 
d="M467 1057q92 0 167 -21t132 -45l-80 -215q-52 25 -107 38q-45 11 -81 11q-47 0 -77 -18t-30 -47q0 -30 33 -57q36 -29 108 -76q166 -112 225 -185q58 -71 58 -159q0 -131 -104 -222q-106 -93 -295 -94q-97 0 -194 25q-93 24 -163 65l76 217q76 -37 132 -55
q57 -18 106 -18q70 2 100 24q31 23 31 56q0 21 -30 56q-30 34 -136 103q-159 103 -205 170q-47 68 -47 156q0 50 22 105q22 54 66 94t118 66q73 26 175 26z" />
    <glyph glyph-name="sacute.salt_low" horiz-adv-x="892" 
d="M467 1057q92 0 167 -21t132 -45l-80 -215q-52 25 -107 38q-45 11 -81 11q-47 0 -77 -18t-30 -47q0 -30 33 -57q36 -29 108 -76q166 -112 225 -185q58 -71 58 -159q0 -131 -104 -222q-106 -93 -295 -94q-97 0 -194 25q-93 24 -163 65l76 217q76 -37 132 -55
q57 -18 106 -18q70 2 100 24q31 23 31 56q0 21 -30 56q-30 34 -136 103q-159 103 -205 170q-47 68 -47 156q0 50 22 105q22 54 66 94t118 66q73 26 175 26zM850 1473l-275 -302h-233l162 302h346z" />
    <glyph glyph-name="scircumflex.salt_low" horiz-adv-x="892" 
d="M467 1057q92 0 167 -21t132 -45l-80 -215q-52 25 -107 38q-45 11 -81 11q-47 0 -77 -18t-30 -47q0 -30 33 -57q36 -29 108 -76q166 -112 225 -185q58 -71 58 -159q0 -131 -104 -222q-106 -93 -295 -94q-97 0 -194 25q-93 24 -163 65l76 217q76 -37 132 -55
q57 -18 106 -18q70 2 100 24q31 23 31 56q0 21 -30 56q-30 34 -136 103q-159 103 -205 170q-47 68 -47 156q0 50 22 105q22 54 66 94t118 66q73 26 175 26zM594 1171l-135 166l-135 -166h-258l243 302h299l246 -302h-260z" />
    <glyph glyph-name="scedilla.salt_low" horiz-adv-x="892" 
d="M467 1057q92 0 167 -21t132 -45l-80 -215q-52 25 -107 38q-45 11 -81 11q-47 0 -77 -18t-30 -47q0 -30 33 -57q36 -29 108 -76q166 -112 225 -185q58 -71 58 -159q0 -131 -104 -222q-106 -93 -295 -94q-97 0 -194 25q-93 24 -163 65l76 217q76 -37 132 -55
q57 -18 106 -18q70 2 100 24q31 23 31 56q0 21 -30 56q-30 34 -136 103q-159 103 -205 170q-47 68 -47 156q0 50 22 105q22 54 66 94t118 66q73 26 175 26zM379 -432q-34 0 -76 7q-47 8 -84 22v120h2q35 -9 78 -16q39 -6 59 -6q47 0 73 16q28 17 28 45q0 26 -36 44t-93 18
h-37l-4 14l57 164l125 -6l-31 -72q93 -12 145 -57t52 -113q0 -78 -71 -129q-70 -51 -187 -51z" />
    <glyph glyph-name="scaron.salt_low" horiz-adv-x="892" 
d="M467 1057q92 0 167 -21t132 -45l-80 -215q-52 25 -107 38q-45 11 -81 11q-47 0 -77 -18t-30 -47q0 -30 33 -57q36 -29 108 -76q166 -112 225 -185q58 -71 58 -159q0 -131 -104 -222q-106 -93 -295 -94q-97 0 -194 25q-93 24 -163 65l76 217q76 -37 132 -55
q57 -18 106 -18q70 2 100 24q31 23 31 56q0 21 -30 56q-30 34 -136 103q-159 103 -205 170q-47 68 -47 156q0 50 22 105q22 54 66 94t118 66q73 26 175 26zM610 1171h-299l-243 302h256l133 -166l135 166h264z" />
    <glyph glyph-name="scommaaccent.salt_low" horiz-adv-x="892" 
d="M467 1057q92 0 167 -21t132 -45l-80 -215q-52 25 -107 38q-45 11 -81 11q-47 0 -77 -18t-30 -47q0 -30 33 -57q36 -29 108 -76q166 -112 225 -185q58 -71 58 -159q0 -131 -104 -222q-106 -93 -295 -94q-97 0 -194 25q-93 24 -163 65l76 217q76 -37 132 -55
q57 -18 106 -18q70 2 100 24q31 23 31 56q0 21 -30 56q-30 34 -136 103q-159 103 -205 170q-47 68 -47 156q0 50 22 105q22 54 66 94t118 66q73 26 175 26zM563 -115l-143 -358h-211l61 358h293z" />
    <glyph glyph-name="ae.salt_low" horiz-adv-x="1882" 
d="M1255 836q-97 0 -161 -56q-65 -57 -88 -155h497q-23 96 -89 154q-64 57 -159 57zM543 121q77 0 127 49q51 49 51 125q0 66 -49 115t-129 49q-79 0 -125 -49q-47 -50 -47 -115q0 -74 47 -124t125 -50zM1800 129q-83 -74 -205 -126t-288 -52q-147 0 -265 50
q-113 48 -192 136q-40 -70 -133 -128q-94 -58 -242 -58q-186 0 -293 97q-108 98 -108 241q0 138 100 237t272 99q82 0 148 -21q68 -22 111 -53v45q0 126 -60 172q-61 47 -170 47q-49 0 -98 -7t-144 -26l-20 234q85 18 166 27q72 8 156 8q120 0 207 -33q89 -34 141 -90
q69 69 166 107t208 38q118 0 220 -42q103 -42 176 -117q72 -73 116 -177q43 -101 43 -223v-78h-815q18 -123 101 -189q84 -67 215 -67q103 0 185 35q81 35 144 90z" />
    <glyph glyph-name="aeacute.salt_low" horiz-adv-x="1882" 
d="M1255 836q-97 0 -161 -56q-65 -57 -88 -155h497q-23 96 -89 154q-64 57 -159 57zM543 121q77 0 127 49q51 49 51 125q0 66 -49 115t-129 49q-79 0 -125 -49q-47 -50 -47 -115q0 -74 47 -124t125 -50zM1800 129q-83 -74 -205 -126t-288 -52q-147 0 -265 50
q-113 48 -192 136q-40 -70 -133 -128q-94 -58 -242 -58q-186 0 -293 97q-108 98 -108 241q0 138 100 237t272 99q82 0 148 -21q68 -22 111 -53v45q0 126 -60 172q-61 47 -170 47q-49 0 -98 -7t-144 -26l-20 234q85 18 166 27q72 8 156 8q120 0 207 -33q89 -34 141 -90
q69 69 166 107t208 38q118 0 220 -42q103 -42 176 -117q72 -73 116 -177q43 -101 43 -223v-78h-815q18 -123 101 -189q84 -67 215 -67q103 0 185 35q81 35 144 90zM1298 1473l-274 -302h-233l161 302h346z" />
    <glyph glyph-name="K.salt_tall" horiz-adv-x="1449" 
d="M983 0l-530 707v-707h-320v1528h320v-686l512 686h370l-569 -731l623 -797h-406z" />
    <glyph glyph-name="Kcommaaccent.salt_tall" horiz-adv-x="1449" 
d="M983 0l-530 707v-707h-320v1528h320v-686l512 686h370l-569 -731l623 -797h-406zM856 -115l-143 -358h-211l61 358h293z" />
    <glyph glyph-name="P.salt_tall" horiz-adv-x="1243" 
d="M549 467h-96v-467h-320v1528h424q125 0 239 -27t197 -88q84 -62 134 -161q51 -102 51 -244q0 -140 -57 -242q-59 -106 -144 -169q-90 -67 -202 -98q-116 -32 -226 -32zM555 1243h-102v-498h102q135 0 218 71t83 192q0 109 -71 172t-230 63z" />
    <glyph glyph-name="R.salt_tall" horiz-adv-x="1304" 
d="M559 1243h-106v-469h108q130 0 215 68q84 68 84 182q-1 99 -76 160q-72 59 -225 59zM854 0l-393 518h-8v-518h-320v1528h402q127 0 246 -27t205 -85q87 -59 138 -154q52 -98 52 -234q0 -87 -29 -162q-27 -71 -79 -130q-45 -52 -118 -99q-67 -43 -143 -70l430 -567h-383z
" />
    <glyph glyph-name="Racute.salt_tall" horiz-adv-x="1304" 
d="M559 1243h-106v-469h108q130 0 215 68q84 68 84 182q-1 99 -76 160q-72 59 -225 59zM854 0l-393 518h-8v-518h-320v1528h402q127 0 246 -27t205 -85q87 -59 138 -154q52 -98 52 -234q0 -87 -29 -162q-27 -71 -79 -130q-45 -52 -118 -99q-67 -43 -143 -70l430 -567h-383z
M1012 1954l-275 -301h-233l162 301h346z" />
    <glyph glyph-name="Rcommaaccent.salt_tall" horiz-adv-x="1304" 
d="M559 1243h-106v-469h108q130 0 215 68q84 68 84 182q-1 99 -76 160q-72 59 -225 59zM854 0l-393 518h-8v-518h-320v1528h402q127 0 246 -27t205 -85q87 -59 138 -154q52 -98 52 -234q0 -87 -29 -162q-27 -71 -79 -130q-45 -52 -118 -99q-67 -43 -143 -70l430 -567h-383z
M782 -115l-143 -358h-211l61 358h293z" />
    <glyph glyph-name="Rcaron.salt_tall" horiz-adv-x="1304" 
d="M559 1243h-106v-469h108q130 0 215 68q84 68 84 182q-1 99 -76 160q-72 59 -225 59zM854 0l-393 518h-8v-518h-320v1528h402q127 0 246 -27t205 -85q87 -59 138 -154q52 -98 52 -234q0 -87 -29 -162q-27 -71 -79 -130q-45 -52 -118 -99q-67 -43 -143 -70l430 -567h-383z
M772 1653h-299l-244 301h256l133 -166l136 166h264z" />
    <glyph glyph-name="S.salt_tall" horiz-adv-x="1128" 
d="M942 1507l-2 -274q-59 30 -139 47q-83 18 -158 18q-113 0 -163 -41t-50 -96q0 -59 60 -119q53 -53 190 -147q179 -126 273 -237q91 -107 91 -248q0 -104 -43 -184q-44 -83 -118 -136q-76 -55 -178 -85t-220 -30q-39 0 -97 5q-51 4 -103 12q-57 8 -97 19q-49 13 -75 26
l2 282q66 -31 169 -58q97 -25 203 -25q113 0 172 52q60 52 60 115t-67 128q-67 66 -208 157q-195 134 -271 239q-75 103 -75 232q0 77 32 150q31 71 96 127q63 54 166 89q101 34 239 34q68 0 161 -13q83 -12 150 -39z" />
    <glyph glyph-name="Sacute.salt_tall" horiz-adv-x="1128" 
d="M942 1507l-2 -274q-59 30 -139 47q-83 18 -158 18q-113 0 -163 -41t-50 -96q0 -59 60 -119q53 -53 190 -147q179 -126 273 -237q91 -107 91 -248q0 -104 -43 -184q-44 -83 -118 -136q-76 -55 -178 -85t-220 -30q-39 0 -97 5q-51 4 -103 12q-57 8 -97 19q-49 13 -75 26
l2 282q66 -31 169 -58q97 -25 203 -25q113 0 172 52q60 52 60 115t-67 128q-67 66 -208 157q-195 134 -271 239q-75 103 -75 232q0 77 32 150q31 71 96 127q63 54 166 89q101 34 239 34q68 0 161 -13q83 -12 150 -39zM999 1954l-274 -301h-233l161 301h346z" />
    <glyph glyph-name="Scircumflex.salt_tall" horiz-adv-x="1128" 
d="M942 1507l-2 -274q-59 30 -139 47q-83 18 -158 18q-113 0 -163 -41t-50 -96q0 -59 60 -119q53 -53 190 -147q179 -126 273 -237q91 -107 91 -248q0 -104 -43 -184q-44 -83 -118 -136q-76 -55 -178 -85t-220 -30q-39 0 -97 5q-51 4 -103 12q-57 8 -97 19q-49 13 -75 26
l2 282q66 -31 169 -58q97 -25 203 -25q113 0 172 52q60 52 60 115t-67 128q-67 66 -208 157q-195 134 -271 239q-75 103 -75 232q0 77 32 150q31 71 96 127q63 54 166 89q101 34 239 34q68 0 161 -13q83 -12 150 -39zM743 1653l-135 166l-135 -166h-258l244 301h299
l246 -301h-261z" />
    <glyph glyph-name="Scedilla.salt_tall" horiz-adv-x="1128" 
d="M942 1507l-2 -274q-59 30 -139 47q-83 18 -158 18q-113 0 -163 -41t-50 -96q0 -59 60 -119q53 -53 190 -147q179 -126 273 -237q91 -107 91 -248q0 -104 -43 -184q-44 -83 -118 -136q-76 -55 -178 -85t-220 -30q-39 0 -97 5q-51 4 -103 12q-57 8 -97 19q-49 13 -75 26
l2 282q66 -31 169 -58q97 -25 203 -25q113 0 172 52q60 52 60 115t-67 128q-67 66 -208 157q-195 134 -271 239q-75 103 -75 232q0 77 32 150q31 71 96 127q63 54 166 89q101 34 239 34q68 0 161 -13q83 -12 150 -39zM461 -442q-33 0 -78 6q-50 7 -86 20v125h2
q39 -12 80 -18t61 -6q53 0 81 17q30 18 30 48q0 29 -39 47q-41 19 -100 19h-37l-6 14l57 168h131l-33 -82q98 -12 150 -58q53 -47 53 -118q0 -76 -74 -129t-192 -53z" />
    <glyph glyph-name="Scaron.salt_tall" horiz-adv-x="1128" 
d="M942 1507l-2 -274q-59 30 -139 47q-83 18 -158 18q-113 0 -163 -41t-50 -96q0 -59 60 -119q53 -53 190 -147q179 -126 273 -237q91 -107 91 -248q0 -104 -43 -184q-44 -83 -118 -136q-76 -55 -178 -85t-220 -30q-39 0 -97 5q-51 4 -103 12q-57 8 -97 19q-49 13 -75 26
l2 282q66 -31 169 -58q97 -25 203 -25q113 0 172 52q60 52 60 115t-67 128q-67 66 -208 157q-195 134 -271 239q-75 103 -75 232q0 77 32 150q31 71 96 127q63 54 166 89q101 34 239 34q68 0 161 -13q83 -12 150 -39zM760 1653h-299l-244 301h256l133 -166l135 166h265z" />
    <glyph glyph-name="Scommaaccent.salt_tall" horiz-adv-x="1128" 
d="M942 1507l-2 -274q-59 30 -139 47q-83 18 -158 18q-113 0 -163 -41t-50 -96q0 -59 60 -119q53 -53 190 -147q179 -126 273 -237q91 -107 91 -248q0 -104 -43 -184q-44 -83 -118 -136q-76 -55 -178 -85t-220 -30q-39 0 -97 5q-51 4 -103 12q-57 8 -97 19q-49 13 -75 26
l2 282q66 -31 169 -58q97 -25 203 -25q113 0 172 52q60 52 60 115t-67 128q-67 66 -208 157q-195 134 -271 239q-75 103 -75 232q0 77 32 150q31 71 96 127q63 54 166 89q101 34 239 34q68 0 161 -13q83 -12 150 -39zM651 -133l-143 -359h-211l61 359h293z" />
    <glyph glyph-name="T.salt_tall" horiz-adv-x="1019" 
d="M352 0v1243h-299v285h914v-285h-297v-1243h-318z" />
    <glyph glyph-name="Tcaron.salt_tall" horiz-adv-x="1019" 
d="M352 0v1243h-299v285h914v-285h-297v-1243h-318zM662 1653h-300l-243 301h256l133 -166l135 166h264z" />
    <glyph glyph-name="Tcommaaccent.salt_tall" horiz-adv-x="1019" 
d="M352 0v1243h-299v285h914v-285h-297v-1243h-318zM657 -115l-143 -358h-211l62 358h292z" />
    <glyph glyph-name="Tbar.salt_tall" horiz-adv-x="1019" 
d="M823 623h-153v-623h-318v623h-155v219h155v401h-299v285h914v-285h-297v-401h153v-219z" />
    <glyph glyph-name="a.salt_ss" horiz-adv-x="1368" 
d="M969 512q0 120 -86 208q-85 87 -209 87q-123 0 -207 -86q-84 -85 -84 -209q0 -118 84 -207q84 -88 207 -88q124 0 209 88q86 89 86 207zM981 0v162q-69 -95 -169 -146q-104 -53 -232 -53q-108 0 -199 42q-93 42 -159 115q-67 73 -104 173q-38 102 -38 215t38 215
q37 99 104 175q66 75 159 119t199 44q115 0 217 -50q100 -49 166 -132v145h290v-1024h-272z" />
    <glyph glyph-name="agrave.salt_ss" horiz-adv-x="1368" 
d="M969 512q0 120 -86 208q-85 87 -209 87q-123 0 -207 -86q-84 -85 -84 -209q0 -118 84 -207q84 -88 207 -88q124 0 209 88q86 89 86 207zM981 0v162q-69 -95 -169 -146q-104 -53 -232 -53q-108 0 -199 42q-93 42 -159 115q-67 73 -104 173q-38 102 -38 215t38 215
q37 99 104 175q66 75 159 119t199 44q115 0 217 -50q100 -49 166 -132v145h290v-1024h-272zM307 1473h350l166 -302h-241z" />
    <glyph glyph-name="aacute.salt_ss" horiz-adv-x="1368" 
d="M969 512q0 120 -86 208q-85 87 -209 87q-123 0 -207 -86q-84 -85 -84 -209q0 -118 84 -207q84 -88 207 -88q124 0 209 88q86 89 86 207zM981 0v162q-69 -95 -169 -146q-104 -53 -232 -53q-108 0 -199 42q-93 42 -159 115q-67 73 -104 173q-38 102 -38 215t38 215
q37 99 104 175q66 75 159 119t199 44q115 0 217 -50q100 -49 166 -132v145h290v-1024h-272zM1096 1473l-275 -302h-233l162 302h346z" />
    <glyph glyph-name="acircumflex.salt_ss" horiz-adv-x="1368" 
d="M969 512q0 120 -86 208q-85 87 -209 87q-123 0 -207 -86q-84 -85 -84 -209q0 -118 84 -207q84 -88 207 -88q124 0 209 88q86 89 86 207zM981 0v162q-69 -95 -169 -146q-104 -53 -232 -53q-108 0 -199 42q-93 42 -159 115q-67 73 -104 173q-38 102 -38 215t38 215
q37 99 104 175q66 75 159 119t199 44q115 0 217 -50q100 -49 166 -132v145h290v-1024h-272zM840 1171l-135 166l-136 -166h-258l244 302h299l246 -302h-260z" />
    <glyph glyph-name="atilde.salt_ss" horiz-adv-x="1368" 
d="M969 512q0 120 -86 208q-85 87 -209 87q-123 0 -207 -86q-84 -85 -84 -209q0 -118 84 -207q84 -88 207 -88q124 0 209 88q86 89 86 207zM981 0v162q-69 -95 -169 -146q-104 -53 -232 -53q-108 0 -199 42q-93 42 -159 115q-67 73 -104 173q-38 102 -38 215t38 215
q37 99 104 175q66 75 159 119t199 44q115 0 217 -50q100 -49 166 -132v145h290v-1024h-272zM496 1169l-217 9q-10 178 60 248q71 71 175 71q47 0 92 -16q49 -17 89 -36q42 -19 78 -36q35 -16 63 -16q33 0 54 18t21 78l217 -6q8 -153 -53 -230t-178 -77q-48 0 -94 15
q-36 11 -90 34q-72 30 -80 33q-40 16 -64 16q-28 0 -52 -21q-23 -20 -21 -84z" />
    <glyph glyph-name="adieresis.salt_ss" horiz-adv-x="1368" 
d="M969 512q0 120 -86 208q-85 87 -209 87q-123 0 -207 -86q-84 -85 -84 -209q0 -118 84 -207q84 -88 207 -88q124 0 209 88q86 89 86 207zM981 0v162q-69 -95 -169 -146q-104 -53 -232 -53q-108 0 -199 42q-93 42 -159 115q-67 73 -104 173q-38 102 -38 215t38 215
q37 99 104 175q66 75 159 119t199 44q115 0 217 -50q100 -49 166 -132v145h290v-1024h-272zM1047 1399v-228h-259v228h259zM621 1399v-228h-259v228h259z" />
    <glyph glyph-name="aring.salt_ss" horiz-adv-x="1368" 
d="M969 512q0 120 -86 208q-85 87 -209 87q-123 0 -207 -86q-84 -85 -84 -209q0 -118 84 -207q84 -88 207 -88q124 0 209 88q86 89 86 207zM981 0v162q-69 -95 -169 -146q-104 -53 -232 -53q-108 0 -199 42q-93 42 -159 115q-67 73 -104 173q-38 102 -38 215t38 215
q37 99 104 175q66 75 159 119t199 44q115 0 217 -50q100 -49 166 -132v145h290v-1024h-272zM705 1673q109 0 189 -77q79 -76 79 -179q0 -102 -79 -180q-80 -78 -189 -78q-111 0 -189 79q-78 80 -78 179q0 100 78 178t189 78zM705 1542q-52 0 -89 -37q-36 -36 -36 -88t36 -88
q37 -37 89 -37q51 0 88 37q36 36 36 88t-36 88q-37 37 -88 37z" />
    <glyph glyph-name="amacron.salt_ss" horiz-adv-x="1368" 
d="M969 512q0 120 -86 208q-85 87 -209 87q-123 0 -207 -86q-84 -85 -84 -209q0 -118 84 -207q84 -88 207 -88q124 0 209 88q86 89 86 207zM981 0v162q-69 -95 -169 -146q-104 -53 -232 -53q-108 0 -199 42q-93 42 -159 115q-67 73 -104 173q-38 102 -38 215t38 215
q37 99 104 175q66 75 159 119t199 44q115 0 217 -50q100 -49 166 -132v145h290v-1024h-272zM1008 1384v-213h-607v213h607z" />
    <glyph glyph-name="abreve.salt_ss" horiz-adv-x="1368" 
d="M969 512q0 120 -86 208q-85 87 -209 87q-123 0 -207 -86q-84 -85 -84 -209q0 -118 84 -207q84 -88 207 -88q124 0 209 88q86 89 86 207zM981 0v162q-69 -95 -169 -146q-104 -53 -232 -53q-108 0 -199 42q-93 42 -159 115q-67 73 -104 173q-38 102 -38 215t38 215
q37 99 104 175q66 75 159 119t199 44q115 0 217 -50q100 -49 166 -132v145h290v-1024h-272zM1051 1481q-27 -142 -117 -232t-229 -90q-140 0 -230 90t-117 232l179 6q27 -76 73 -113t95 -37t95 37q45 36 72 113z" />
    <glyph glyph-name="aogonek.salt_ss" horiz-adv-x="1368" 
d="M1049 -367q-110 0 -162 50q-51 49 -51 112q0 59 36 104q35 43 84 78l25 15v170q-69 -95 -169 -146q-104 -53 -232 -53q-108 0 -199 42q-93 42 -159 115q-67 73 -104 173q-38 102 -38 215t38 215q37 99 104 175q66 75 159 119t199 44q115 0 217 -50q100 -49 166 -132v145
h290v-1024l-112 -76q-41 -28 -57 -47q-17 -20 -17 -41t16 -36q17 -15 43 -15q19 0 40 8q18 7 32 19l80 -103q-32 -28 -91 -52t-138 -24zM969 512q0 120 -86 208q-85 87 -209 87q-123 0 -207 -86q-84 -85 -84 -209q0 -118 84 -207q84 -88 207 -88q124 0 209 88q86 89 86 207z
" />
    <glyph glyph-name="aringacute.salt_ss" horiz-adv-x="1368" 
d="M969 512q0 120 -86 208q-85 87 -209 87q-123 0 -207 -86q-84 -85 -84 -209q0 -118 84 -207q84 -88 207 -88q124 0 209 88q86 89 86 207zM981 0v162q-69 -95 -169 -146q-104 -53 -232 -53q-108 0 -199 42q-93 42 -159 115q-67 73 -104 173q-38 102 -38 215t38 215
q37 99 104 175q66 75 159 119t199 44q115 0 217 -50q100 -49 166 -132v145h290v-1024h-272zM705 1673q109 0 189 -77q79 -76 79 -179q0 -102 -79 -180q-80 -78 -189 -78q-111 0 -189 79q-78 80 -78 179q0 100 78 178t189 78zM705 1542q-52 0 -89 -37q-36 -36 -36 -88t36 -88
q37 -37 89 -37q51 0 88 37q36 36 36 88t-36 88q-37 37 -88 37zM1096 2023l-275 -301h-233l162 301h346z" />
    <glyph glyph-name="Adieresis.salt" horiz-adv-x="1570" 
d="M1384 1528v-254h-305v254h305zM492 1528v-254h-306v254h306zM1014 504l-232 631l-233 -631h465zM1200 0l-92 252h-653l-95 -252h-329l598 1528h315l598 -1528h-342z" />
    <glyph glyph-name="Odieresis.salt" horiz-adv-x="1851" 
d="M928 1286q-110 0 -207 -41t-167 -111q-71 -72 -112 -166q-41 -96 -41 -202t41 -203q40 -95 112 -167q69 -69 167 -112q96 -42 207 -42q110 0 204 42q95 42 165 112q72 72 112 167q41 97 41 203t-41 202q-41 94 -112 166q-71 70 -165 111q-96 41 -204 41zM1769 766
q0 -169 -65 -317q-67 -153 -179 -260q-114 -109 -269 -174q-153 -64 -328 -64q-180 0 -333 64q-154 64 -268 174q-114 109 -180 260q-65 148 -65 317q0 142 48 273t136 235h-153v254h297v-119q108 82 237 124q135 44 281 44q143 0 277 -44q130 -43 237 -124v119h299v-254
h-156q88 -104 136 -235t48 -273z" />
    <glyph glyph-name="Udieresis.salt" horiz-adv-x="1507" 
d="M1380 1528v-242h-348v242h348zM475 1528v-242h-348v242h348zM1380 653q0 -335 -162 -518q-163 -184 -464 -184q-300 0 -463 184q-164 185 -164 518v592h348v-657q0 -78 24 -138q26 -64 62 -102q38 -39 89 -61q50 -21 104 -21q109 0 194 83q84 82 84 239v657h348v-592z
" />
    <glyph glyph-name="asterisk.salt1" horiz-adv-x="827" 
d="M707 1022l-230 41l-92 -201l-55 6l-29 232l-221 24l-10 56l209 100l-43 217l47 27l161 -170l193 108l41 -37l-111 -202l162 -152z" />
    <glyph glyph-name="space.em" horiz-adv-x="2048" 
 />
    <glyph glyph-name="space.en" horiz-adv-x="1024" 
 />
    <glyph glyph-name="space.frac" horiz-adv-x="174" 
 />
    <glyph glyph-name="space.thin" horiz-adv-x="307" 
 />
    </font>
</defs>
</svg>
